<!DOCTYPE svg PUBLIC "-//W3C//DTD SVG 1.1//EN" "http://www.w3.org/Graphics/SVG/1.1/DTD/svg11.dtd">
<svg xmlns="http://www.w3.org/2000/svg" xmlns:xlink="http://www.w3.org/1999/xlink" xmlns:serif="http://www.serif.com/" width="100%" height="100%" viewBox="0 0 384 576" version="1.1" xml:space="preserve" style="fill-rule:evenodd;clip-rule:evenodd;stroke-linecap:round;stroke-linejoin:round;stroke-miterlimit:1.5;">
    <g id="g10" transform="matrix(1.33333,0,0,-1.33333,0,576)">
        <g transform="matrix(0.829528,0,0,-0.854665,1.62954,501.632)">
            <text x="13.02px" y="140.109px" style="font-family:'ComicRelief', 'Comic Relief', cursive;font-size:12px;"><tspan xmlns:ns0="http://sodipodi.sourceforge.net/DTD/sodipodi-0.dtd" ns0:role="line">Let's zoom out a bit. A lot of the people I admire</tspan></text>
            <text x="13.02px" y="158.109px" style="font-family:'ComicRelief', 'Comic Relief', cursive;font-size:12px;"><tspan xmlns:ns0="http://sodipodi.sourceforge.net/DTD/sodipodi-0.dtd" ns0:role="line">the most have been working on getting better at</tspan></text>
            <text x="13.02px" y="176.109px" style="font-family:'ComicRelief', 'Comic Relief', cursive;font-size:12px;"><tspan xmlns:ns0="http://sodipodi.sourceforge.net/DTD/sodipodi-0.dtd" ns0:role="line">what they do for &#160; years</tspan></text>
        </g>
        <g transform="matrix(0.829528,0,0,-0.854665,1.27919,452.459)">
            <text x="13.02px" y="140.109px" style="font-family:'ComicRelief', 'Comic Relief', cursive;font-size:12px;"><tspan xmlns:ns0="http://sodipodi.sourceforge.net/DTD/sodipodi-0.dtd" ns0:role="line">I've found it useful to pick a few things I'm really</tspan></text>
            <text x="13.02px" y="158.109px" style="font-family:'ComicRelief', 'Comic Relief', cursive;font-size:12px;"><tspan xmlns:ns0="http://sodipodi.sourceforge.net/DTD/sodipodi-0.dtd" ns0:role="line">interested in (like Linux!) and focus on those.</tspan></text>
        </g>
        <g transform="matrix(0.829528,0,0,-0.854665,1.62954,414.679)">
            <text x="13.02px" y="140.109px" style="font-family:'ComicRelief', 'Comic Relief', cursive;font-size:12px;"><tspan xmlns:ns0="http://sodipodi.sourceforge.net/DTD/sodipodi-0.dtd" ns0:role="line">Things I've spent signi&#64257;cant amounts of time</tspan></text>
            <text x="13.02px" y="158.109px" style="font-family:'ComicRelief', 'Comic Relief', cursive;font-size:12px;"><tspan xmlns:ns0="http://sodipodi.sourceforge.net/DTD/sodipodi-0.dtd" ns0:role="line">(at least a year) working on getting better at:</tspan></text>
        </g>
        <g transform="matrix(0.742469,0,0,-0.764968,53.9344,369.497)">
            <text x="13.02px" y="140.109px" style="font-family:'ComicRelief', 'Comic Relief', cursive;font-size:12px;"><tspan xmlns:ns0="http://sodipodi.sourceforge.net/DTD/sodipodi-0.dtd" ns0:role="line">Linux networking!</tspan></text>
            <text x="13.02px" y="158.109px" style="font-family:'ComicRelief', 'Comic Relief', cursive;font-size:12px;"><tspan xmlns:ns0="http://sodipodi.sourceforge.net/DTD/sodipodi-0.dtd" ns0:role="line">debugging and pro&#64257;ling tools!</tspan></text>
            <text x="13.02px" y="176.109px" style="font-family:'ComicRelief', 'Comic Relief', cursive;font-size:12px;"><tspan xmlns:ns0="http://sodipodi.sourceforge.net/DTD/sodipodi-0.dtd" ns0:role="line">machine learning!</tspan></text>
            <text x="13.02px" y="194.109px" style="font-family:'ComicRelief', 'Comic Relief', cursive;font-size:12px;"><tspan xmlns:ns0="http://sodipodi.sourceforge.net/DTD/sodipodi-0.dtd" ns0:role="line">planning projects at work!</tspan></text>
            <text x="13.02px" y="212.109px" style="font-family:'ComicRelief', 'Comic Relief', cursive;font-size:12px;"><tspan xmlns:ns0="http://sodipodi.sourceforge.net/DTD/sodipodi-0.dtd" ns0:role="line">technical writing &amp; speaking!</tspan></text>
        </g>
        <g transform="matrix(0.829528,0,0,-0.854665,1.62954,309.189)">
            <text x="13.02px" y="140.109px" style="font-family:'ComicRelief', 'Comic Relief', cursive;font-size:12px;"><tspan xmlns:ns0="http://sodipodi.sourceforge.net/DTD/sodipodi-0.dtd" ns0:role="line">There are lots of things (Go! Databases! Javascript!)</tspan></text>
            <text x="13.02px" y="158.109px" style="font-family:'ComicRelief', 'Comic Relief', cursive;font-size:12px;"><tspan xmlns:ns0="http://sodipodi.sourceforge.net/DTD/sodipodi-0.dtd" ns0:role="line">that are important and I know a little about but</tspan></text>
            <text x="13.02px" y="176.109px" style="font-family:'ComicRelief', 'Comic Relief', cursive;font-size:12px;"><tspan xmlns:ns0="http://sodipodi.sourceforge.net/DTD/sodipodi-0.dtd" ns0:role="line">haven't spent that much time on. That's okay!</tspan></text>
        </g>
        <g transform="matrix(0.829528,0,0,-0.854665,1.62954,257.764)">
            <text x="13.02px" y="140.109px" style="font-family:'ComicRelief', 'Comic Relief', cursive;font-size:12px;"><tspan xmlns:ns0="http://sodipodi.sourceforge.net/DTD/sodipodi-0.dtd" ns0:role="line">It's super fun to see a progression like</tspan></text>
        </g>
        <g transform="matrix(0.619306,0,0,-0.638072,48.2788,206.429)">
            <text x="13.02px" y="140.109px" style="font-family:'ComicRelief', 'Comic Relief', cursive;font-size:12px;"><tspan xmlns:ns0="http://sodipodi.sourceforge.net/DTD/sodipodi-0.dtd" ns0:role="line">I'm going to</tspan></text>
            <text x="13.02px" y="158.109px" style="font-family:'ComicRelief', 'Comic Relief', cursive;font-size:12px;"><tspan xmlns:ns0="http://sodipodi.sourceforge.net/DTD/sodipodi-0.dtd" ns0:role="line">learn about</tspan></text>
            <text x="13.02px" y="176.109px" style="font-family:'ComicRelief', 'Comic Relief', cursive;font-size:12px;"><tspan xmlns:ns0="http://sodipodi.sourceforge.net/DTD/sodipodi-0.dtd" ns0:role="line">networking</tspan></text>
        </g>
        <g transform="matrix(0.75,0,0,-0.75,0,432)">
            <path d="M32.102,415.646C28.236,414.338 23.645,418.742 22.546,422.067C19.933,429.97 24.202,438.452 33.186,437.734C38.201,437.333 43.984,434.687 44.413,429.104C44.524,427.667 44.292,426.39 43.994,424.999C43.692,423.587 43.453,422.01 42.737,420.726C41.223,418.008 38.802,417.467 36.202,416.286C34.674,415.591 32.803,414.634 31.175,415.448" style="fill:none;stroke:black;stroke-width:1px;"/>
        </g>
        <g transform="matrix(0.75,0,0,-0.75,0,432)">
            <path d="M32.403,438.082C32.705,437.945 32.348,438.743 32.348,439.074L32.348,440.583C32.348,442.553 32.436,444.486 32.6,446.447C32.896,449.997 33.102,453.612 33.102,457.171C33.102,457.764 33.441,459.766 32.935,460.271" style="fill:none;stroke:black;stroke-width:1px;"/>
        </g>
        <g transform="matrix(0.75,0,0,-0.75,0,432)">
            <path d="M22.831,443.274C22.627,443.211 23.213,443.471 23.384,443.599C23.638,443.79 23.88,443.998 24.138,444.185C24.823,444.683 25.44,445.2 26.065,445.777C27.741,447.325 29.151,449.114 30.757,450.72C31.273,451.237 31.672,452.058 32.348,452.396C32.725,452.584 34.443,450.469 34.611,450.301C36.722,448.19 38.725,445.989 41.062,444.101C41.389,443.837 42.616,442.593 43.156,442.593" style="fill:none;stroke:black;stroke-width:1px;"/>
        </g>
        <g transform="matrix(0.75,0,0,-0.75,0,432)">
            <path d="M24.088,473.392C24.041,473.437 24.2,473.055 24.222,473.006C24.411,472.581 24.602,472.47 24.892,472.085C25.599,471.141 26.193,470.069 26.819,469.068C28.277,466.736 29.483,464.374 31.175,462.198C31.623,461.623 32.003,460.696 32.684,460.355C32.885,460.255 33.091,461.002 33.102,461.025C33.438,461.696 33.941,462.08 34.443,462.617C35.708,463.973 36.893,465.397 37.878,466.974C38.836,468.506 39.605,470.942 41.229,471.917" style="fill:none;stroke:black;stroke-width:1px;"/>
        </g>
        <g transform="matrix(0.75,0,0,-0.75,0,432)">
            <path d="M28.547,422.593C28.583,422.566 28.503,422.653 28.578,422.653" style="fill:none;stroke:black;stroke-width:1px;"/>
        </g>
        <g transform="matrix(0.75,0,0,-0.75,0,432)">
            <path d="M34.749,422.55C34.786,422.575 34.694,422.534 34.694,422.653" style="fill:none;stroke:black;stroke-width:1px;"/>
        </g>
        <g transform="matrix(0.75,0,0,-0.75,0,432)">
            <path d="M27.602,428.564C26.937,429.426 29.063,431.23 29.584,431.534C31.755,432.803 36.313,431.876 36.789,429.021" style="fill:none;stroke:black;stroke-width:1px;"/>
        </g>
        <g transform="matrix(0.75,0,0,-0.75,0,432)">
            <path d="M22.821,433.489C22.703,433.349 22.703,433.87 22.546,433.964C22.396,434.054 21.877,434.124 21.792,434.131C20.275,434.258 19.406,433.387 19.027,431.869C18.844,431.136 18.662,427.277 20.619,428.183C21.498,428.59 20.809,429.537 20.032,429.44C19.303,429.348 18.972,428.381 18.86,427.764C18.616,426.426 18.484,423.744 19.865,422.821C20.442,422.435 22.642,422.792 21.792,423.156C20.78,423.589 20.75,422.583 20.786,421.815C20.853,420.408 21.087,418.66 22.043,417.542C22.682,416.796 24.021,416.883 24.64,417.626C25.029,418.093 24.159,418.203 23.97,417.961C22.71,416.352 25.977,414.371 27.106,414.166C27.679,414.062 28.36,414.032 28.83,414.443C29.097,414.677 29.28,415.298 28.83,415.448C27.984,415.73 29.843,413.821 29.919,413.772C31.043,413.045 32.329,412.694 33.605,413.27C34.928,413.866 35.055,416.114 33.521,415.28C32.81,414.894 34.231,413.885 34.443,413.772C35.582,413.165 37.544,413.582 37.878,415.029C37.989,415.508 37.645,416.561 36.956,416.286C36.489,416.099 36.681,415.273 36.956,415.029C37.539,414.515 38.866,414.037 39.637,414.359C40.579,414.752 41.917,415.869 41.397,417.04C41.272,417.321 39.988,418.194 39.721,417.794C39.173,416.972 41.382,416.533 41.732,416.537C44.106,416.562 43.882,419.553 41.397,419.553" style="fill:none;stroke:black;stroke-width:1px;"/>
        </g>
        <g transform="matrix(0.75,0,0,-0.75,10.1206,434.117)">
            <path d="M63.235,411.921C59.115,412.078 55.083,417.875 55.083,421.853C55.083,423.391 55.871,424.964 57.148,425.837C57.591,426.14 58.125,426.348 58.656,426.423C58.877,426.455 59.526,426.323 59.326,426.423C57.36,427.407 56.547,429.37 55.807,431.367C54.874,433.885 53.439,436.957 54.677,439.639C55.046,440.438 55.755,441.211 56.561,441.588C56.709,441.657 58.118,441.784 58.153,441.839C58.254,441.995 56.897,443.071 56.813,443.18C56.216,443.948 55.627,444.927 55.283,445.843C53.825,449.733 53.85,454.84 57.315,457.758C58.615,458.852 60.232,458.658 61.756,458.261C61.841,458.238 64.002,457.375 64.018,457.423C65.465,461.764 70.951,461.275 74.407,460.271C75.348,459.998 75.723,459.948 76.585,459.517C76.611,459.504 78.031,458.45 78.093,458.512C78.58,458.998 78.752,459.646 79.35,460.104C81.832,462.002 85.791,461.886 88.74,461.886C89.823,461.886 91.21,461.381 91.917,460.523C92.233,460.14 92.478,458.816 93.174,459.015C93.814,459.197 94.332,460.229 94.841,460.675C95.746,461.467 97.317,461.79 98.452,461.947C100.254,462.195 102.459,462.098 103.982,460.942C104.486,460.559 105.142,459.38 105.825,459.266C109.85,458.595 115.993,460.174 118.895,456.25C119.803,455.022 120.169,453.458 119.733,451.977C119.588,451.485 118.796,450.611 119.147,450.05C119.702,449.16 121.194,448.816 121.911,447.955C123.379,446.194 124.065,444.074 124.341,441.839C124.467,440.822 124.223,439.692 123.671,438.823C123.431,438.446 122.379,437.705 122.498,437.231C122.589,436.866 124.293,436.467 124.592,436.31C125.98,435.579 126.894,434.427 127.441,432.958C128.352,430.51 129.12,426.548 127.047,424.474C126.43,423.858 125.287,423.85 124.76,423.323C124.583,423.147 125.218,423.121 125.43,422.988C125.861,422.719 126.145,422.222 126.268,421.732C126.808,419.572 126.088,416.913 124.425,415.448C122.831,414.044 121.067,413.185 118.979,412.851C118.559,412.784 116.014,412.91 115.712,412.683C113.364,410.922 112.243,409.115 108.925,408.997C106.998,408.928 105.334,409.436 103.731,410.505C103.49,410.665 102.4,411.808 101.971,411.594C99.623,410.42 98.12,408.354 95.185,408.326C92.796,408.304 90.825,408.514 88.734,409.835C88.371,410.064 86.736,411.642 86.304,411.426C84.996,410.772 84.5,409.121 82.869,408.578C80.754,407.873 77.762,408.538 75.915,409.667C75.176,410.119 73.876,412.041 73.653,411.594C72.034,408.356 68.238,406.519 65.023,408.41C63.74,409.165 62.259,410.094 62.259,411.762" style="fill:none;stroke:black;stroke-width:1px;"/>
        </g>
        <g transform="matrix(0.75,0,0,-0.75,0,432)">
            <path d="M45.735,411.131C46.909,408.575 50.788,412.583 48.016,413.94C46.753,414.558 44.454,414.468 44.748,412.516C44.895,411.539 46.107,410.946 46.843,410.505" style="fill:none;stroke:black;stroke-width:1px;"/>
        </g>
        <g transform="matrix(0.75,0,0,-0.75,0,432)">
            <path d="M53.928,406.684C54.423,406.241 55.187,405.485 55.975,405.813C57.183,406.316 57.646,408.438 56.541,409.227C55.286,410.124 51.519,410.161 52.62,407.591C52.833,407.094 53.743,406.691 54.132,406.399" style="fill:none;stroke:black;stroke-width:1px;"/>
        </g>
        <g transform="matrix(0.75,0,0,-0.75,0,432)">
            <path d="M63.568,409.097C65.588,408.045 68.403,411.821 66.28,412.934C64.99,413.611 60.664,413.524 61.923,410.924C62.319,410.106 63.704,409.665 64.437,409.332" style="fill:none;stroke:black;stroke-width:1px;"/>
        </g>
        <g transform="matrix(0.75,0,0,-0.75,0,432)">
            <path d="M255.088,418.289C251.425,419.76 248.822,419.299 246.127,423.072C241.109,430.097 244.385,438.622 253.279,439.307C255.857,439.505 258.102,439.085 260.465,438.053C266.386,435.465 268.949,432.086 267.099,425.426C265.817,420.811 259.851,413.414 254.687,418.578" style="fill:none;stroke:black;stroke-width:1px;"/>
        </g>
        <g transform="matrix(0.75,0,0,-0.75,0,432)">
            <path d="M252.701,439.586C252.792,439.533 252.753,441.596 252.761,441.691C252.904,443.407 253.307,445.103 253.403,446.827C253.665,451.539 253.189,456.264 253.189,460.951" style="fill:none;stroke:black;stroke-width:1px;"/>
        </g>
        <g transform="matrix(0.75,0,0,-0.75,0,432)">
            <path d="M244.268,443.99C243.981,444.226 245.048,444.176 245.271,444.473C246.308,445.855 247.279,447.123 248.481,448.325C249.14,448.984 253.174,454.118 254.259,453.033C257.399,449.894 260.061,446.161 263.247,442.975" style="fill:none;stroke:black;stroke-width:1px;"/>
        </g>
        <g transform="matrix(0.75,0,0,-0.75,0,432)">
            <path d="M242.562,476.677C242.148,476.094 243.506,475.092 243.773,474.648C245.414,471.912 247.1,468.966 249.337,466.73C249.85,466.217 252.911,460.673 253.617,461.379C254.197,461.959 254.529,463.643 255.115,464.375C257.492,467.346 261.126,469.247 263.675,472.08C264.702,473.221 265.283,475.186 266.243,476.146" style="fill:none;stroke:black;stroke-width:1px;"/>
        </g>
        <g transform="matrix(0.75,0,0,-0.75,0,432)">
            <path d="M298.966,399.289C299.166,399.571 298.466,398.592 298.13,398.675C296.92,398.978 295.488,399.912 294.492,400.601C291.107,402.945 288.536,406.044 287.794,410.125C287.337,412.639 288.123,415.769 290.604,417.009C291.105,417.26 292.895,418.249 293.422,417.722C293.826,417.318 292.24,417.51 291.71,417.722C290.791,418.09 290.227,418.717 289.57,419.434C287.609,421.573 286.751,424.06 286.36,426.924C285.927,430.099 285.542,434.59 287.858,437.197C288.76,438.212 290.062,438.053 291.282,438.053C291.71,438.053 292.702,437.647 292.566,438.053C291.825,440.276 290.619,442.462 291.545,444.931C294.226,452.082 301.865,454.991 309.045,453.033C311.123,452.466 312.913,451.342 314.609,450.037C315.169,449.606 315.608,448.04 316.107,448.539C320.336,452.768 326.12,455.241 332.586,454.317C334.196,454.087 335.828,452.96 336.866,451.749C336.876,451.737 337.682,450.238 337.722,450.251C342.722,451.918 349.978,453.121 353.986,448.111C354.738,447.172 355.139,445.868 355.27,444.687C355.338,444.081 354.083,443.247 354.628,442.975C355.779,442.4 358.025,443.118 359.336,442.761C363.035,441.752 364.414,436.612 364.687,433.344C364.821,431.726 362.975,431.128 362.975,430.134C362.975,428.729 365.901,429.48 366.827,428.422C368.773,426.198 369.994,421.917 370.893,419.22C371.57,417.19 372.594,414.252 370.679,412.586C370.642,412.554 368.95,411.186 368.753,411.088C368.102,410.762 366.613,411.387 366.613,410.66C366.613,406.72 364.225,401.676 359.978,399.745C357.696,398.708 355.478,400.457 353.986,399.959C352.306,399.399 350.991,396.878 349.064,396.107C346.763,395.187 343.782,395.323 341.36,395.465C338.468,395.635 335.706,398.632 333.014,398.247C327.349,397.438 323.716,393.206 317.391,395.465C315.053,396.3 314.245,398.643 312.469,399.531C312.041,399.746 308.99,397.694 308.189,397.605C304.21,397.163 300.603,398.283 298.344,401.671" style="fill:none;stroke:black;stroke-width:1px;"/>
        </g>
        <g transform="matrix(0.75,0,0,-0.75,0,432)">
            <path d="M268.464,411.728C270.985,411.76 272.127,414.105 269.026,414.726C265.422,415.447 265.848,411.79 268.597,410.874" style="fill:none;stroke:black;stroke-width:1px;"/>
        </g>
        <g transform="matrix(0.75,0,0,-0.75,0,432)">
            <path d="M275.707,406.416C275.376,406.156 276.545,406.033 276.944,406.166C277.874,406.476 278.926,408.194 278.442,409.162C277.012,412.022 272.612,407.998 276.516,407.022" style="fill:none;stroke:black;stroke-width:1px;"/>
        </g>
        <g transform="matrix(0.75,0,0,-0.75,0,432)">
            <path d="M244.321,435.267C244.711,435.281 243.731,435.857 243.345,435.913C242.568,436.023 240.879,436.161 240.135,435.913C238.624,435.409 238.849,432.777 239.279,431.632C239.783,430.287 243.245,430.12 242.703,431.204C242.229,432.153 239.932,431.138 239.707,430.348C239.124,428.309 240.716,425.232 242.703,424.57C243.639,424.258 242.275,424.287 242.275,423.5C242.275,423.066 242.351,422.628 242.489,422.216C242.897,420.99 244.34,418.291 246.127,419.006C246.522,419.164 247.431,420.483 246.983,420.932C246.161,421.754 246.344,417.78 247.411,416.866C248.523,415.913 254.131,415.538 253.189,418.364C253.033,418.831 251.882,418.532 251.691,418.15C250.718,416.204 254.484,414.94 255.757,414.94C259.731,414.94 256.911,419.686 256.399,418.15C255.863,416.541 260.755,415.597 261.749,415.796C265.236,416.493 262.489,419.416 262.177,418.792C261.309,417.055 266.711,416.641 267.741,417.294C270.895,419.293 266.834,422.807 264.959,420.932" style="fill:none;stroke:black;stroke-width:1px;"/>
        </g>
        <g transform="matrix(0.75,0,0,-0.75,0,432)">
            <path d="M252.788,425.782C252.736,425.921 252.787,425.854 252.547,425.854" style="fill:none;stroke:black;stroke-width:1px;"/>
        </g>
        <g transform="matrix(0.75,0,0,-0.75,0,432)">
            <path d="M258.439,425.898C258.472,425.883 258.506,425.869 258.539,425.854" style="fill:none;stroke:black;stroke-width:1px;"/>
        </g>
        <g transform="matrix(0.75,0,0,-0.75,0,432)">
            <path d="M249.718,430.753C250.081,430.934 250.488,432.352 251.049,432.702C254.288,434.727 260.037,434.531 260.037,430.134" style="fill:none;stroke:black;stroke-width:1px;"/>
        </g>
        <g transform="matrix(0.619306,0,0,-0.638072,214.902,213.153)">
            <text x="13.02px" y="140.109px" style="font-family:'ComicRelief', 'Comic Relief', cursive;font-size:12px;"><tspan xmlns:ns0="http://sodipodi.sourceforge.net/DTD/sodipodi-0.dtd" ns0:role="line">oh wow I'm a</tspan></text>
            <text x="13.02px" y="158.109px" style="font-family:'ComicRelief', 'Comic Relief', cursive;font-size:12px;"><tspan xmlns:ns0="http://sodipodi.sourceforge.net/DTD/sodipodi-0.dtd" ns0:role="line">lot better at</tspan></text>
            <text x="13.02px" y="176.109px" style="font-family:'ComicRelief', 'Comic Relief', cursive;font-size:12px;"><tspan xmlns:ns0="http://sodipodi.sourceforge.net/DTD/sodipodi-0.dtd" ns0:role="line">this now!</tspan></text>
        </g>
        <g transform="matrix(0.619306,0,0,-0.638072,117.594,198.728)">
            <text x="14.697px" y="140.109px" style="font-family:'ComicRelief', 'Comic Relief', cursive;font-size:12px;"><tspan xmlns:ns0="http://sodipodi.sourceforge.net/DTD/sodipodi-0.dtd" ns0:role="line">6 months</tspan></text>
            <text x="26.612px" y="158.109px" style="font-family:'ComicRelief', 'Comic Relief', cursive;font-size:12px;"><tspan xmlns:ns0="http://sodipodi.sourceforge.net/DTD/sodipodi-0.dtd" ns0:role="line">later</tspan></text>
        </g>
        <g transform="matrix(0.829528,0,0,-0.854665,1.62954,180.74)">
            <text x="13.02px" y="140.109px" style="font-family:'ComicRelief', 'Comic Relief', cursive;font-size:12px;"><tspan xmlns:ns0="http://sodipodi.sourceforge.net/DTD/sodipodi-0.dtd" ns0:role="line">and I think</tspan></text>
            <text x="13.02px" y="158.109px" style="font-family:'ComicRelief', 'Comic Relief', cursive;font-size:12px;"><tspan xmlns:ns0="http://sodipodi.sourceforge.net/DTD/sodipodi-0.dtd" ns0:role="line">a) picking something to focus on, and</tspan></text>
            <text x="13.02px" y="176.109px" style="font-family:'ComicRelief', 'Comic Relief', cursive;font-size:12px;"><tspan xmlns:ns0="http://sodipodi.sourceforge.net/DTD/sodipodi-0.dtd" ns0:role="line">b) *actively* working on getting better at it</tspan></text>
            <text x="13.02px" y="194.109px" style="font-family:'ComicRelief', 'Comic Relief', cursive;font-size:12px;"><tspan xmlns:ns0="http://sodipodi.sourceforge.net/DTD/sodipodi-0.dtd" ns0:role="line">is how all the people I admire got where they are.</tspan></text>
        </g>
        <g transform="matrix(0.75,0,0,-0.75,0,432)">
            <path d="M150.562,436.178C150.606,436.23 150.541,436.207 150.499,436.207" style="fill:none;stroke:black;stroke-width:2px;"/>
        </g>
        <g transform="matrix(0.75,0,0,-0.75,0,432)">
            <path d="M155.696,436.156C155.679,436.079 155.811,436.119 155.864,436.119" style="fill:none;stroke:black;stroke-width:2px;"/>
        </g>
        <g transform="matrix(0.75,0,0,-0.75,0,432)">
            <path d="M161.498,436.063C161.488,436.003 161.482,436.031 161.581,436.031" style="fill:none;stroke:black;stroke-width:2px;"/>
        </g>
        <g transform="matrix(0.75,0,0,-0.75,0,432)">
            <path d="M215.976,436.073C216.029,436.023 215.859,436.031 215.932,436.031" style="fill:none;stroke:black;stroke-width:2px;"/>
        </g>
        <g transform="matrix(0.75,0,0,-0.75,0,432)">
            <path d="M221.02,436.028C221.102,436.049 221.212,436.031 221.297,436.031" style="fill:none;stroke:black;stroke-width:2px;"/>
        </g>
        <g transform="matrix(0.75,0,0,-0.75,0,432)">
            <path d="M225.266,435.888C225.224,435.766 225.648,435.943 225.695,435.943" style="fill:none;stroke:black;stroke-width:2px;"/>
        </g>
        <g transform="matrix(1.39873,0,0,-1.44111,42.2034,605.085)">
            <text x="13.02px" y="140.112px" style="font-family:'ComicRelief', 'Comic Relief', cursive;font-size:12.003px;"><tspan xmlns:ns0="http://sodipodi.sourceforge.net/DTD/sodipodi-0.dtd" ns0:role="line">let's build expertise</tspan></text>
        </g>
        <g transform="matrix(0.706572,0,0,-0.663886,-1.7102,431.657)">
            <path d="M319.169,19.061C319.392,19.302 319.155,19.729 319.246,20.045C319.535,21.056 319.735,22.063 319.958,23.088C320.615,26.112 321.991,28.899 323.066,31.765C323.375,32.589 323.434,34.659 324.037,35.262C324.04,35.265 324.332,33.733 324.361,33.578C324.635,32.115 324.799,30.638 325.073,29.175C325.555,26.607 326.021,23.885 326.239,21.275C326.261,21.013 326.663,19.156 326.498,19.074C325.861,18.755 324.82,18.944 324.102,18.944C323.16,18.944 321.694,18.724 320.864,19.139C320.825,19.158 320.217,19.268 320.217,19.268C320.217,19.673 320.62,20.421 320.735,20.822C321.231,22.56 321.983,24.196 322.419,25.938C322.647,26.85 323.067,27.691 323.325,28.593C323.36,28.716 323.555,30.082 323.649,30.082C323.808,30.082 323.836,29.136 323.843,29.046C323.928,28.03 323.909,27.019 323.973,26.002C324.073,24.395 324.195,22.771 324.62,21.211C324.662,21.058 325.044,19.757 324.944,19.657C324.708,19.42 322.323,20.141 322.095,20.369C322.04,20.423 322.477,21.322 322.483,21.34C322.736,22.015 322.821,23.621 323.325,24.125C323.366,24.165 323.212,23.437 323.196,23.347C323.104,22.844 323.066,22.368 323.066,21.858C323.066,21.717 323.26,21.335 323.26,21.405" style="fill:none;stroke:black;stroke-width:2.19px;"/>
        </g>
        <g transform="matrix(0.706572,0,0,-0.663886,-1.7102,431.657)">
            <path d="M323.57,40.947C324.062,39.171 325.759,42.579 323.908,42.579C322.605,42.579 322.742,39.975 324.278,40.414C325.418,40.74 325.42,42.907 323.973,42.644C322.705,42.413 323.042,40.058 324.491,40.378C325.964,40.703 325.047,42.638 323.778,41.996" style="fill:none;stroke:black;stroke-width:2.19px;"/>
        </g>
        <g transform="matrix(0.75,0,0,-0.75,0,432)">
            <path d="M75.817,222.406C76.501,222.594 77.465,222.422 78.171,222.422" style="fill:none;stroke:black;stroke-width:1.5px;"/>
        </g>
        <g transform="matrix(0.75,0,0,-0.75,0,432)">
            <path d="M75.838,241.512C76.414,241.213 78.018,241.579 78.682,241.579" style="fill:none;stroke:black;stroke-width:1.5px;"/>
        </g>
        <g transform="matrix(0.75,0,0,-0.75,0,432)">
            <path d="M74.789,261.034C76.119,261.049 77.423,261.169 78.767,261.035" style="fill:none;stroke:black;stroke-width:1.5px;"/>
        </g>
        <g transform="matrix(0.75,0,0,-0.75,0,432)">
            <path d="M75.117,277.813C74.86,277.701 75.677,277.809 75.958,277.809L78.086,277.809" style="fill:none;stroke:black;stroke-width:1.5px;"/>
        </g>
        <g transform="matrix(0.75,0,0,-0.75,0,432)">
            <path d="M75.455,295.384C75.4,295.137 75.96,295.416 76.213,295.434C77.004,295.49 77.811,295.427 78.597,295.349" style="fill:none;stroke:black;stroke-width:1.5px;"/>
        </g>
    </g>
</svg>