<!DOCTYPE svg PUBLIC "-//W3C//DTD SVG 1.1//EN" "http://www.w3.org/Graphics/SVG/1.1/DTD/svg11.dtd">
<svg xmlns="http://www.w3.org/2000/svg" xmlns:xlink="http://www.w3.org/1999/xlink" xmlns:serif="http://www.serif.com/" width="100%" height="100%" viewBox="0 0 384 576" version="1.1" xml:space="preserve" style="fill-rule:evenodd;clip-rule:evenodd;stroke-linecap:round;stroke-linejoin:round;stroke-miterlimit:1.5;">
    <g id="g10" transform="matrix(1.33333,0,0,-1.33333,0,576)">
        <g transform="matrix(1.39873,0,0,-1.44111,115.322,609.315)">
            <text x="13.02px" y="140.112px" style="font-family:'ComicRelief', 'Comic Relief', cursive;font-size:12.003px;"><tspan xmlns:ns0="http://sodipodi.sourceforge.net/DTD/sodipodi-0.dtd" ns0:role="line">love your bugs</tspan></text>
        </g>
        <g transform="matrix(0.75,0,0,-0.75,-131.478,433.273)">
            <path d="M339.219,24.723C339.251,24.828 339.432,24.402 339.382,24.267C339.319,24.101 339.098,23.808 338.987,23.675C338.528,23.124 337.769,22.737 337.094,22.531C335.305,21.987 333.312,23.728 332.716,25.292C332.327,26.314 332.664,27.147 333.229,28.013C334.442,29.873 336.465,31.374 338.159,32.786C338.724,33.257 339.328,33.688 339.776,34.284C339.888,34.434 340.177,34.887 340.447,34.797C340.556,34.761 340.579,34.27 340.644,34.166C340.916,33.73 341.473,33.32 341.827,32.943C343.494,31.172 345.004,28.853 345.929,26.594C346.264,25.773 346.762,23.942 345.817,23.312C344.394,22.363 342.434,23.019 341.433,24.306C341.109,24.722 340.68,25.517 340.171,25.686C339.876,25.785 339.762,25.588 339.5,25.489C338.719,25.196 337.32,24.261 336.463,24.503C335.274,24.839 334.166,25.85 334.531,27.185C334.898,28.533 336.077,28.907 337.134,29.67C337.689,30.071 338.345,30.325 338.869,30.774C339.683,31.472 339.94,32.661 340.959,31.642C341.22,31.381 341.191,31.387 341.433,31.09C341.728,30.726 341.73,30.772 341.985,30.38C342.296,29.902 342.627,29.442 342.931,28.96C343.521,28.027 344.248,26.99 344.47,25.884C344.523,25.616 344.682,25.086 344.548,24.819C343.892,23.507 342.626,24.961 342.221,25.568C341.553,26.571 341.279,27.791 340.604,28.802C340.331,29.212 339.931,29.614 339.382,29.394C338.732,29.134 338.264,28.599 337.646,28.289C337.275,28.104 336.159,27.534 336.029,27.146C335.809,26.484 336.618,26.263 337.134,26.317C337.969,26.405 338.642,27.044 339.421,27.303C339.492,27.327 340.743,27.737 340.802,27.619C340.906,27.409 340.47,27.343 340.368,27.343" style="fill:none;stroke:black;stroke-width:2.5px;"/>
        </g>
        <g transform="matrix(0.75,0,0,-0.75,-14.9854,433.574)">
            <path d="M358.155,25.142C358.155,25.031 358.392,25.331 358.471,25.253C358.579,25.145 358.524,24.661 358.471,24.543C358.126,23.784 357.211,23.585 356.499,23.399C355.929,23.25 355.207,22.959 354.606,23.044C353.289,23.231 352.475,24.98 352.358,26.12C352.235,27.314 352.882,28.324 353.383,29.354C354.094,30.815 355.021,31.99 356.026,33.259C356.776,34.207 357.575,35.163 358.431,36.02C358.464,36.053 359.108,36.639 359.22,36.414C359.273,36.309 359.174,36.128 359.22,36.02C359.493,35.384 360.623,34.849 361.113,34.403C362.473,33.167 363.744,31.848 364.742,30.301C365.745,28.746 366.628,26.682 366.438,24.779C366.294,23.344 364.48,22.029 363.062,22.502C361.75,22.939 360.335,24.015 359.496,25.134C359.242,25.474 359.047,25.866 358.944,26.278C358.917,26.387 358.926,26.721 358.786,26.791C358.697,26.835 357.904,25.724 357.761,25.608C357.162,25.117 355.361,24.891 354.763,25.489C353.27,26.983 354.851,29.4 355.631,30.814C355.935,31.365 356.204,31.936 356.538,32.47C356.922,33.084 357.339,33.987 358.037,34.284C358.805,34.612 360.154,33.063 360.64,32.628C361.87,31.528 363.049,30.251 364.032,28.92C364.402,28.42 364.818,27.919 364.979,27.303C365.217,26.39 365.344,25.155 364.584,24.464C363.224,23.227 361.668,25.366 361.153,26.396C360.971,26.761 360.872,27.261 360.443,27.422C359.748,27.682 358.928,27.776 358.234,27.461C357.71,27.223 356.916,26.309 356.341,27.027C355.379,28.23 356.558,29.72 357.012,30.853C357.182,31.28 357.219,32.311 357.643,32.588C358.053,32.857 359.136,32.075 359.457,31.839C361.064,30.657 362.574,28.749 363.48,26.988C363.545,26.861 364.393,25.397 364.15,25.213C363.767,24.923 362.85,25.778 362.652,25.923C361.762,26.571 361.028,27.591 360.482,28.526C360.193,29.022 359.959,29.694 359.496,30.064C358.801,30.621 358.343,29.819 358.116,29.275C358.09,29.213 357.751,28.837 357.8,28.763C357.89,28.629 358.352,28.75 358.471,28.763C358.698,28.788 358.888,28.735 359.102,28.842" style="fill:none;stroke:black;stroke-width:2.5px;"/>
        </g>
        <g transform="matrix(1.39873,0,0,-1.44111,8.89447,610.511)">
            <text x="13.02px" y="140.112px" style="font-family:'ComicRelief', 'Comic Relief', cursive;font-size:12.003px;"><tspan xmlns:ns0="http://sodipodi.sourceforge.net/DTD/sodipodi-0.dtd" ns0:role="line">debugging:</tspan></text>
        </g>
        <g transform="matrix(1,0,0,1,-2.43778,-1.54223)">
            <g transform="matrix(0.829528,0,0,-0.854665,0.0163435,471.746)">
                <text x="13.02px" y="140.109px" style="font-family:'ComicRelief', 'Comic Relief', cursive;font-size:12px;"><tspan xmlns:ns0="http://sodipodi.sourceforge.net/DTD/sodipodi-0.dtd" ns0:role="line">Debugging is a great way to learn. First: the harsh</tspan></text>
                <text x="13.02px" y="158.109px" style="font-family:'ComicRelief', 'Comic Relief', cursive;font-size:12px;"><tspan xmlns:ns0="http://sodipodi.sourceforge.net/DTD/sodipodi-0.dtd" ns0:role="line">reality of bugs in your code is a good way to reveal</tspan></text>
                <text x="13.02px" y="176.109px" style="font-family:'ComicRelief', 'Comic Relief', cursive;font-size:12px;"><tspan xmlns:ns0="http://sodipodi.sourceforge.net/DTD/sodipodi-0.dtd" ns0:role="line">problems with your mental model.</tspan></text>
            </g>
            <g transform="matrix(0.75,0,0,-0.75,0,432)">
                <path d="M107.838,108.394C109.429,107.947 113.927,108.827 116.22,108.962C120.165,109.194 124.299,109.156 128.237,109.156C130.438,109.156 132.607,109.35 134.826,109.35C135.86,109.35 138.961,109.35 137.927,109.35" style="fill:none;stroke:black;stroke-width:1px;"/>
            </g>
        </g>
        <g transform="matrix(1,0,0,1,-30.0066,0.372924)">
            <g transform="matrix(0.829528,0,0,-0.854665,30.7973,284.174)">
                <text x="13.02px" y="140.109px" style="font-family:'ComicRelief', 'Comic Relief', cursive;font-size:12px;"><tspan xmlns:ns0="http://sodipodi.sourceforge.net/DTD/sodipodi-0.dtd" ns0:role="line">Also, you get to solve a mystery and get immediate</tspan></text>
                <text x="13.02px" y="158.109px" style="font-family:'ComicRelief', 'Comic Relief', cursive;font-size:12px;"><tspan xmlns:ns0="http://sodipodi.sourceforge.net/DTD/sodipodi-0.dtd" ns0:role="line">feedback about whether you were right or not.</tspan></text>
            </g>
            <g transform="matrix(0.75,0,0,-0.75,33.7777,428.833)">
                <path d="M13.252,376.978C13.317,377.08 16.181,376.827 16.29,376.827C19.972,376.827 23.633,376.477 27.307,376.293C40.1,375.654 52.886,376.116 65.688,376.116" style="fill:none;stroke:black;stroke-width:1px;"/>
            </g>
        </g>
        <g transform="matrix(0.829528,0,0,-0.854665,-2.42144,147.193)">
            <text x="13.02px" y="140.109px" style="font-family:'ComicRelief', 'Comic Relief', cursive;font-size:12px;"><tspan xmlns:ns0="http://sodipodi.sourceforge.net/DTD/sodipodi-0.dtd" ns0:role="line">Nobody writes great code without writing + &#64257;xing lots</tspan></text>
            <text x="13.02px" y="158.109px" style="font-family:'ComicRelief', 'Comic Relief', cursive;font-size:12px;"><tspan xmlns:ns0="http://sodipodi.sourceforge.net/DTD/sodipodi-0.dtd" ns0:role="line">of bugs. So let's talk about debugging skills a bit!</tspan></text>
        </g>
        <g transform="matrix(0.829528,0,0,-0.854665,-2.42144,372.218)">
            <text x="13.02px" y="140.109px" style="font-family:'ComicRelief', 'Comic Relief', cursive;font-size:12px;"><tspan xmlns:ns0="http://sodipodi.sourceforge.net/DTD/sodipodi-0.dtd" ns0:role="line">Fixing bugs is also a good way to learn to write more</tspan></text>
            <text x="13.02px" y="158.109px" style="font-family:'ComicRelief', 'Comic Relief', cursive;font-size:12px;"><tspan xmlns:ns0="http://sodipodi.sourceforge.net/DTD/sodipodi-0.dtd" ns0:role="line">reliable code!</tspan></text>
        </g>
        <g transform="matrix(0.524204,0,0,-0.540089,49.4734,201.196)">
            <text x="24.583px" y="140.109px" style="font-family:'ComicRelief', 'Comic Relief', cursive;font-size:12px;"><tspan xmlns:ns0="http://sodipodi.sourceforge.net/DTD/sodipodi-0.dtd" ns0:role="line">that's</tspan></text>
            <text x="22.061px" y="158.109px" style="font-family:'ComicRelief', 'Comic Relief', cursive;font-size:12px;"><tspan xmlns:ns0="http://sodipodi.sourceforge.net/DTD/sodipodi-0.dtd" ns0:role="line">weird...</tspan></text>
        </g>
        <g transform="matrix(0.75,0,0,-0.75,0,432)">
            <path d="M40.016,402.122C33.729,402.667 31.865,411.812 35.088,416.206C36.564,418.218 39.297,418.861 41.654,418.645C43.511,418.474 45.539,417.914 47.189,417.05C53.112,413.947 51.789,405.888 46.345,403.166C44.715,402.352 43.266,402.7 41.561,402.416C41.065,402.333 40.068,402.126 39.684,402.51" style="fill:none;stroke:black;stroke-width:1px;"/>
        </g>
        <g transform="matrix(0.75,0,0,-0.75,0,432)">
            <path d="M41.097,418.653C41.083,418.632 41.092,419.197 41.092,419.207C41.092,419.766 41.062,420.339 41.092,420.896C41.151,422.034 41.326,423.146 41.467,424.273C41.907,427.791 42.592,431.424 42.592,434.967" style="fill:none;stroke:black;stroke-width:1px;"/>
        </g>
        <g transform="matrix(0.75,0,0,-0.75,0,432)">
            <path d="M34.912,423.248C34.691,423.11 35.265,423.634 35.463,423.804C35.884,424.165 36.363,424.464 36.776,424.836C38.002,425.939 39.502,427.184 40.998,427.931C42.463,428.664 42.355,427.887 43.437,426.806C44.484,425.759 45.797,424.758 47.001,423.898" style="fill:none;stroke:black;stroke-width:1px;"/>
        </g>
        <g transform="matrix(0.75,0,0,-0.75,0,432)">
            <path d="M37.588,443.713C37.691,443.643 38.424,442.215 38.653,441.815C39.659,440.054 40.66,438.272 41.748,436.562C41.901,436.321 42.863,434.115 43.249,434.404C43.888,434.883 44.455,436.11 44.844,436.749C45.318,437.528 45.782,438.313 46.251,439.094C46.846,440.086 47.465,441.295 48.408,442.002" style="fill:none;stroke:black;stroke-width:1px;"/>
        </g>
        <g transform="matrix(0.75,0,0,-0.75,0,432)">
            <path d="M38.421,407.339C38.436,407.324 38.45,407.309 38.465,407.294" style="fill:none;stroke:black;stroke-width:1px;"/>
        </g>
        <g transform="matrix(0.75,0,0,-0.75,0,432)">
            <path d="M43.624,407.163L43.624,407.2" style="fill:none;stroke:black;stroke-width:1px;"/>
        </g>
        <g transform="matrix(0.75,0,0,-0.75,0,432)">
            <path d="M38.26,413.7C38.584,413.199 39.338,413.189 39.872,412.922C41.426,412.145 43.099,411.637 44.656,410.859" style="fill:none;stroke:black;stroke-width:1px;"/>
        </g>
        <g transform="matrix(0.75,0,0,-0.75,0,432)">
            <path d="M55.415,400.84C54.125,400.459 52.126,402.342 53.485,403.158C55.095,404.123 56.684,402.155 55.35,400.821" style="fill:none;stroke:black;stroke-width:1px;"/>
        </g>
        <g transform="matrix(0.75,0,0,-0.75,0,432)">
            <path d="M62.286,400.565C62.499,399.632 58.062,400.053 59.759,402.041C60.875,403.348 63.62,401.306 62.292,399.977" style="fill:none;stroke:black;stroke-width:1px;"/>
        </g>
        <g transform="matrix(0.75,0,0,-0.75,0,432)">
            <path d="M68.996,398.563C68.659,398.619 68.208,398.4 67.826,398.476C67.178,398.606 65.807,400.143 66.701,400.727C68.307,401.778 70.655,400.532 68.671,398.945" style="fill:none;stroke:black;stroke-width:1px;"/>
        </g>
        <g transform="matrix(0.75,0,0,-0.75,0,432)">
            <path d="M79.541,398.301C79.688,398.144 79.11,398.267 78.896,398.288C78.18,398.36 77.738,398.546 77.207,399.039C75.884,400.268 73.727,402.763 74.486,404.785C74.741,405.465 75.677,405.892 76.269,406.168C76.558,406.303 77.207,406.037 77.207,406.356C77.207,406.423 74.661,408.392 74.487,408.607C72.899,410.569 71.889,413.243 72.039,415.79C72.129,417.332 72.973,419.312 74.487,419.958C74.672,420.037 77.022,420.436 76.738,419.583C76.663,419.357 76.218,419.669 76.082,419.864C75.6,420.552 75.517,421.589 75.612,422.397C75.863,424.522 76.867,426.763 78.252,428.399C80.447,430.994 84.197,430.491 87.057,429.432C87.779,429.165 88.176,428.96 88.745,428.494C88.917,428.354 89.017,427.926 89.214,428.025C89.566,428.201 89.878,428.823 90.246,429.057C92.804,430.684 96.672,431.078 99.533,430.277C100.86,429.905 102.009,428.355 103.286,428.213C104.098,428.123 104.794,428.731 105.537,428.963C106.592,429.293 107.823,429.334 108.918,429.224C110.579,429.058 112.293,427.612 113.135,426.243C113.323,425.938 113.383,425.057 113.604,424.836C114.246,424.194 115.61,424.309 116.325,423.335C117.325,421.97 118.327,419.175 118.327,417.49C118.327,417.008 117.146,415.853 117.263,415.737C118.614,414.386 118.357,412.104 118.295,410.296C118.234,408.533 117.943,407.341 116.606,406.45C116.582,406.434 116.701,405.335 116.7,405.324C116.631,404.843 116.346,404.035 116.137,403.635C115.284,402.008 114.02,399.569 112.432,398.51C111.625,397.972 110.245,397.825 109.289,397.913C108.733,397.964 107.539,398.717 107.038,398.382C105.944,397.653 105.652,396.36 104.036,395.849C102.513,395.369 101.305,395.698 99.815,396.037C99.294,396.155 97.789,396.713 97.188,396.412C96.251,395.944 95.958,395.43 94.843,395.193C93.285,394.862 91.615,395.898 90.246,396.506C89.781,396.713 89.121,397.538 89.121,397.538C89.121,397.538 88.618,396.898 88.276,396.694C87.368,396.149 86.321,395.67 85.275,395.474C83.305,395.106 81.102,396.89 79.552,397.819" style="fill:none;stroke:black;stroke-width:1px;"/>
        </g>
        <g transform="matrix(0.75,0,0,-0.75,0,432)">
            <path d="M149.224,401.421C149.527,401.446 148.618,401.36 148.314,401.345C147.612,401.312 147.442,401.325 146.736,401.582C144.88,402.257 143.088,403.744 142.243,405.555C140.634,409.002 143.051,413.59 146.894,414.049C148.438,414.233 150.168,413.848 151.533,413.119C153.116,412.275 155.503,410.824 155.968,408.92C157.247,403.681 152.234,398.359 147.052,400.951" style="fill:none;stroke:black;stroke-width:1px;"/>
        </g>
        <g transform="matrix(0.75,0,0,-0.75,0,432)">
            <path d="M148.082,414.508C147.464,416.209 148.47,419.201 148.709,420.913C149.354,425.538 148.813,430.3 149.577,434.879" style="fill:none;stroke:black;stroke-width:1px;"/>
        </g>
        <g transform="matrix(0.75,0,0,-0.75,0,432)">
            <path d="M142.115,419.744C142.1,419.738 142.775,420.346 142.791,420.361C143.287,420.812 143.797,421.247 144.29,421.702C145.266,422.603 146.245,423.416 147.288,424.227C147.645,424.504 148.09,425.217 148.551,425.332C149.059,425.459 149.813,424.269 150.129,423.99C151.918,422.412 153.707,420.995 155.731,419.73" style="fill:none;stroke:black;stroke-width:1px;"/>
        </g>
        <g transform="matrix(0.75,0,0,-0.75,0,432)">
            <path d="M145.193,443.115C144.95,442.903 145.408,442.506 145.553,442.217C146.049,441.224 146.692,440.339 147.131,439.298C147.689,437.973 148.302,436.717 148.945,435.431C149.098,435.126 149.422,434.233 149.892,434.327C150.591,434.467 151.457,436.541 151.786,437.088C153.108,439.292 154.538,441.412 155.81,443.637" style="fill:none;stroke:black;stroke-width:1px;"/>
        </g>
        <g transform="matrix(0.75,0,0,-0.75,0,432)">
            <path d="M146.218,405.421C146.155,405.471 146.194,405.438 146.105,405.527" style="fill:none;stroke:black;stroke-width:1px;"/>
        </g>
        <g transform="matrix(0.75,0,0,-0.75,0,432)">
            <path d="M150.501,404.824C150.559,404.806 150.518,404.811 150.602,404.896" style="fill:none;stroke:black;stroke-width:1px;"/>
        </g>
        <g transform="matrix(0.75,0,0,-0.75,0,432)">
            <path d="M145.454,410.268C147.321,409.626 149.293,408.865 151.076,407.973" style="fill:none;stroke:black;stroke-width:1px;"/>
        </g>
        <g transform="matrix(0.75,0,0,-0.75,0,432)">
            <path d="M159.768,398.948C160.071,399.083 160.355,399.217 160.607,399.434C162.44,401.004 156.551,401.213 158.414,399.688C158.578,399.554 158.782,399.478 158.966,399.372" style="fill:none;stroke:black;stroke-width:1px;"/>
        </g>
        <g transform="matrix(0.75,0,0,-0.75,0,432)">
            <path d="M164.27,398.719C164.184,398.829 164.449,398.498 164.568,398.426C164.819,398.273 165.154,398.239 165.44,398.275C165.926,398.336 167.093,398.917 166.699,399.609C165.973,400.883 162.095,400.365 164.016,398.741" style="fill:none;stroke:black;stroke-width:1px;"/>
        </g>
        <g transform="matrix(0.75,0,0,-0.75,0,432)">
            <path d="M178.029,397.095C178.364,396.979 177.168,397.001 177.114,397.005C176.317,397.072 175.6,397.357 174.984,397.873C173.071,399.474 171.364,401.769 170.171,403.949C169.245,405.641 169.062,407.832 170.486,409.314C171.027,409.878 172.288,410.315 172.617,410.971C172.728,411.195 172.132,411.102 171.906,411.208C171.661,411.323 171.429,411.464 171.196,411.603C170.225,412.181 169.65,413.023 169.152,414.021C167.737,416.85 167.945,420.591 169.539,423.28C170.422,424.77 172.238,426.208 174.066,425.598C174.482,425.46 175.191,424.701 175.536,424.701C176.016,424.701 175.352,425.644 175.299,426.121C175.207,426.948 175.101,427.956 175.141,428.804C175.287,431.842 176.713,434.245 179.306,435.829C180.933,436.824 183.199,437.244 185.083,436.931C185.66,436.835 187.024,436.497 186.661,435.589C186.417,434.978 186.549,436.306 186.583,436.378C187.005,437.283 187.854,437.866 188.634,438.43C190.457,439.748 192.797,440.457 195.025,440.639C196.419,440.753 197.975,440.661 199.207,439.929C199.879,439.53 199.937,439.494 200.391,438.903C200.627,438.595 200.575,437.755 200.943,437.878C201.601,438.097 202.341,438.941 203.073,439.219C205.755,440.236 209.98,441.199 212.7,439.692C213.359,439.327 213.571,439.23 214.041,438.667C214.268,438.394 214.34,437.573 214.593,437.404C214.765,437.29 216.724,438.379 217.039,438.43C219.076,438.756 222.145,438.8 223.928,437.552C224.908,436.866 225.88,435.049 225.482,433.853C225.304,433.319 224.205,433.016 224.456,432.512C224.635,432.154 226.773,432.047 227.139,431.96C229.06,431.502 230.24,430.403 231.163,428.725C231.665,427.812 232.131,426.642 231.952,425.569C231.922,425.389 231.232,424.317 231.4,424.148C232.644,422.904 234.393,423.057 235.187,421.071C235.524,420.229 235.29,419.314 234.872,418.546C234.75,418.323 234.094,417.791 234.161,417.52C234.587,415.817 235.999,414.277 234.891,412.338C234.592,411.815 233.433,411.723 233.372,411.603C233.166,411.191 233.43,410.195 233.451,409.788C233.539,408.126 233.571,406.255 232.564,404.844C232.053,404.129 230.868,404.186 230.453,403.633C229.635,402.542 231.107,400.559 229.506,399.609C227.977,398.703 226.147,399.918 224.614,399.451C223.989,399.261 223.416,398.178 222.878,397.794C222.286,397.372 221.523,397.029 220.839,396.784C218.33,395.889 215.79,397.436 213.331,397.084C212.535,396.971 211.677,396.096 210.964,395.743C210.024,395.278 208.745,395.269 207.729,395.269C206.211,395.269 204.775,395.712 203.389,396.295C202.998,396.46 202.153,397.048 201.653,396.848C198.817,395.713 196.571,394.257 193.289,394.717C192.05,394.891 190.945,395.71 190.054,396.532C190.005,396.578 189.374,397.4 189.265,397.4C189.257,397.4 188.799,396.697 188.792,396.69C188.027,395.925 187.077,395.547 186.109,395.112C182.743,393.597 179.103,394.385 176.483,397.005" style="fill:none;stroke:black;stroke-width:1px;"/>
        </g>
        <g transform="matrix(0.75,0,0,-0.75,0,432)">
            <path d="M267.706,399.879C267.824,399.651 267.193,399.855 266.937,399.841C265.901,399.783 265.446,399.803 264.491,400.314C262.405,401.431 261.168,403.918 260.673,406.148C259.61,410.931 263.699,416.24 268.83,415.7C273.471,415.212 277.34,411.106 276.721,406.39C276.203,402.444 270.384,398.876 266.779,400.077" style="fill:none;stroke:black;stroke-width:1px;"/>
        </g>
        <g transform="matrix(0.75,0,0,-0.75,0,432)">
            <path d="M268.567,416.034C268.725,415.927 268.384,416.379 268.357,416.568C268.279,417.115 268.336,417.673 268.357,418.225C268.409,419.567 268.562,420.905 268.594,422.249C268.699,426.789 269.146,431.375 269.146,435.9" style="fill:none;stroke:black;stroke-width:1px;"/>
        </g>
        <g transform="matrix(0.75,0,0,-0.75,0,432)">
            <path d="M260.126,420.515C260.421,420.493 261.673,422.193 261.887,422.407C263.513,424.034 265.398,425.398 267.252,426.747C267.432,426.878 268.971,428.263 269.146,428.088C269.873,427.361 270.374,426.263 271.119,425.484C272.907,423.615 274.873,422.11 277.115,420.829" style="fill:none;stroke:black;stroke-width:1px;"/>
        </g>
        <g transform="matrix(0.75,0,0,-0.75,0,432)">
            <path d="M262.23,445.782C262.222,445.776 262.871,444.88 262.913,444.816C263.557,443.813 264.329,442.927 265.043,441.975C266.122,440.536 266.963,439.012 267.884,437.478C268.071,437.166 268.728,436.195 269.225,436.294C270.174,436.484 270.916,438.215 271.355,438.898C272.736,441.046 273.973,444.172 276.09,445.684" style="fill:none;stroke:black;stroke-width:1px;"/>
        </g>
        <g transform="matrix(0.75,0,0,-0.75,0,432)">
            <path d="M265.539,405.061C265.531,405.056 265.524,405.052 265.516,405.048" style="fill:none;stroke:black;stroke-width:1px;"/>
        </g>
        <g transform="matrix(0.75,0,0,-0.75,0,432)">
            <path d="M270.147,404.914C270.214,404.849 270.162,404.885 270.33,404.969" style="fill:none;stroke:black;stroke-width:1px;"/>
        </g>
        <g transform="matrix(0.75,0,0,-0.75,0,432)">
            <path d="M265.309,409.784C265.167,409.778 265.722,410.433 265.773,410.469C266.39,410.91 267.045,411.198 267.805,411.282C269.632,411.484 272.127,410.716 273.17,409.151" style="fill:none;stroke:black;stroke-width:1px;"/>
        </g>
        <g transform="matrix(0.75,0,0,-0.75,0,432)">
            <path d="M280.92,400.445C280.709,400.776 281.73,400.34 282.098,400.478C282.696,400.702 283.485,401.599 283.033,402.287C282.83,402.596 282.114,402.783 281.85,402.839C281.476,402.918 280.469,403.116 280.114,402.76C279.479,402.126 279.979,400.908 280.666,400.63" style="fill:none;stroke:black;stroke-width:1px;"/>
        </g>
        <g transform="matrix(0.75,0,0,-0.75,0,432)">
            <path d="M288.69,399.627C289.65,398.715 292.05,400.494 291.239,401.498C289.48,403.674 285.589,400.598 288.556,399.841" style="fill:none;stroke:black;stroke-width:1px;"/>
        </g>
        <g transform="matrix(0.75,0,0,-0.75,0,432)">
            <path d="M302.187,398.464C302.327,398.713 301.623,398.37 301.339,398.341C300.636,398.271 299.811,398.329 299.208,398.736C297.458,399.916 295.897,402.127 294.948,404.022C293.799,406.316 294.23,408.6 296.438,410.02C296.762,410.228 297.565,410.634 297.867,410.729C298.119,410.809 298.656,410.544 298.656,410.808C298.656,410.943 297.614,411.307 297.425,411.41C296.917,411.687 296.599,412.062 296.289,412.544C295.096,414.399 294.701,416.925 295.026,419.093C295.472,422.059 297.08,424.833 300.269,425.208C301.626,425.367 302.844,425.118 304.011,424.4C304.588,424.045 305.521,423.038 305.521,423.038C305.521,423.038 305.308,423.775 305.363,424.143C305.527,425.24 306.213,426.326 306.941,427.141C309.016,429.464 311.922,430.256 314.946,430.13C316.753,430.054 318.484,429.473 320.118,428.719C320.71,428.446 321.424,427.525 322.012,427.378C322.34,427.296 324.623,429.016 325.168,429.193C327.286,429.881 329.927,430.015 332.06,429.305C333.805,428.723 334.808,427.499 335.583,425.879C335.809,425.405 335.959,423.837 336.451,423.591C336.859,423.387 337.685,423.475 338.108,423.433" style="fill:none;stroke:black;stroke-width:1px;"/>
        </g>
        <g transform="matrix(0.75,0,0,-0.75,0,432)">
            <path d="M339.274,423.051C341.938,421.148 343.344,418.338 343.947,415.069C344.037,414.582 344.171,413.749 344.026,413.254C343.981,413.101 343.486,412.755 343.552,412.623C343.612,412.504 344.409,412.082 344.499,411.992C345.182,411.309 345.734,410.283 345.871,409.318C346.125,407.542 345.784,405.684 344.42,404.417C343.974,404.003 343.312,404.018 342.921,403.628C340.948,401.655 340.159,399.41 337.175,398.581C336.015,398.259 334.567,398.203 333.374,398.341C332.655,398.425 331.452,399.2 330.77,398.973C330.158,398.769 329.426,397.768 328.718,397.473C326.976,396.747 325.312,396.45 323.432,396.369C321.984,396.306 320.55,396.444 319.171,396.921C318.395,397.19 317.248,398.253 316.33,397.947C314.327,397.279 313.345,395.764 310.886,396.211C310.059,396.361 309.157,396.72 308.44,397.158C308.433,397.162 307.352,398.113 307.178,398.026C304.748,396.811 302.088,395.028 300.392,398.42" style="fill:none;stroke:black;stroke-width:1px;"/>
        </g>
        <g transform="matrix(0.75,0,0,-0.75,0,432)">
            <path d="M45.455,463.237C37.465,463.85 34.157,477.708 42.421,480.548C43.237,480.829 44.159,480.96 45.022,480.96C47.956,480.96 52.154,478.706 53.458,475.979C54.781,473.213 55.019,467.692 52.941,465.198C51.696,463.704 48.544,462.832 46.709,462.832" style="fill:none;stroke:black;stroke-width:1px;"/>
        </g>
        <g transform="matrix(0.75,0,0,-0.75,0,432)">
            <path d="M45.239,480.767C45.164,480.679 45.022,481.18 45.022,481.181C45.022,481.589 45.265,482.016 45.373,482.376C45.855,483.983 46.246,485.628 46.428,487.297C46.936,491.957 46.551,496.717 47.131,501.358" style="fill:none;stroke:black;stroke-width:1px;"/>
        </g>
        <g transform="matrix(0.75,0,0,-0.75,0,432)">
            <path d="M37.478,485.021C38.411,486.141 39.498,487.027 40.593,488C41.199,488.539 41.794,489.101 42.421,489.617C42.706,489.852 43.185,490.191 43.475,490.461C45.225,492.085 45.737,492.377 47.342,490.531C47.614,490.218 47.898,489.916 48.185,489.617C48.837,488.941 49.713,488.081 50.435,487.508C51.304,486.818 52.285,486.355 53.247,485.821" style="fill:none;stroke:black;stroke-width:1px;"/>
        </g>
        <g transform="matrix(0.75,0,0,-0.75,0,432)">
            <path d="M41.096,511.44C40.865,510.817 42.458,508.959 42.702,508.528C44.088,506.083 45.407,503.685 46.99,501.358C47.223,501.016 47.984,499.635 48.568,499.635C49.232,499.635 49.859,500.996 50.154,501.358C51.849,503.437 53.238,505.648 54.794,507.825" style="fill:none;stroke:black;stroke-width:1px;"/>
        </g>
        <g transform="matrix(0.75,0,0,-0.75,0,432)">
            <path d="M43.047,468.834C43.049,468.849 43.051,468.863 43.053,468.878" style="fill:none;stroke:black;stroke-width:1px;"/>
        </g>
        <g transform="matrix(0.75,0,0,-0.75,0,432)">
            <path d="M48.253,468.135C48.254,468.125 48.255,468.115 48.256,468.105" style="fill:none;stroke:black;stroke-width:1px;"/>
        </g>
        <g transform="matrix(0.75,0,0,-0.75,0,432)">
            <path d="M41.228,474.087C41.175,473.929 41.407,474.369 41.507,474.502C41.626,474.662 41.838,474.877 41.999,474.994C42.663,475.479 43.522,475.739 44.308,475.935C46.377,476.452 48.687,475.578 49.873,473.799" style="fill:none;stroke:black;stroke-width:1px;"/>
        </g>
        <g transform="matrix(0.75,0,0,-0.75,0,432)">
            <path d="M23.279,482.129C23.353,481.999 23.972,483.363 24.072,483.571C24.691,484.867 25.126,486.241 25.408,487.649C25.478,488.002 25.473,489.472 25.759,489.758C25.938,489.936 26.315,489.257 26.462,489.125C27.018,488.625 27.681,488.22 28.29,487.789C29.178,487.16 31.737,486.087 31.946,484.837C32.098,483.921 31.862,483.307 31.664,482.517C31.532,481.986 31.687,481.515 31.453,480.97C30.768,479.371 30.504,479.037 28.923,479.775C28.409,480.014 27.9,480.264 27.376,480.478C26.411,480.871 26.43,480.788 25.478,481.321C24.806,481.698 23.7,482.657 22.877,482.657" style="fill:none;stroke:black;stroke-width:1px;"/>
        </g>
        <g transform="matrix(0.75,0,0,-0.75,0,432)">
            <path d="M25.983,489.76C25.705,489.714 26.447,490.081 26.673,490.25C27.374,490.776 27.314,490.765 28.079,491.164C29.525,491.918 30.809,492.897 32.227,493.695C32.306,493.739 33.155,494.25 33.281,494.187C33.725,493.965 34.338,491.89 34.476,491.515C34.708,490.89 34.906,490.252 35.109,489.617C35.206,489.314 35.293,489.007 35.39,488.703C35.932,487.01 36.391,486.364 34.617,486.032C33.955,485.908 34,485.957 33.352,485.821C32.802,485.705 32.103,485.654 31.594,485.399" style="fill:none;stroke:black;stroke-width:1px;"/>
        </g>
        <g transform="matrix(0.75,0,0,-0.75,0,432)">
            <path d="M61.585,469.861C63.247,469.957 65.902,469.56 67.8,469.37" style="fill:none;stroke:black;stroke-width:1px;"/>
        </g>
        <g transform="matrix(0.75,0,0,-0.75,0,432)">
            <path d="M61.751,467.995C61.761,467.866 61.791,468.261 61.754,468.386C61.677,468.641 61.449,468.972 61.262,469.159C61.129,469.291 59.644,470.354 59.645,470.354C59.864,470.574 62.527,471.153 62.527,470.917C62.527,470.493 62.093,469.928 61.965,469.511C61.939,469.428 61.65,468.245 61.613,468.245C61.491,468.245 61.902,470.069 61.894,470.073C61.453,470.294 61.512,469.581 61.262,469.581C61.154,469.581 60.411,469.792 61.121,469.792" style="fill:none;stroke:black;stroke-width:1px;"/>
        </g>
        <g transform="matrix(0.75,0,0,-0.75,0,432)">
            <path d="M60.53,469.842C60.538,469.848 60.658,469.439 60.699,469.37C60.817,469.173 62.41,467.496 62.457,467.542C62.937,468.022 62.745,470.531 62.878,471.268C62.9,471.386 63.067,472.064 62.949,472.182C62.587,472.544 60.789,471.014 60.559,470.846C60.19,470.579 60.146,470.58 59.785,470.354C59.642,470.265 59.223,469.979 59.363,470.073C59.847,470.395 60.309,470.667 60.91,470.776C61.094,470.81 61.66,470.776 61.472,470.776C61.102,470.776 60.418,470.425 60.418,470.425C60.418,470.425 60.826,470.168 60.98,470.284C61.375,470.58 61.799,470.987 61.543,470.987" style="fill:none;stroke:black;stroke-width:1px;"/>
        </g>
        <g transform="matrix(0.75,0,0,-0.75,0,432)">
            <path d="M59.467,469.879C59.326,469.808 59.956,469.406 59.996,469.37C60.609,468.825 61.322,468.396 61.894,467.824" style="fill:none;stroke:black;stroke-width:1px;"/>
        </g>
        <g transform="matrix(0.75,0,0,-0.75,0,432)">
            <path d="M154.232,466.614C153.604,466.814 152.207,466.22 151.465,466.294C149.425,466.498 147.437,467.886 146.246,469.511C145.61,470.378 145.16,471.346 144.873,472.381C144.355,474.246 144.109,476.394 144.863,478.229C146.675,482.641 152.739,484.382 157.088,483.359C161.714,482.27 164.526,476.351 162.893,471.965C161.701,468.765 158.091,465.61 154.513,466.633" style="fill:none;stroke:black;stroke-width:1px;"/>
        </g>
        <g transform="matrix(0.75,0,0,-0.75,0,432)">
            <path d="M153.547,483.868C153.791,484.098 153.638,487.211 153.666,487.71C153.916,492.08 153.725,496.584 154.343,500.915" style="fill:none;stroke:black;stroke-width:1px;"/>
        </g>
        <g transform="matrix(0.75,0,0,-0.75,0,432)">
            <path d="M144.966,485.059C144.894,485.164 145.68,485.741 145.71,485.763C146.521,486.371 147.308,486.964 148.08,487.625C149.348,488.712 150.811,489.564 152.058,490.672C152.435,491.008 152.909,491.617 153.497,491.519C154.468,491.357 155.351,490.079 156.036,489.487C157.312,488.386 158.739,487.391 160.184,486.525" style="fill:none;stroke:black;stroke-width:1px;"/>
        </g>
        <g transform="matrix(0.75,0,0,-0.75,0,432)">
            <path d="M147.852,509.58C147.737,509.444 148.8,507.959 148.926,507.771C150.222,505.827 151.309,503.828 152.904,502.1C153.019,501.975 154.018,500.665 154.259,500.745C155.127,501.035 155.886,502.872 156.29,503.539C157.504,505.538 159.274,507.348 160.099,509.548" style="fill:none;stroke:black;stroke-width:1px;"/>
        </g>
        <g transform="matrix(0.75,0,0,-0.75,0,432)">
            <path d="M150.246,471.151C150.285,471.114 150.21,471.204 150.28,471.204" style="fill:none;stroke:black;stroke-width:1px;"/>
        </g>
        <g transform="matrix(0.75,0,0,-0.75,0,432)">
            <path d="M155.412,470.838C155.474,470.891 155.434,470.855 155.529,470.95" style="fill:none;stroke:black;stroke-width:1px;"/>
        </g>
        <g transform="matrix(0.75,0,0,-0.75,0,432)">
            <path d="M148.537,475.825C148.048,476.306 150.401,477.815 150.704,477.975C153.081,479.234 157.392,479.242 158.576,476.282" style="fill:none;stroke:black;stroke-width:1px;"/>
        </g>
        <g transform="matrix(0.75,0,0,-0.75,0,432)">
            <path d="M165.453,465.333C165.298,464.936 166.246,464.96 166.448,465.024C167.314,465.301 167.708,466.511 167.15,467.208C165.944,468.716 162.799,466.763 164.501,465.702" style="fill:none;stroke:black;stroke-width:1px;"/>
        </g>
        <g transform="matrix(0.75,0,0,-0.75,0,432)">
            <path d="M169.352,463.738C169.138,463.877 169.76,463.412 170.003,463.332C170.153,463.282 170.691,463.218 170.917,463.25C171.585,463.346 172.412,464.709 172.03,465.345C171.198,466.731 167.213,465.654 168.818,464.009" style="fill:none;stroke:black;stroke-width:1px;"/>
        </g>
        <g transform="matrix(0.524204,0,0,-0.540089,124.427,203.598)">
            <text x="19.052px" y="140.109px" style="font-family:'ComicRelief', 'Comic Relief', cursive;font-size:12px;"><tspan xmlns:ns0="http://sodipodi.sourceforge.net/DTD/sodipodi-0.dtd" ns0:role="line">oh goodness</tspan></text>
            <text x="13.034px" y="158.109px" style="font-family:'ComicRelief', 'Comic Relief', cursive;font-size:12px;"><tspan xmlns:ns0="http://sodipodi.sourceforge.net/DTD/sodipodi-0.dtd" ns0:role="line">that's a lot of</tspan></text>
            <text x="34.743px" y="176.109px" style="font-family:'ComicRelief', 'Comic Relief', cursive;font-size:12px;"><tspan xmlns:ns0="http://sodipodi.sourceforge.net/DTD/sodipodi-0.dtd" ns0:role="line">errors</tspan></text>
        </g>
        <g transform="matrix(0.524204,0,0,-0.540089,41.4869,153.886)">
            <text x="20.836px" y="140.109px" style="font-family:'ComicRelief', 'Comic Relief', cursive;font-size:12px;"><tspan xmlns:ns0="http://sodipodi.sourceforge.net/DTD/sodipodi-0.dtd" ns0:role="line">coding a &#64257;x</tspan></text>
        </g>
        <g transform="matrix(0.524204,0,0,-0.540089,212.195,201.699)">
            <text x="26.938px" y="140.109px" style="font-family:'ComicRelief', 'Comic Relief', cursive;font-size:12px;"><tspan xmlns:ns0="http://sodipodi.sourceforge.net/DTD/sodipodi-0.dtd" ns0:role="line">I have an</tspan></text>
            <text x="39.765px" y="158.109px" style="font-family:'ComicRelief', 'Comic Relief', cursive;font-size:12px;"><tspan xmlns:ns0="http://sodipodi.sourceforge.net/DTD/sodipodi-0.dtd" ns0:role="line">idea!</tspan></text>
        </g>
        <g transform="matrix(0.524204,0,0,-0.540089,132.526,154.076)">
            <text x="21.227px" y="140.109px" style="font-family:'ComicRelief', 'Comic Relief', cursive;font-size:12px;"><tspan xmlns:ns0="http://sodipodi.sourceforge.net/DTD/sodipodi-0.dtd" ns0:role="line">it works</tspan></text>
            <text x="32.006px" y="158.109px" style="font-family:'ComicRelief', 'Comic Relief', cursive;font-size:12px;"><tspan xmlns:ns0="http://sodipodi.sourceforge.net/DTD/sodipodi-0.dtd" ns0:role="line">now!</tspan></text>
        </g>
        <g transform="matrix(0.75,0,0,-0.75,0,432)">
            <path d="M177.047,463.087C176.378,463.027 175.736,463.04 175.251,463.585C174.876,464.008 174.454,465.008 175.251,465.194C176.429,465.468 178.536,463.874 176.944,463.078" style="fill:none;stroke:black;stroke-width:1px;"/>
        </g>
        <g transform="matrix(0.75,0,0,-0.75,0,432)">
            <path d="M191.503,462.504C191.503,462.187 190.888,462.337 190.572,462.316C189.665,462.255 188.739,462.458 187.948,462.908C185.866,464.093 183.256,466.323 182.615,468.749C182.115,470.645 183.413,472.409 185.155,473.066C185.681,473.264 186.798,473.145 187.186,473.404C187.421,473.561 186.865,473.87 186.678,474.082C186.413,474.382 186.165,474.698 185.917,475.013C185.402,475.663 185.011,476.294 184.771,477.095C183.784,480.383 184.16,484.315 186.763,486.779C188.801,488.707 191.508,488.3 193.873,487.286C193.965,487.247 194.839,486.609 195.058,486.609C195.071,486.609 195.03,487.446 195.058,487.54C195.197,487.997 195.537,488.409 195.867,488.738C197.228,490.099 199.421,491.002 201.271,491.392C203.346,491.829 206.022,491.689 207.925,490.672C208.78,490.215 209.623,489.188 210.379,488.81C210.729,488.635 211.868,489.32 212.157,489.403C213.211,489.704 214.439,489.898 215.543,489.741C217.794,489.422 219.527,487.81 220.96,486.186C221.226,485.885 221.543,485.614 221.722,485.255C221.769,485.161 221.642,484.716 221.722,484.662C222.434,484.188 223.614,484.555 224.431,484.239C226.053,483.612 227.286,482.116 228.006,480.587C228.551,479.428 229.307,477.774 229.086,476.452C229.053,476.254 228.028,475.309 228.155,475.182C228.605,474.732 229.36,474.685 229.763,474.082C231.34,471.721 230.254,466.96 227.901,465.448C227.133,464.954 226.332,465.14 225.531,464.94C225.283,464.878 225.193,464.026 225.108,463.839C224.737,463.023 224.143,462.427 223.297,462.119C220.457,461.087 217.687,461.488 214.95,462.4C214.444,462.569 213.69,461.896 213.257,461.723C212.366,461.367 211.42,461.337 210.464,461.3C208.035,461.207 206.657,462.463 204.539,462.993C203.986,463.131 202.362,461.312 201.83,461.046C199.125,459.693 192.748,459.995 191.249,462.993" style="fill:none;stroke:black;stroke-width:1px;"/>
        </g>
        <g transform="matrix(0.75,0,0,-0.75,0,432)">
            <path d="M339.298,465.638C337.157,463.728 333.795,466.078 332.371,467.858C331.152,469.382 330.072,471.169 330.072,473.191C330.072,476.585 333.839,479.158 336.859,479.635C340.869,480.268 343.399,477.7 344.892,474.305C346.331,471.035 346.096,467.278 342.391,465.752C341.558,465.409 340.77,465.43 339.89,465.43" style="fill:none;stroke:black;stroke-width:1px;"/>
        </g>
        <g transform="matrix(0.75,0,0,-0.75,0,432)">
            <path d="M337.649,480.734C337.444,481.026 337.68,482.073 337.712,482.373C337.835,483.548 337.923,484.744 337.954,485.923C338.074,490.492 338.115,495.069 338.115,499.64" style="fill:none;stroke:black;stroke-width:1px;"/>
        </g>
        <g transform="matrix(0.75,0,0,-0.75,0,432)">
            <path d="M329.641,483.24C329.735,484.021 331.897,485.662 332.467,486.166C333.722,487.273 335.244,487.896 336.663,488.747C337.098,489.009 337.734,489.923 338.357,489.716C339.237,489.422 340.144,487.88 340.778,487.295C342.198,485.984 343.708,484.799 345.377,483.826" style="fill:none;stroke:black;stroke-width:1px;"/>
        </g>
        <g transform="matrix(0.75,0,0,-0.75,0,432)">
            <path d="M331.416,508.604C331.727,507.516 333.405,506.078 334,505.046C334.647,503.925 334.593,503.966 335.372,502.867C336.011,501.964 337.171,499.587 338.196,499.075C338.896,498.725 339.576,500.66 339.729,500.931C340.867,502.945 342.546,505.445 344.57,506.659" style="fill:none;stroke:black;stroke-width:1px;"/>
        </g>
        <g transform="matrix(0.75,0,0,-0.75,0,432)">
            <path d="M335.046,469.589C335.053,469.679 335.061,469.625 334.888,469.625" style="fill:none;stroke:black;stroke-width:1px;"/>
        </g>
        <g transform="matrix(0.75,0,0,-0.75,0,432)">
            <path d="M340.175,469.214C340.188,469.217 340.2,469.219 340.213,469.222" style="fill:none;stroke:black;stroke-width:1px;"/>
        </g>
        <g transform="matrix(0.75,0,0,-0.75,0,432)">
            <path d="M333.022,474.127C334.413,476.387 338.096,475.49 339.809,474.063" style="fill:none;stroke:black;stroke-width:1px;"/>
        </g>
        <g transform="matrix(0.75,0,0,-0.75,0,432)">
            <path d="M333.292,467.639C333.142,467.377 332.844,468.064 332.709,468.334C332.223,469.307 332.021,470.265 331.741,471.32C331.094,473.758 330.173,476.081 329.482,478.501" style="fill:none;stroke:black;stroke-width:1px;"/>
        </g>
        <g transform="matrix(0.75,0,0,-0.75,0,432)">
            <path d="M332.424,467.414C331.472,468.24 331.329,471.143 331.095,472.127C330.538,474.478 329.733,476.744 328.836,478.985" style="fill:none;stroke:black;stroke-width:1px;"/>
        </g>
        <g transform="matrix(0.75,0,0,-0.75,0,432)">
            <path d="M331.557,468.518C331.61,468.465 331.021,469.13 331.015,469.141C330.781,469.584 330.499,470.45 330.369,470.916C329.717,473.263 328.976,475.758 328.756,478.178" style="fill:none;stroke:black;stroke-width:1px;"/>
        </g>
        <g transform="matrix(0.75,0,0,-0.75,0,432)">
            <path d="M332.916,468.142C333.157,468.353 333.171,467.548 333.355,467.285C333.763,466.703 334.332,466.2 334.807,465.672C335.948,464.403 337.716,464.032 339.406,464.219C343.248,464.646 345.629,468.889 347.555,471.884C347.855,472.35 347.88,473.42 348.201,473.74" style="fill:none;stroke:black;stroke-width:1px;"/>
        </g>
        <g transform="matrix(0.75,0,0,-0.75,0,432)">
            <path d="M344.683,466.557C344.372,466.575 344.85,467.16 344.973,467.447C345.385,468.409 345.927,469.311 346.345,470.271C347.564,473.068 348.091,476.018 348.685,478.985" style="fill:none;stroke:black;stroke-width:1px;"/>
        </g>
        <g transform="matrix(0.75,0,0,-0.75,0,432)">
            <path d="M347.134,470.391C347.364,469.882 347.282,471.499 347.394,472.046C347.522,472.672 347.719,473.282 347.878,473.902C348.258,475.387 348.564,476.847 349.169,478.258" style="fill:none;stroke:black;stroke-width:1px;"/>
        </g>
        <g transform="matrix(0.75,0,0,-0.75,0,432)">
            <path d="M347.895,471.033C347.826,470.889 347.847,471.136 347.878,471.4C347.916,471.725 347.967,472.049 348.039,472.369C348.156,472.884 348.308,473.391 348.443,473.902C348.857,475.475 349.421,477.008 349.814,478.581" style="fill:none;stroke:black;stroke-width:1px;"/>
        </g>
        <g transform="matrix(0.75,0,0,-0.75,0,432)">
            <path d="M337.167,464.75C337.021,465 337.745,464.784 338.034,464.784C339.038,464.784 340.02,464.862 341.02,464.946" style="fill:none;stroke:black;stroke-width:1px;"/>
        </g>
        <g transform="matrix(0.75,0,0,-0.75,0,432)">
            <path d="M338.677,464.492C338.691,464.325 339,464.588 339.164,464.623C339.961,464.794 339.902,464.787 340.697,464.946" style="fill:none;stroke:black;stroke-width:1px;"/>
        </g>
        <g transform="matrix(0.75,0,0,-0.75,0,432)">
            <path d="M341.652,464.814C341.689,464.727 344.097,466.072 344.328,466.237C346.996,468.142 347.247,470.636 348.201,473.498" style="fill:none;stroke:black;stroke-width:1px;"/>
        </g>
        <g transform="matrix(0.75,0,0,-0.75,0,432)">
            <path d="M345.603,468.133C345.7,467.875 345.661,468.167 346.022,468.657C346.736,469.625 346.758,469.564 347.313,470.674C348.425,472.899 348.724,475.148 349.491,477.452" style="fill:none;stroke:black;stroke-width:1px;"/>
        </g>
        <g transform="matrix(0.75,0,0,-0.75,0,432)">
            <path d="M315.4,473.796C314.889,474.128 315.48,476.05 315.523,476.483C315.757,478.816 315.161,480.517 313.103,481.728C310.557,483.225 306.907,483.33 304.066,483.664C299.898,484.155 295.452,484.888 291.238,484.471C286.763,484.029 282.319,483.345 277.844,482.938C275.115,482.69 272.434,482.615 269.695,482.615C268.38,482.615 266.736,483.05 265.499,482.535C259.29,479.948 261.031,470.498 265.903,467.366C270.844,464.19 277.301,463.416 283.008,463.09C287.931,462.809 292.855,462.563 297.773,463.09C301.862,463.528 305.584,464.236 309.714,463.977C311.674,463.855 314.571,463.673 316.008,465.349C316.699,466.156 316.733,467.202 316.976,468.173C317.075,468.568 316.73,469.383 317.137,469.383C317.516,469.383 318.053,469.222 318.509,469.222C320.404,469.222 322.517,470.039 324.318,470.594C324.901,470.773 325.457,470.992 326.012,471.239C326.32,471.376 327.237,471.723 326.9,471.723C323.944,471.723 321.241,471.717 318.428,472.772C317.669,473.057 316.768,473.141 316.169,473.74" style="fill:none;stroke:black;stroke-width:1px;"/>
        </g>
        <g transform="matrix(0.524204,0,0,-0.540089,188.499,151.715)">
            <text x="20.9px" y="140.109px" style="font-family:'ComicRelief', 'Comic Relief', cursive;font-size:12px;"><tspan xmlns:ns0="http://sodipodi.sourceforge.net/DTD/sodipodi-0.dtd" ns0:role="line">great work!</tspan></text>
        </g>
        <g transform="matrix(1,0,0,1,-0.43341,-1.47605)">
            <g transform="matrix(0.566697,0,0,-0.58387,49.9976,470.281)">
                <text x="13.918px" y="140.109px" style="font-family:'ComicRelief', 'Comic Relief', cursive;font-size:12px;"><tspan xmlns:ns0="http://sodipodi.sourceforge.net/DTD/sodipodi-0.dtd" ns0:role="line">thanks to Allison Kaptur for teaching me this attitude! she</tspan></text>
                <text x="71.981px" y="158.109px" style="font-family:'ComicRelief', 'Comic Relief', cursive;font-size:12px;"><tspan xmlns:ns0="http://sodipodi.sourceforge.net/DTD/sodipodi-0.dtd" ns0:role="line">has a great talk called Love Your Bugs</tspan></text>
            </g>
            <g transform="matrix(0.675754,0,0,-0.675754,14.2752,430.896)">
                <path d="M63.563,50.863C62.995,51.845 61.567,52.794 60.91,53.889C57.287,59.927 56.193,67.988 58.304,74.741C59.099,77.287 60.431,78.36 62.043,80.294C62.453,80.787 62.785,82.108 63.517,82.108" style="fill:none;stroke:black;stroke-width:1.11px;"/>
            </g>
            <g transform="matrix(0.675754,0,0,-0.675754,14.2752,430.896)">
                <path d="M341.308,52.549C344.043,53.697 345.293,56.707 346.27,59.272C348.469,65.046 348.323,70.007 345.93,75.591C345.204,77.285 344.148,78.815 343.323,80.464C343.09,80.931 342.679,82.164 342.077,82.164" style="fill:none;stroke:black;stroke-width:1.11px;"/>
            </g>
        </g>
        <g transform="matrix(0.687754,0,0,-0.708595,117.499,326.809)">
            <text x="13.02px" y="140.109px" style="font-family:'ComicRelief', 'Comic Relief', cursive;font-size:12px;"><tspan xmlns:ns0="http://sodipodi.sourceforge.net/DTD/sodipodi-0.dtd" ns0:role="line">hmm, I should put in error</tspan></text>
            <text x="13.02px" y="158.109px" style="font-family:'ComicRelief', 'Comic Relief', cursive;font-size:12px;"><tspan xmlns:ns0="http://sodipodi.sourceforge.net/DTD/sodipodi-0.dtd" ns0:role="line">handling here in case that</tspan></text>
            <text x="13.02px" y="176.109px" style="font-family:'ComicRelief', 'Comic Relief', cursive;font-size:12px;"><tspan xmlns:ns0="http://sodipodi.sourceforge.net/DTD/sodipodi-0.dtd" ns0:role="line">database query times out</tspan></text>
        </g>
        <g transform="matrix(0.75,0,0,-0.75,6.56639,430.377)">
            <path d="M103.839,268.528C102.986,268.913 100.33,268.012 99.173,268.243C94.597,269.158 91.277,273.671 89.501,277.693C88.497,279.967 87.528,283.057 87.945,285.586C89.377,294.267 100.963,297.991 108.179,294.703C114.258,291.932 119.417,285.735 117.628,278.582C116.301,273.272 112.089,271.588 107.845,269.466C106.761,268.924 104.785,267.939 103.509,268.577" style="fill:none;stroke:black;stroke-width:1px;"/>
        </g>
        <g transform="matrix(0.75,0,0,-0.75,6.56639,430.377)">
            <path d="M102.867,296.145C102.494,296.185 102.752,296.886 102.731,297.26C102.626,299.157 102.668,301.142 102.731,303.041C102.956,309.788 103.176,316.52 103.176,323.275" style="fill:none;stroke:black;stroke-width:1px;"/>
        </g>
        <g transform="matrix(0.75,0,0,-0.75,6.56639,430.377)">
            <path d="M90.696,301.278C91.332,300.901 93.837,304.042 94.171,304.375C96.533,306.737 99.248,308.748 101.842,310.823C102.3,311.189 102.523,311.997 103.065,312.268C103.299,312.385 104.458,310.652 104.621,310.489C106.152,308.958 107.655,307.447 109.402,306.154C111.185,304.833 113.003,303.681 114.404,301.929" style="fill:none;stroke:black;stroke-width:1px;"/>
        </g>
        <g transform="matrix(0.75,0,0,-0.75,6.56639,430.377)">
            <path d="M92.982,336.525C92.928,336.492 93.725,335.296 93.837,335.17C94.994,333.868 96.058,332.505 97.172,331.168C98.764,329.258 100.311,327.14 102.064,325.387C102.394,325.057 103.077,323.503 103.732,323.83C108.243,326.086 108.098,333.634 112.07,336.282" style="fill:none;stroke:black;stroke-width:1px;"/>
        </g>
        <g transform="matrix(0.75,0,0,-0.75,6.56639,430.377)">
            <path d="M98.222,276.965C98.141,276.882 98.124,277.026 98.284,277.026" style="fill:none;stroke:black;stroke-width:1px;"/>
        </g>
        <g transform="matrix(0.75,0,0,-0.75,6.56639,430.377)">
            <path d="M107.484,276.655C107.579,276.783 107.797,276.581 107.956,276.581" style="fill:none;stroke:black;stroke-width:1px;"/>
        </g>
        <g transform="matrix(0.75,0,0,-0.75,6.56639,430.377)">
            <path d="M95.8,286.689C96.681,286.89 97.398,287.608 98.284,287.921C101.458,289.041 108.599,288.501 111.18,285.92" style="fill:none;stroke:black;stroke-width:1px;"/>
        </g>
        <g transform="matrix(0.75,0,0,-0.75,0,432)">
            <path d="M129.389,267.353C128.44,267.319 127.271,267.119 126.511,267.794C125.314,268.858 124.214,271.849 126.215,272.68C129.473,274.032 131.782,269.512 129.472,267.202" style="fill:none;stroke:black;stroke-width:1px;"/>
        </g>
        <g transform="matrix(0.75,0,0,-0.75,0,432)">
            <path d="M140.765,265.076C140.567,265.33 140.568,264.385 140.279,264.241C139.718,263.961 138.644,263.96 138.115,264.277C137.521,264.633 137.007,265.009 136.756,265.677C135.172,269.901 143.617,267.727 140.428,264.537" style="fill:none;stroke:black;stroke-width:1px;"/>
        </g>
        <g transform="matrix(0.75,0,0,-0.75,0,432)">
            <path d="M150.745,262.717C150.938,262.901 150.289,262.436 150.051,262.317C149.583,262.083 148.648,262.021 148.126,262.169C146.998,262.488 144.909,264.986 146.201,266.166C148.359,268.135 153.168,265.88 150.791,262.909" style="fill:none;stroke:black;stroke-width:1px;"/>
        </g>
        <g transform="matrix(0.75,0,0,-0.75,0,432)">
            <path d="M170.52,258.197C170.254,259.147 168.54,258.573 167.697,259.085C165.3,260.541 163.052,261.914 161.7,264.483C160.809,266.175 159.549,269.561 161.1,271.279C161.862,272.122 162.729,272.786 163.899,272.878C164.364,272.915 165.628,272.548 165.298,272.878C164.238,273.938 162.244,274.229 161.1,275.477C158.764,278.025 153.164,286.738 157.138,289.917C158.912,291.337 161.197,289.917 162.699,290.668C163.249,290.943 161.962,291.663 161.5,292.068C160.368,293.058 160.01,294.283 159.501,295.666C158.267,299.016 158.582,303.47 160.101,306.66C160.739,308 162.055,310.388 163.699,310.857C164.652,311.129 166.076,310.927 166.897,310.458C167.234,310.265 167.723,309.51 167.897,309.858C169.778,313.621 171.339,318.204 176.892,317.454C180.102,317.02 183.703,315.926 186.486,314.256C186.652,314.156 188.346,312.41 188.485,312.456C189.291,312.725 190.416,314.497 191.284,315.055C193.928,316.755 196.621,317.714 199.794,317.714C202.961,317.714 206.807,312.834 209.274,313.656C210.58,314.091 211.588,316.132 212.872,316.854C216.34,318.805 219.605,318.853 223.466,318.853C226.459,318.853 228.947,318.611 231.662,317.254C232.611,316.78 234.74,314.631 235.86,314.855C238.571,315.398 240.354,318.871 243.456,319.453C246.563,320.035 249.574,319.464 252.451,318.253C254.023,317.591 256.316,315.855 258.048,315.855C259.267,315.855 261.503,318.32 262.645,318.853C264.577,319.754 267.312,320.134 269.441,320.252C271.499,320.367 275.336,320.312 277.037,318.853C277.432,318.515 277.897,316.989 278.437,316.854C281.165,316.172 285.166,318.014 288.231,317.654C290.382,317.401 293.556,316.599 294.628,314.455C294.765,314.18 294.809,312.475 295.028,312.257C295.314,311.97 297.031,312.437 297.226,312.456C299.057,312.64 301.126,312.094 302.623,311.057C304.786,309.56 307.906,305.722 307.621,302.862C307.523,301.881 305.368,300.771 305.822,299.863C306.289,298.929 308.229,298.497 309.02,297.864C310.723,296.502 312.331,294.27 313.218,292.267C314.176,290.104 313.685,288.392 312.618,286.471C312.427,286.126 310.495,284.52 310.619,284.272C310.89,283.729 312.181,283.596 312.618,283.072C314.19,281.186 315.173,275.538 314.017,273.278C313.274,271.824 310.008,270.833 309.819,270.08C309.087,267.149 307.385,262.366 304.422,260.885C301.293,259.32 298.142,261.204 295.028,260.685C290.247,259.888 286.198,257.087 281.035,257.087C278.037,257.087 275.743,260.071 273.039,259.685C269.163,259.131 266.047,256.469 261.846,256.087C257.016,255.648 252.901,257.37 248.253,257.886C243.004,258.469 238.172,255.024 232.861,255.687C230.077,256.035 227.967,258.235 225.265,258.686C221.91,259.245 218.375,255.957 214.871,255.687C212.059,255.471 209.87,256.25 207.475,257.686C207.057,257.937 205.544,259.919 205.076,259.685C201.765,258.029 199.383,254.427 195.082,255.288C193.495,255.605 190.729,259.708 189.085,258.886C187.542,258.114 187.15,255.02 185.287,254.088C178.704,250.796 174.306,255.881 169.096,258.486" style="fill:none;stroke:black;stroke-width:1px;"/>
        </g>
        <g transform="matrix(0.678285,0,0,-0.69884,46.5077,393.031)">
            <text x="13.02px" y="140.109px" style="font-family:'ComicRelief', 'Comic Relief', cursive;font-size:12px;"><tspan xmlns:ns0="http://sodipodi.sourceforge.net/DTD/sodipodi-0.dtd" ns0:role="line">error: too many</tspan></text>
            <text x="13.02px" y="158.109px" style="font-family:'ComicRelief', 'Comic Relief', cursive;font-size:12px;"><tspan xmlns:ns0="http://sodipodi.sourceforge.net/DTD/sodipodi-0.dtd" ns0:role="line">open &#64257;les</tspan></text>
        </g>
        <g transform="matrix(0.53419,0,0,-0.550378,10.2885,349.118)">
            <text x="13.02px" y="140.109px" style="font-family:'ComicRelief', 'Comic Relief', cursive;font-size:12px;"><tspan xmlns:ns0="http://sodipodi.sourceforge.net/DTD/sodipodi-0.dtd" ns0:role="line">program</tspan></text>
        </g>
        <g transform="matrix(0.678285,0,0,-0.69884,132.688,398.198)">
            <text x="13.02px" y="140.109px" style="font-family:'ComicRelief', 'Comic Relief', cursive;font-size:12px;"><tspan xmlns:ns0="http://sodipodi.sourceforge.net/DTD/sodipodi-0.dtd" ns0:role="line">I can't just open as</tspan></text>
            <text x="13.02px" y="158.109px" style="font-family:'ComicRelief', 'Comic Relief', cursive;font-size:12px;"><tspan xmlns:ns0="http://sodipodi.sourceforge.net/DTD/sodipodi-0.dtd" ns0:role="line">many &#64257;les as I want?</tspan></text>
            <text x="13.02px" y="176.109px" style="font-family:'ComicRelief', 'Comic Relief', cursive;font-size:12px;"><tspan xmlns:ns0="http://sodipodi.sourceforge.net/DTD/sodipodi-0.dtd" ns0:role="line">Interesting!</tspan></text>
        </g>
        <g transform="matrix(0.75,0,0,-0.75,6.27956,425.646)">
            <path d="M25.874,180.583C25.99,180.571 25.946,180.551 25.946,180.71" style="fill:none;stroke:black;stroke-width:1px;"/>
        </g>
        <g transform="matrix(0.75,0,0,-0.75,6.27956,425.646)">
            <path d="M34.483,180.154C34.463,180.16 34.444,180.166 34.424,180.172" style="fill:none;stroke:black;stroke-width:1px;"/>
        </g>
        <g transform="matrix(0.75,0,0,-0.75,6.27956,425.646)">
            <path d="M25.605,191.263C25.502,191.172 26.325,191.033 26.484,190.938C27.188,190.515 27.915,190.121 28.637,189.727C31.002,188.437 33.703,187.934 36.039,186.766" style="fill:none;stroke:black;stroke-width:1px;"/>
        </g>
        <g transform="matrix(0.75,0,0,-0.75,6.27956,425.646)">
            <path d="M18.91,177.813C19.127,177.445 18.948,178.667 18.948,179.095C18.948,180.366 19.194,181.602 19.351,182.863C19.735,185.934 19.62,189.055 19.62,192.149C19.62,192.899 19.46,194.869 19.89,195.514C20.351,196.205 24.489,195.712 25.273,195.783C29.712,196.186 33.595,195.897 37.923,195.11C38.747,194.96 41.474,195.462 42.095,194.841C42.333,194.603 42.026,193.042 41.961,192.822C41.452,191.127 41.557,189.481 41.557,187.708C41.557,185.103 41.422,182.491 41.422,179.902C41.422,179.175 41.75,177.463 41.422,176.807C40.868,175.698 36.665,176.187 35.635,176C31.492,175.246 27.306,175.865 23.119,175.865C22.041,175.865 19.558,175.524 18.948,176.134C18.623,176.459 19.351,178.229 19.351,178.691" style="fill:none;stroke:black;stroke-width:1px;"/>
        </g>
        <g transform="matrix(0.75,0,0,-0.75,7.08838,428.339)">
            <path d="M59.461,187.127C58.126,192.593 59.052,201.18 65.123,203.203C73.511,205.999 83.324,204.182 91.907,203.447C102.765,202.516 113.708,202.852 124.536,201.499C130.449,200.76 136.241,200.714 141.459,197.359C145.62,194.684 147.159,188.922 149.008,184.697C150.501,181.284 151.549,178.227 150.956,174.47C149.378,164.477 138.413,163.941 130.38,162.904C116.65,161.133 102.684,161.443 88.864,161.443C82.128,161.443 73.402,160.699 67.071,163.513C63.458,165.119 60.347,167.847 59.766,171.914C59.495,173.809 59.162,175.665 58.792,177.514C58.698,177.982 58.893,179.239 58.548,179.584C58.169,179.963 56.602,179.706 56.113,179.706C54.218,179.706 52.583,180.036 50.756,180.558C49.426,180.938 47.979,181.52 46.739,182.141C46.134,182.443 45.034,183.236 45.034,183.236C45.034,183.236 46.405,182.866 47.104,182.749C48.541,182.51 50.26,182.296 51.73,182.506C55.229,183.006 56.773,184.992 58.913,187.132" style="fill:none;stroke:black;stroke-width:1px;"/>
        </g>
        <g transform="matrix(0.75,0,0,-0.75,-3.68568,429.654)">
            <path d="M344.101,154.133C344.57,153.463 342.666,153.302 342.413,153.302C340.498,153.302 339.009,153.575 337.248,154.397C332.03,156.832 326.982,166.164 333.492,170.205C338.36,173.227 346.723,173.748 350.552,168.483C354.479,163.084 351.516,153.458 344.291,153.458" style="fill:none;stroke:black;stroke-width:1px;"/>
        </g>
        <g transform="matrix(0.75,0,0,-0.75,-3.68568,429.654)">
            <path d="M340.633,172.515C341.188,172.873 340.798,178.328 340.848,179.127C341.23,185.237 341.005,191.336 341.005,197.439" style="fill:none;stroke:black;stroke-width:1px;"/>
        </g>
        <g transform="matrix(0.75,0,0,-0.75,-3.68568,429.654)">
            <path d="M329.295,178.579C329.198,178.318 330.458,179.076 330.518,179.127C331.356,179.824 332.095,180.703 332.866,181.474C335.152,183.76 337.92,185.746 340.066,187.891C340.55,188.376 341.724,186.514 341.944,186.326C343.893,184.656 345.977,183.137 348.048,181.631C348.849,181.048 349.925,179.595 350.552,180.848" style="fill:none;stroke:black;stroke-width:1px;"/>
        </g>
        <g transform="matrix(0.75,0,0,-0.75,-3.68568,429.654)">
            <path d="M331.266,212.932C332.28,212.969 333.231,210.065 333.648,209.49C335.517,206.92 337.539,204.214 338.97,201.352C339.414,200.463 339.834,197.946 340.848,197.439C342.095,196.815 343.717,199.92 344.135,200.569C344.925,201.799 345.614,203.199 346.326,204.482C347.448,206.502 349.16,210.751 351.335,211.838" style="fill:none;stroke:black;stroke-width:1px;"/>
        </g>
        <g transform="matrix(0.75,0,0,-0.75,-3.68568,429.654)">
            <path d="M337.703,159.804C337.726,159.915 337.918,159.719 338.031,159.719" style="fill:none;stroke:black;stroke-width:1px;"/>
        </g>
        <g transform="matrix(0.75,0,0,-0.75,-3.68568,429.654)">
            <path d="M345.72,159.346C345.713,159.366 345.707,159.386 345.7,159.406" style="fill:none;stroke:black;stroke-width:1px;"/>
        </g>
        <g transform="matrix(0.75,0,0,-0.75,-3.68568,429.654)">
            <path d="M337.415,165.057C337.174,164.636 337.822,165.973 338.187,166.292C338.763,166.796 339.969,167.479 340.692,167.701C343.437,168.546 346.312,167.729 347.578,165.197" style="fill:none;stroke:black;stroke-width:1px;"/>
        </g>
        <g transform="matrix(0.75,0,0,-0.75,-3.68568,429.654)">
            <path d="M330.601,169.544C330.877,169.677 329.688,170.027 329.579,170.049C328.889,170.187 327.971,169.597 327.544,169.11C326.467,167.878 325.966,164.571 327.231,163.319C328.094,162.465 331.131,162.814 330.049,164.258C329.532,164.946 328.079,164.607 327.701,163.945C326.612,162.039 327.737,158.158 329.892,157.371C330.571,157.123 333.678,156.472 333.179,158.467C333.057,158.952 331.644,159.186 331.301,158.936C329.561,157.671 333.158,152.468 334.913,152.468C335.582,152.468 334.926,153.803 335.057,153.145C335.122,152.822 335.254,152.515 335.37,152.206C335.508,151.839 335.713,151.393 335.996,151.11C337.163,149.944 342.788,149.312 341.631,152.206C341.491,152.554 339.918,153.007 339.753,152.676C338.935,151.041 343.862,150.128 344.946,150.671C345.956,151.176 347.026,154.213 345.231,153.615C344.66,153.424 345.298,152.39 345.544,152.206C346.212,151.705 347.457,151.663 348.204,151.893C349.104,152.17 350.074,152.649 350.396,153.615C350.663,154.416 349.472,155.138 348.83,154.71C347.647,153.921 351.267,151.952 352.587,152.832C354.876,154.358 352.747,155.806 351.022,155.806" style="fill:none;stroke:black;stroke-width:1px;"/>
        </g>
        <g transform="matrix(0.75,0,0,-0.75,-3.68568,429.654)">
            <path d="M299.553,161.874C299.881,162.267 299.39,160.792 299.028,160.43C298.082,159.485 297.026,158.544 295.887,157.843C293.122,156.142 289.17,154.446 285.893,155.675C284.343,156.256 282.951,156.948 281.844,158.213C281.535,158.566 281.758,159.506 281.289,159.506C280.554,159.506 279.875,158.038 279.442,157.659C277.535,155.99 274.928,154.405 272.42,153.778C270.287,153.245 267.406,153.406 265.399,154.333C264.869,154.577 262.329,157.481 262.073,157.289C256.417,153.048 251.818,151.901 244.334,152.115C241.217,152.204 237.946,152.555 235.28,154.333C235.048,154.487 233.517,155.426 233.802,155.996C234.133,156.659 232.854,154.712 232.139,154.517C230.026,153.941 228.275,153.224 226.041,153.224C224.552,153.224 222.646,153.527 221.422,154.517C220.71,155.093 220.454,156.441 219.574,156.735C217.552,157.409 213.478,154.841 211.259,154.702C208.759,154.546 205.316,154.868 203.129,156.18C202.277,156.691 201.651,158.767 201.651,158.767C201.651,158.767 199.471,157.888 198.325,157.659C196.25,157.244 193.331,156.186 191.303,157.289C189.126,158.473 188.128,161.435 187.238,163.571C186.95,164.263 186.307,165.973 187.608,165.973C187.922,165.973 186.982,166.059 186.684,166.158C185.837,166.441 185.6,166.596 184.836,167.082C183.148,168.156 181.855,169.611 181.14,171.517C179.862,174.926 180.009,181.149 181.51,184.451C182.082,185.709 185.609,185.946 185.39,187.038C185.082,188.578 183.539,190.114 182.988,191.657C181.908,194.681 181.397,200.237 182.733,203.242C183.777,205.591 186.135,206.665 188.531,207.179C188.56,207.185 191.666,207.345 191.673,207.363C193.141,211.768 197.945,218.807 203.605,216.921C205.021,216.449 208.133,213.276 209.042,213.276C209.312,213.276 211.965,215.464 212.368,215.678C214.478,216.804 217.196,217.21 219.574,216.972C221.982,216.731 223.769,215.584 225.672,214.2C226.041,213.932 227.191,212.982 227.519,213.092C231.527,214.427 233.479,217.856 238.421,217.526C240.328,217.399 242.086,216.885 243.595,215.678C244.025,215.334 244.967,213.487 245.443,213.646C249.177,214.891 250.681,218.141 255.421,216.787C256.353,216.521 260.472,213.142 261.333,213.831C263.885,215.872 267.26,217.117 270.757,216.418C273.182,215.933 273.045,212.125 275.007,211.798C278.595,211.2 281.971,212.496 285.539,210.874C286.349,210.506 287.344,209.851 287.757,209.026C287.943,208.653 287.916,206.585 288.496,206.44C291.336,205.73 294.936,207.39 297.365,204.961C299.126,203.2 297.397,199.571 298.843,198.125C300.719,196.248 304.158,196.69 306.234,194.614C307.67,193.178 307.42,191.781 306.973,189.994C306.908,189.734 305.857,188.531 305.865,188.516C307.481,185.284 312.563,182.048 311.408,177.43C311.089,176.155 309.383,174.846 308.267,174.288C308.079,174.194 306.049,173.81 306.049,173.549C306.049,173.141 307.298,172.104 307.528,171.702C308.23,170.473 308.256,168.843 308.082,167.452C307.73,164.635 301.135,158.139 298.289,160.985" style="fill:none;stroke:black;stroke-width:1px;"/>
        </g>
        <g transform="matrix(0.75,0,0,-0.75,-3.68568,429.654)">
            <path d="M304.259,154.637C303.848,155.099 305.455,153.978 306.049,154.148C307.085,154.444 308.243,156.101 307.301,157.043C304.735,159.609 301.775,155.829 304.756,153.593" style="fill:none;stroke:black;stroke-width:1px;"/>
        </g>
        <g transform="matrix(0.75,0,0,-0.75,-3.68568,429.654)">
            <path d="M312.597,151.012C312.068,150.974 313.656,150.734 314.18,150.822C314.726,150.913 315.476,152.358 315.288,152.854C314.408,155.181 308.025,152.889 311.777,150.637" style="fill:none;stroke:black;stroke-width:1px;"/>
        </g>
        <g transform="matrix(0.75,0,0,-0.75,-3.68568,429.654)">
            <path d="M321.669,151.523C322.16,151.736 322.329,150.452 322.864,150.452C323.545,150.452 323.909,151.419 323.973,151.93C324.153,153.376 321.998,154.06 320.832,153.593C319.094,152.898 320.204,150.452 321.755,150.452" style="fill:none;stroke:black;stroke-width:1px;"/>
        </g>
        <g transform="matrix(0.595216,0,0,-0.75,-0.163217,439.828)">
            <rect x="26.513" y="402.239" width="129.632" height="58.999" style="fill:none;stroke:black;stroke-width:1.11px;"/>
        </g>
        <g transform="matrix(0.595216,0,0,-0.75,85.221,439.828)">
            <rect x="26.513" y="402.239" width="129.632" height="58.999" style="fill:none;stroke:black;stroke-width:1.11px;"/>
        </g>
        <g transform="matrix(0.595216,0,0,-0.75,173.097,439.828)">
            <rect x="26.513" y="402.239" width="129.632" height="58.999" style="fill:none;stroke:black;stroke-width:1.11px;"/>
        </g>
        <g transform="matrix(0.595216,0,0,-0.75,-0.425482,390.89)">
            <rect x="26.513" y="402.239" width="129.632" height="58.999" style="fill:none;stroke:black;stroke-width:1.11px;"/>
        </g>
        <g transform="matrix(0.595216,0,0,-0.75,84.9587,390.89)">
            <rect x="26.513" y="402.239" width="129.632" height="58.999" style="fill:none;stroke:black;stroke-width:1.11px;"/>
        </g>
        <g transform="matrix(0.595216,0,0,-0.75,172.834,390.89)">
            <rect x="26.513" y="402.239" width="129.632" height="58.999" style="fill:none;stroke:black;stroke-width:1.11px;"/>
        </g>
    </g>
</svg>