<!DOCTYPE svg PUBLIC "-//W3C//DTD SVG 1.1//EN" "http://www.w3.org/Graphics/SVG/1.1/DTD/svg11.dtd">
<svg xmlns="http://www.w3.org/2000/svg" xmlns:xlink="http://www.w3.org/1999/xlink" xmlns:serif="http://www.serif.com/" width="100%" height="100%" viewBox="0 0 384 576" version="1.1" xml:space="preserve" style="fill-rule:evenodd;clip-rule:evenodd;stroke-linecap:round;stroke-linejoin:round;stroke-miterlimit:10;">
    <g id="g10" transform="matrix(1.33333,0,0,-1.33333,0,576)">
        <g transform="matrix(1,0,0,1,2.90997,-30.7498)">
            <path id="path10812" d="M23.85,354.26L22.21,354.35" style="fill:none;fill-rule:nonzero;stroke:black;stroke-width:0.85px;"/>
            <path id="path10814" d="M22.21,354.35L21.28,354.25" style="fill:none;fill-rule:nonzero;stroke:black;stroke-width:0.85px;"/>
            <path id="path10816" d="M21.28,354.25L20.7,354.1" style="fill:none;fill-rule:nonzero;stroke:black;stroke-width:0.85px;"/>
            <path id="path10818" d="M20.7,354.1L19.64,353.54" style="fill:none;fill-rule:nonzero;stroke:black;stroke-width:0.85px;"/>
            <path id="path10820" d="M19.64,353.54L18.49,352.55" style="fill:none;fill-rule:nonzero;stroke:black;stroke-width:0.85px;"/>
            <path id="path10822" d="M18.49,352.55L17.35,351.36" style="fill:none;fill-rule:nonzero;stroke:black;stroke-width:0.85px;"/>
            <path id="path10824" d="M17.35,351.36L16.69,350.55" style="fill:none;fill-rule:nonzero;stroke:black;stroke-width:0.85px;"/>
            <path id="path10826" d="M16.69,350.55L16.16,349.65" style="fill:none;fill-rule:nonzero;stroke:black;stroke-width:0.85px;"/>
            <path id="path10828" d="M16.16,349.65L15.62,348.27" style="fill:none;fill-rule:nonzero;stroke:black;stroke-width:0.85px;"/>
            <path id="path10830" d="M15.62,348.27L15.32,347.03" style="fill:none;fill-rule:nonzero;stroke:black;stroke-width:0.85px;"/>
            <path id="path10832" d="M15.32,347.03L15.12,345.59" style="fill:none;fill-rule:nonzero;stroke:black;stroke-width:0.85px;"/>
            <path id="path10834" d="M15.12,345.59L15.09,344.11" style="fill:none;fill-rule:nonzero;stroke:black;stroke-width:0.85px;"/>
            <path id="path10836" d="M15.09,344.11L15.18,342.69" style="fill:none;fill-rule:nonzero;stroke:black;stroke-width:0.85px;"/>
            <path id="path10838" d="M15.18,342.69L15.36,341.79" style="fill:none;fill-rule:nonzero;stroke:black;stroke-width:0.85px;"/>
            <path id="path10840" d="M15.36,341.79L15.78,340.56" style="fill:none;fill-rule:nonzero;stroke:black;stroke-width:0.85px;"/>
            <path id="path10842" d="M15.78,340.56L16.38,339.44" style="fill:none;fill-rule:nonzero;stroke:black;stroke-width:0.85px;"/>
            <path id="path10844" d="M16.38,339.44L16.91,338.81" style="fill:none;fill-rule:nonzero;stroke:black;stroke-width:0.85px;"/>
            <path id="path10846" d="M16.91,338.81L17.55,338.26" style="fill:none;fill-rule:nonzero;stroke:black;stroke-width:0.85px;"/>
            <path id="path10848" d="M17.55,338.26L18.25,337.79" style="fill:none;fill-rule:nonzero;stroke:black;stroke-width:0.85px;"/>
            <path id="path10850" d="M18.25,337.79L19.06,337.43" style="fill:none;fill-rule:nonzero;stroke:black;stroke-width:0.85px;"/>
            <path id="path10852" d="M19.06,337.43L19.98,337.21" style="fill:none;fill-rule:nonzero;stroke:black;stroke-width:0.85px;"/>
            <path id="path10854" d="M19.98,337.21L20.99,337.12" style="fill:none;fill-rule:nonzero;stroke:black;stroke-width:0.85px;"/>
            <path id="path10856" d="M20.99,337.12L22.58,337.16" style="fill:none;fill-rule:nonzero;stroke:black;stroke-width:0.85px;"/>
            <path id="path10858" d="M22.58,337.16L23.66,337.27" style="fill:none;fill-rule:nonzero;stroke:black;stroke-width:0.85px;"/>
            <path id="path10860" d="M23.66,337.27L24.67,337.49" style="fill:none;fill-rule:nonzero;stroke:black;stroke-width:0.85px;"/>
            <path id="path10862" d="M24.67,337.49L26.07,337.97" style="fill:none;fill-rule:nonzero;stroke:black;stroke-width:0.85px;"/>
            <path id="path10864" d="M26.07,337.97L27.43,338.63" style="fill:none;fill-rule:nonzero;stroke:black;stroke-width:0.85px;"/>
            <path id="path10866" d="M27.43,338.63L28.27,339.13" style="fill:none;fill-rule:nonzero;stroke:black;stroke-width:0.85px;"/>
            <path id="path10868" d="M28.27,339.13L29.03,339.62" style="fill:none;fill-rule:nonzero;stroke:black;stroke-width:0.85px;"/>
            <path id="path10870" d="M29.03,339.62L30.26,340.54" style="fill:none;fill-rule:nonzero;stroke:black;stroke-width:0.85px;"/>
            <path id="path10872" d="M30.26,340.54L30.89,341.17" style="fill:none;fill-rule:nonzero;stroke:black;stroke-width:0.85px;"/>
            <path id="path10874" d="M30.89,341.17L31.3,341.87" style="fill:none;fill-rule:nonzero;stroke:black;stroke-width:0.85px;"/>
            <path id="path10876" d="M31.3,341.87L31.62,342.92" style="fill:none;fill-rule:nonzero;stroke:black;stroke-width:0.85px;"/>
            <path id="path10878" d="M31.62,342.92L31.72,343.86" style="fill:none;fill-rule:nonzero;stroke:black;stroke-width:0.85px;"/>
            <path id="path10880" d="M31.72,343.86L31.69,344.9" style="fill:none;fill-rule:nonzero;stroke:black;stroke-width:0.85px;"/>
            <path id="path10882" d="M31.69,344.9L31.42,346.87" style="fill:none;fill-rule:nonzero;stroke:black;stroke-width:0.85px;"/>
            <path id="path10884" d="M31.42,346.87L31,348.76" style="fill:none;fill-rule:nonzero;stroke:black;stroke-width:0.85px;"/>
            <path id="path10886" d="M31,348.76L30.49,350.49" style="fill:none;fill-rule:nonzero;stroke:black;stroke-width:0.85px;"/>
            <path id="path10888" d="M30.49,350.49L29.29,353.08" style="fill:none;fill-rule:nonzero;stroke:black;stroke-width:0.85px;"/>
            <path id="path10890" d="M29.29,353.08L29.01,353.48" style="fill:none;fill-rule:nonzero;stroke:black;stroke-width:0.85px;"/>
            <path id="path10892" d="M29.01,353.48L28.65,353.8" style="fill:none;fill-rule:nonzero;stroke:black;stroke-width:0.85px;"/>
            <path id="path10894" d="M28.65,353.8L27.92,354.14" style="fill:none;fill-rule:nonzero;stroke:black;stroke-width:0.85px;"/>
            <path id="path10896" d="M27.92,354.14L25.01,354.65" style="fill:none;fill-rule:nonzero;stroke:black;stroke-width:0.85px;"/>
            <path id="path10898" d="M25.01,354.65L23.23,355.09" style="fill:none;fill-rule:nonzero;stroke:black;stroke-width:0.85px;"/>
            <path id="path10902" d="M22.17,337.13L22.04,336.46" style="fill:none;fill-rule:nonzero;stroke:black;stroke-width:0.85px;"/>
            <path id="path10904" d="M22.04,336.46L21.62,327.74" style="fill:none;fill-rule:nonzero;stroke:black;stroke-width:0.85px;"/>
            <path id="path10906" d="M21.62,327.74L21.18,322.83" style="fill:none;fill-rule:nonzero;stroke:black;stroke-width:0.85px;"/>
            <path id="path10908" d="M21.18,322.83L20.73,319.01" style="fill:none;fill-rule:nonzero;stroke:black;stroke-width:0.85px;"/>
            <path id="path10910" d="M20.73,319.01L20.63,317.06" style="fill:none;fill-rule:nonzero;stroke:black;stroke-width:0.85px;"/>
            <path id="path10914" d="M12.22,330.89L12.62,330.66" style="fill:none;fill-rule:nonzero;stroke:black;stroke-width:0.85px;"/>
            <path id="path10916" d="M12.62,330.66L13.47,329.96" style="fill:none;fill-rule:nonzero;stroke:black;stroke-width:0.85px;"/>
            <path id="path10918" d="M13.47,329.96L14.95,328.52" style="fill:none;fill-rule:nonzero;stroke:black;stroke-width:0.85px;"/>
            <path id="path10920" d="M14.95,328.52L16.41,327.27" style="fill:none;fill-rule:nonzero;stroke:black;stroke-width:0.85px;"/>
            <path id="path10922" d="M16.41,327.27L17.97,325.65" style="fill:none;fill-rule:nonzero;stroke:black;stroke-width:0.85px;"/>
            <path id="path10924" d="M17.97,325.65L19.69,324.24" style="fill:none;fill-rule:nonzero;stroke:black;stroke-width:0.85px;"/>
            <path id="path10926" d="M19.69,324.24L20.55,323.29" style="fill:none;fill-rule:nonzero;stroke:black;stroke-width:0.85px;"/>
            <path id="path10928" d="M20.55,323.29L20.76,323.19" style="fill:none;fill-rule:nonzero;stroke:black;stroke-width:0.85px;"/>
            <path id="path10930" d="M20.76,323.19L20.88,323.22" style="fill:none;fill-rule:nonzero;stroke:black;stroke-width:0.85px;"/>
            <path id="path10932" d="M20.88,323.22L21.03,323.36" style="fill:none;fill-rule:nonzero;stroke:black;stroke-width:0.85px;"/>
            <path id="path10934" d="M21.03,323.36L22.41,324.89" style="fill:none;fill-rule:nonzero;stroke:black;stroke-width:0.85px;"/>
            <path id="path10936" d="M22.41,324.89L23.89,326.22" style="fill:none;fill-rule:nonzero;stroke:black;stroke-width:0.85px;"/>
            <path id="path10938" d="M23.89,326.22L27.35,329.54" style="fill:none;fill-rule:nonzero;stroke:black;stroke-width:0.85px;"/>
            <path id="path10942" d="M20.47,316.51L20.35,316.38" style="fill:none;fill-rule:nonzero;stroke:black;stroke-width:0.85px;"/>
            <path id="path10944" d="M20.35,316.38L19.75,315.17" style="fill:none;fill-rule:nonzero;stroke:black;stroke-width:0.85px;"/>
            <path id="path10946" d="M19.75,315.17L17.79,311.84" style="fill:none;fill-rule:nonzero;stroke:black;stroke-width:0.85px;"/>
            <path id="path10948" d="M17.79,311.84L16.68,309.84" style="fill:none;fill-rule:nonzero;stroke:black;stroke-width:0.85px;"/>
            <path id="path10950" d="M16.68,309.84L16.15,308.55" style="fill:none;fill-rule:nonzero;stroke:black;stroke-width:0.85px;"/>
            <path id="path10952" d="M16.15,308.55L16.08,308.19" style="fill:none;fill-rule:nonzero;stroke:black;stroke-width:0.85px;"/>
            <path id="path10956" d="M20.82,316.32L22.12,314.5" style="fill:none;fill-rule:nonzero;stroke:black;stroke-width:0.85px;"/>
            <path id="path10958" d="M22.12,314.5L23.32,312.42" style="fill:none;fill-rule:nonzero;stroke:black;stroke-width:0.85px;"/>
            <path id="path10960" d="M23.32,312.42L24.87,309.94" style="fill:none;fill-rule:nonzero;stroke:black;stroke-width:0.85px;"/>
            <path id="path10962" d="M24.87,309.94L25.35,309.33" style="fill:none;fill-rule:nonzero;stroke:black;stroke-width:0.85px;"/>
            <path id="path10964" d="M25.35,309.33L25.5,309.18" style="fill:none;fill-rule:nonzero;stroke:black;stroke-width:0.85px;"/>
            <path id="path10966" d="M25.5,309.18L25.52,309.28" style="fill:none;fill-rule:nonzero;stroke:black;stroke-width:0.85px;"/>
            <path id="path10968" d="M25.52,309.28L25.65,309.19" style="fill:none;fill-rule:nonzero;stroke:black;stroke-width:0.85px;"/>
            <path id="path10972" d="M19.81,342.64L19.93,342.33" style="fill:none;fill-rule:nonzero;stroke:black;stroke-width:0.85px;"/>
            <path id="path10974" d="M19.93,342.33L20.13,342.11" style="fill:none;fill-rule:nonzero;stroke:black;stroke-width:0.85px;"/>
            <path id="path10976" d="M20.13,342.11L20.58,341.82" style="fill:none;fill-rule:nonzero;stroke:black;stroke-width:0.85px;"/>
            <path id="path10978" d="M20.58,341.82L21.03,341.68" style="fill:none;fill-rule:nonzero;stroke:black;stroke-width:0.85px;"/>
            <path id="path10980" d="M21.03,341.68L22.53,341.44" style="fill:none;fill-rule:nonzero;stroke:black;stroke-width:0.85px;"/>
            <path id="path10982" d="M22.53,341.44L23.54,341.39" style="fill:none;fill-rule:nonzero;stroke:black;stroke-width:0.85px;"/>
            <path id="path10984" d="M23.54,341.39L24.47,341.42" style="fill:none;fill-rule:nonzero;stroke:black;stroke-width:0.85px;"/>
            <path id="path10986" d="M24.47,341.42L25.22,341.62" style="fill:none;fill-rule:nonzero;stroke:black;stroke-width:0.85px;"/>
            <path id="path10988" d="M25.22,341.62L25.78,341.91" style="fill:none;fill-rule:nonzero;stroke:black;stroke-width:0.85px;"/>
            <path id="path10990" d="M25.78,341.91L26.43,342.53" style="fill:none;fill-rule:nonzero;stroke:black;stroke-width:0.85px;"/>
            <path id="path10992" d="M26.43,342.53L27.01,343.32" style="fill:none;fill-rule:nonzero;stroke:black;stroke-width:0.85px;"/>
            <path id="path10996" d="M15.57,340.51L15.02,340.32" style="fill:none;fill-rule:nonzero;stroke:black;stroke-width:0.85px;"/>
            <path id="path10998" d="M15.02,340.32L14.51,340.34" style="fill:none;fill-rule:nonzero;stroke:black;stroke-width:0.85px;"/>
            <path id="path11000" d="M14.51,340.34L13.66,340.55" style="fill:none;fill-rule:nonzero;stroke:black;stroke-width:0.85px;"/>
            <path id="path11002" d="M13.66,340.55L13.14,340.84" style="fill:none;fill-rule:nonzero;stroke:black;stroke-width:0.85px;"/>
            <path id="path11004" d="M13.14,340.84L12.77,341.18" style="fill:none;fill-rule:nonzero;stroke:black;stroke-width:0.85px;"/>
            <path id="path11006" d="M12.77,341.18L12.39,341.84" style="fill:none;fill-rule:nonzero;stroke:black;stroke-width:0.85px;"/>
            <path id="path11008" d="M12.39,341.84L12.23,342.41" style="fill:none;fill-rule:nonzero;stroke:black;stroke-width:0.85px;"/>
            <path id="path11010" d="M12.23,342.41L12.19,343.03" style="fill:none;fill-rule:nonzero;stroke:black;stroke-width:0.85px;"/>
            <path id="path11012" d="M12.19,343.03L12.32,343.71" style="fill:none;fill-rule:nonzero;stroke:black;stroke-width:0.85px;"/>
            <path id="path11014" d="M12.32,343.71L12.49,344.16" style="fill:none;fill-rule:nonzero;stroke:black;stroke-width:0.85px;"/>
            <path id="path11016" d="M12.49,344.16L12.84,344.77" style="fill:none;fill-rule:nonzero;stroke:black;stroke-width:0.85px;"/>
            <path id="path11018" d="M12.84,344.77L13.12,345.07" style="fill:none;fill-rule:nonzero;stroke:black;stroke-width:0.85px;"/>
            <path id="path11020" d="M13.12,345.07L13.59,345.34" style="fill:none;fill-rule:nonzero;stroke:black;stroke-width:0.85px;"/>
            <path id="path11022" d="M13.59,345.34L14,345.36" style="fill:none;fill-rule:nonzero;stroke:black;stroke-width:0.85px;"/>
            <path id="path11024" d="M14,345.36L14.2,345.25" style="fill:none;fill-rule:nonzero;stroke:black;stroke-width:0.85px;"/>
            <path id="path11026" d="M14.2,345.25L14.32,345.07" style="fill:none;fill-rule:nonzero;stroke:black;stroke-width:0.85px;"/>
            <path id="path11028" d="M14.32,345.07L14.32,344.74" style="fill:none;fill-rule:nonzero;stroke:black;stroke-width:0.85px;"/>
            <path id="path11030" d="M14.32,344.74L14.22,344.54" style="fill:none;fill-rule:nonzero;stroke:black;stroke-width:0.85px;"/>
            <path id="path11032" d="M14.22,344.54L14.06,344.4" style="fill:none;fill-rule:nonzero;stroke:black;stroke-width:0.85px;"/>
            <path id="path11034" d="M14.06,344.4L13.68,344.3" style="fill:none;fill-rule:nonzero;stroke:black;stroke-width:0.85px;"/>
            <path id="path11036" d="M13.68,344.3L13.45,344.35" style="fill:none;fill-rule:nonzero;stroke:black;stroke-width:0.85px;"/>
            <path id="path11038" d="M13.45,344.35L13.11,344.55" style="fill:none;fill-rule:nonzero;stroke:black;stroke-width:0.85px;"/>
            <path id="path11040" d="M13.11,344.55L12.74,345.01" style="fill:none;fill-rule:nonzero;stroke:black;stroke-width:0.85px;"/>
            <path id="path11042" d="M12.74,345.01L12.57,345.47" style="fill:none;fill-rule:nonzero;stroke:black;stroke-width:0.85px;"/>
            <path id="path11044" d="M12.57,345.47L12.52,346.08" style="fill:none;fill-rule:nonzero;stroke:black;stroke-width:0.85px;"/>
            <path id="path11046" d="M12.52,346.08L12.66,347.51" style="fill:none;fill-rule:nonzero;stroke:black;stroke-width:0.85px;"/>
            <path id="path11048" d="M12.66,347.51L12.91,348.48" style="fill:none;fill-rule:nonzero;stroke:black;stroke-width:0.85px;"/>
            <path id="path11050" d="M12.91,348.48L13.16,349.11" style="fill:none;fill-rule:nonzero;stroke:black;stroke-width:0.85px;"/>
            <path id="path11052" d="M13.16,349.11L13.48,349.62" style="fill:none;fill-rule:nonzero;stroke:black;stroke-width:0.85px;"/>
            <path id="path11054" d="M13.48,349.62L13.84,349.97" style="fill:none;fill-rule:nonzero;stroke:black;stroke-width:0.85px;"/>
            <path id="path11056" d="M13.84,349.97L14.45,350.23" style="fill:none;fill-rule:nonzero;stroke:black;stroke-width:0.85px;"/>
            <path id="path11058" d="M14.45,350.23L14.86,350.26" style="fill:none;fill-rule:nonzero;stroke:black;stroke-width:0.85px;"/>
            <path id="path11060" d="M14.86,350.26L15.23,350.18" style="fill:none;fill-rule:nonzero;stroke:black;stroke-width:0.85px;"/>
            <path id="path11062" d="M15.23,350.18L15.52,350.01" style="fill:none;fill-rule:nonzero;stroke:black;stroke-width:0.85px;"/>
            <path id="path11064" d="M15.52,350.01L15.7,349.82" style="fill:none;fill-rule:nonzero;stroke:black;stroke-width:0.85px;"/>
            <path id="path11066" d="M15.7,349.82L15.77,349.62" style="fill:none;fill-rule:nonzero;stroke:black;stroke-width:0.85px;"/>
            <path id="path11068" d="M15.77,349.62L15.76,349.35" style="fill:none;fill-rule:nonzero;stroke:black;stroke-width:0.85px;"/>
            <path id="path11070" d="M15.76,349.35L15.67,349.3" style="fill:none;fill-rule:nonzero;stroke:black;stroke-width:0.85px;"/>
            <path id="path11072" d="M15.67,349.3L15.55,349.33" style="fill:none;fill-rule:nonzero;stroke:black;stroke-width:0.85px;"/>
            <path id="path11074" d="M15.55,349.33L15.3,349.68" style="fill:none;fill-rule:nonzero;stroke:black;stroke-width:0.85px;"/>
            <path id="path11076" d="M15.3,349.68L15.18,350.23" style="fill:none;fill-rule:nonzero;stroke:black;stroke-width:0.85px;"/>
            <path id="path11078" d="M15.18,350.23L15.21,350.81" style="fill:none;fill-rule:nonzero;stroke:black;stroke-width:0.85px;"/>
            <path id="path11080" d="M15.21,350.81L15.43,351.83" style="fill:none;fill-rule:nonzero;stroke:black;stroke-width:0.85px;"/>
            <path id="path11082" d="M15.43,351.83L15.74,352.81" style="fill:none;fill-rule:nonzero;stroke:black;stroke-width:0.85px;"/>
            <path id="path11084" d="M15.74,352.81L16.03,353.52" style="fill:none;fill-rule:nonzero;stroke:black;stroke-width:0.85px;"/>
            <path id="path11086" d="M16.03,353.52L16.39,354.14" style="fill:none;fill-rule:nonzero;stroke:black;stroke-width:0.85px;"/>
            <path id="path11088" d="M16.39,354.14L16.6,354.39" style="fill:none;fill-rule:nonzero;stroke:black;stroke-width:0.85px;"/>
            <path id="path11090" d="M16.6,354.39L17.09,354.74" style="fill:none;fill-rule:nonzero;stroke:black;stroke-width:0.85px;"/>
            <path id="path11092" d="M17.09,354.74L17.62,354.9" style="fill:none;fill-rule:nonzero;stroke:black;stroke-width:0.85px;"/>
            <path id="path11094" d="M17.62,354.9L18.16,354.88" style="fill:none;fill-rule:nonzero;stroke:black;stroke-width:0.85px;"/>
            <path id="path11096" d="M18.16,354.88L18.92,354.59" style="fill:none;fill-rule:nonzero;stroke:black;stroke-width:0.85px;"/>
            <path id="path11098" d="M18.92,354.59L19.46,354.2" style="fill:none;fill-rule:nonzero;stroke:black;stroke-width:0.85px;"/>
            <path id="path11100" d="M19.46,354.2L19.78,353.75" style="fill:none;fill-rule:nonzero;stroke:black;stroke-width:0.85px;"/>
            <path id="path11102" d="M19.78,353.75L19.75,353.54" style="fill:none;fill-rule:nonzero;stroke:black;stroke-width:0.85px;"/>
            <path id="path11104" d="M19.75,353.54L19.66,353.47" style="fill:none;fill-rule:nonzero;stroke:black;stroke-width:0.85px;"/>
            <path id="path11106" d="M19.66,353.47L19.45,353.49" style="fill:none;fill-rule:nonzero;stroke:black;stroke-width:0.85px;"/>
            <path id="path11108" d="M19.45,353.49L19.34,353.75" style="fill:none;fill-rule:nonzero;stroke:black;stroke-width:0.85px;"/>
            <path id="path11110" d="M19.34,353.75L19.38,354.11" style="fill:none;fill-rule:nonzero;stroke:black;stroke-width:0.85px;"/>
            <path id="path11112" d="M19.38,354.11L19.59,354.6" style="fill:none;fill-rule:nonzero;stroke:black;stroke-width:0.85px;"/>
            <path id="path11114" d="M19.59,354.6L19.99,355.23" style="fill:none;fill-rule:nonzero;stroke:black;stroke-width:0.85px;"/>
            <path id="path11116" d="M19.99,355.23L20.34,355.64" style="fill:none;fill-rule:nonzero;stroke:black;stroke-width:0.85px;"/>
            <path id="path11118" d="M20.34,355.64L20.99,356.09" style="fill:none;fill-rule:nonzero;stroke:black;stroke-width:0.85px;"/>
            <path id="path11120" d="M20.99,356.09L21.22,356.17" style="fill:none;fill-rule:nonzero;stroke:black;stroke-width:0.85px;"/>
            <path id="path11122" d="M21.22,356.17L21.72,356.18" style="fill:none;fill-rule:nonzero;stroke:black;stroke-width:0.85px;"/>
            <path id="path11124" d="M21.72,356.18L22.43,355.94" style="fill:none;fill-rule:nonzero;stroke:black;stroke-width:0.85px;"/>
            <path id="path11126" d="M22.43,355.94L22.81,355.68" style="fill:none;fill-rule:nonzero;stroke:black;stroke-width:0.85px;"/>
            <path id="path11128" d="M22.81,355.68L23.08,355.4" style="fill:none;fill-rule:nonzero;stroke:black;stroke-width:0.85px;"/>
            <path id="path11130" d="M23.08,355.4L23.32,355.06" style="fill:none;fill-rule:nonzero;stroke:black;stroke-width:0.85px;"/>
            <path id="path11132" d="M23.32,355.06L23.38,354.84" style="fill:none;fill-rule:nonzero;stroke:black;stroke-width:0.85px;"/>
            <path id="path11134" d="M23.38,354.84L23.3,354.94" style="fill:none;fill-rule:nonzero;stroke:black;stroke-width:0.85px;"/>
            <path id="path11136" d="M23.3,354.94L23.3,355.06" style="fill:none;fill-rule:nonzero;stroke:black;stroke-width:0.85px;"/>
            <path id="path11138" d="M23.3,355.06L23.42,355.31" style="fill:none;fill-rule:nonzero;stroke:black;stroke-width:0.85px;"/>
            <path id="path11140" d="M23.42,355.31L24.31,356.08" style="fill:none;fill-rule:nonzero;stroke:black;stroke-width:0.85px;"/>
            <path id="path11142" d="M24.31,356.08L25.06,356.47" style="fill:none;fill-rule:nonzero;stroke:black;stroke-width:0.85px;"/>
            <path id="path11144" d="M25.06,356.47L26.03,356.64" style="fill:none;fill-rule:nonzero;stroke:black;stroke-width:0.85px;"/>
            <path id="path11146" d="M26.03,356.64L26.73,356.62" style="fill:none;fill-rule:nonzero;stroke:black;stroke-width:0.85px;"/>
            <path id="path11148" d="M26.73,356.62L27.64,356.41" style="fill:none;fill-rule:nonzero;stroke:black;stroke-width:0.85px;"/>
            <path id="path11150" d="M27.64,356.41L28.08,356.2" style="fill:none;fill-rule:nonzero;stroke:black;stroke-width:0.85px;"/>
            <path id="path11152" d="M28.08,356.2L28.22,356.07" style="fill:none;fill-rule:nonzero;stroke:black;stroke-width:0.85px;"/>
            <path id="path11154" d="M28.22,356.07L28.38,355.79" style="fill:none;fill-rule:nonzero;stroke:black;stroke-width:0.85px;"/>
            <path id="path11156" d="M28.38,355.79L28.36,355.49" style="fill:none;fill-rule:nonzero;stroke:black;stroke-width:0.85px;"/>
            <path id="path11158" d="M28.36,355.49L28.28,355.33" style="fill:none;fill-rule:nonzero;stroke:black;stroke-width:0.85px;"/>
            <path id="path11160" d="M28.28,355.33L27.82,354.87" style="fill:none;fill-rule:nonzero;stroke:black;stroke-width:0.85px;"/>
            <path id="path11162" d="M27.82,354.87L26.97,354.44" style="fill:none;fill-rule:nonzero;stroke:black;stroke-width:0.85px;"/>
            <path id="path11164" d="M26.97,354.44L26.62,354.36" style="fill:none;fill-rule:nonzero;stroke:black;stroke-width:0.85px;"/>
            <path id="path11166" d="M26.62,354.36L26.36,354.41" style="fill:none;fill-rule:nonzero;stroke:black;stroke-width:0.85px;"/>
            <path id="path13238" d="M20.66,347.37L20.76,347.48" style="fill:none;fill-rule:nonzero;stroke:black;stroke-width:0.85px;"/>
            <path id="path13240" d="M20.76,347.48L20.91,347.5" style="fill:none;fill-rule:nonzero;stroke:black;stroke-width:0.85px;"/>
            <path id="path13242" d="M20.91,347.5L21.1,347.37" style="fill:none;fill-rule:nonzero;stroke:black;stroke-width:0.85px;"/>
            <path id="path13244" d="M21.1,347.37L21.24,347.15" style="fill:none;fill-rule:nonzero;stroke:black;stroke-width:0.85px;"/>
            <path id="path13246" d="M21.24,347.15L21.25,347.04" style="fill:none;fill-rule:nonzero;stroke:black;stroke-width:0.85px;"/>
            <path id="path13248" d="M21.25,347.04L21.16,346.89" style="fill:none;fill-rule:nonzero;stroke:black;stroke-width:0.85px;"/>
            <path id="path13250" d="M21.16,346.89L20.98,346.82" style="fill:none;fill-rule:nonzero;stroke:black;stroke-width:0.85px;"/>
            <path id="path13252" d="M20.98,346.82L20.83,346.84" style="fill:none;fill-rule:nonzero;stroke:black;stroke-width:0.85px;"/>
            <path id="path13254" d="M20.83,346.84L20.77,346.96" style="fill:none;fill-rule:nonzero;stroke:black;stroke-width:0.85px;"/>
            <path id="path13256" d="M20.77,346.96L20.78,347.04" style="fill:none;fill-rule:nonzero;stroke:black;stroke-width:0.85px;"/>
            <path id="path13258" d="M20.78,347.04L20.9,347.23" style="fill:none;fill-rule:nonzero;stroke:black;stroke-width:0.85px;"/>
            <path id="path13262" d="M25.27,347.4L25.32,347.52" style="fill:none;fill-rule:nonzero;stroke:black;stroke-width:0.85px;"/>
            <path id="path13264" d="M25.32,347.52L25.45,347.59" style="fill:none;fill-rule:nonzero;stroke:black;stroke-width:0.85px;"/>
            <path id="path13266" d="M25.45,347.59L25.58,347.56" style="fill:none;fill-rule:nonzero;stroke:black;stroke-width:0.85px;"/>
            <path id="path13268" d="M25.58,347.56L25.66,347.51" style="fill:none;fill-rule:nonzero;stroke:black;stroke-width:0.85px;"/>
            <path id="path13270" d="M25.66,347.51L25.78,347.39" style="fill:none;fill-rule:nonzero;stroke:black;stroke-width:0.85px;"/>
            <path id="path13272" d="M25.78,347.39L25.8,347.34" style="fill:none;fill-rule:nonzero;stroke:black;stroke-width:0.85px;"/>
            <path id="path13274" d="M25.8,347.34L25.76,347.29" style="fill:none;fill-rule:nonzero;stroke:black;stroke-width:0.85px;"/>
        </g>
        <g transform="matrix(0.75,0,0,-0.75,0.918057,418.706)">
            <path d="M186.281,124.674C187.214,123.927 190.744,124.521 191.954,124.37C192.171,124.343 194.108,124.284 193.536,124.856" style="fill:none;stroke:black;stroke-width:1px;stroke-miterlimit:1.5;"/>
        </g>
        <g transform="matrix(0.75,0,0,-0.75,0.918057,418.706)">
            <path d="M186.752,129.437C186.488,129.816 188.559,129.438 189.034,129.359C190.723,129.077 192.721,128.872 194.388,128.872" style="fill:none;stroke:black;stroke-width:1px;stroke-miterlimit:1.5;"/>
        </g>
        <g transform="matrix(0.75,0,0,-0.75,0.918057,418.706)">
            <path d="M195.278,120.829C194.951,120.927 195.851,121.208 196.092,121.449C196.444,121.802 196.773,122.256 197.065,122.666C198.317,124.418 200.645,125.323 201.568,127.168C201.679,127.391 200.214,128.713 200.107,128.872C199.438,129.877 197.513,133.74 196.092,133.74" style="fill:none;stroke:black;stroke-width:1px;stroke-miterlimit:1.5;"/>
        </g>
        <g transform="matrix(1,0,0,1,-0.0827779,1.66591)">
            <g transform="matrix(0.604406,0,0,-0.567053,30.2832,378.285)">
                <path d="M218.463,347.42C205.917,346.972 201.881,366.2 213.408,370.896C215.127,371.596 217.04,372.085 218.914,371.935C226.059,371.364 231.386,364.619 229.511,357.495C228.796,354.779 226.677,352.295 224.524,350.534C222.676,349.022 220.909,348.266 218.603,347.937C218.4,347.908 216.525,347.66 216.525,347.937" style="fill:none;stroke:black;stroke-width:1.28px;stroke-miterlimit:1.5;"/>
            </g>
            <g transform="matrix(0.75,0,0,-0.75,-1.40468,446.565)">
                <path d="M217.882,372.512C217.175,377.636 219.33,383.094 219.33,388.246C219.33,388.642 219.595,392.713 219.33,392.713" style="fill:none;stroke:black;stroke-width:1px;stroke-miterlimit:1.5;"/>
            </g>
            <g transform="matrix(0.75,0,0,-0.75,-1.40468,446.565)">
                <path d="M210.233,377.267C210.198,377.241 210.668,377.755 210.811,377.857C211.463,378.322 212.079,378.897 212.577,379.519C214.007,381.306 216.488,382.773 218.499,383.779C218.728,383.893 219.915,382.08 220.057,381.909C221.315,380.4 222.611,378.939 224.005,377.545C224.199,377.351 225.052,376.195 225.356,376.195" style="fill:none;stroke:black;stroke-width:1px;stroke-miterlimit:1.5;"/>
            </g>
            <g transform="matrix(0.75,0,0,-0.75,-1.40468,446.565)">
                <path d="M212.96,402.924C213.461,402.473 213.728,401.387 214.136,400.817C215.49,398.92 216.501,396.727 217.876,394.895C218.099,394.598 219.205,392.456 219.746,392.817C221.76,394.16 222.793,398.185 224.317,400.089C224.625,400.475 225.415,401.855 225.979,401.855" style="fill:none;stroke:black;stroke-width:1px;stroke-miterlimit:1.5;"/>
            </g>
            <g transform="matrix(0.604406,0,0,-0.567053,30.2832,378.285)">
                <path d="M213.967,356.616C213.83,356.781 213.979,356.767 214.136,356.767" style="fill:none;stroke:black;stroke-width:1.28px;stroke-miterlimit:1.5;"/>
            </g>
            <g transform="matrix(0.604406,0,0,-0.567053,30.2832,378.285)">
                <path d="M222.018,356.339C222.022,356.343 222.027,356.348 222.031,356.352" style="fill:none;stroke:black;stroke-width:1.28px;stroke-miterlimit:1.5;"/>
            </g>
            <g transform="matrix(0.604406,0,0,-0.567053,30.2832,378.285)">
                <path d="M213.899,363.51C213.921,363.518 214.808,365.304 215.174,365.598C217.948,367.827 223.689,367.07 224.628,363.312" style="fill:none;stroke:black;stroke-width:1.28px;stroke-miterlimit:1.5;"/>
            </g>
            <g transform="matrix(0.604406,0,0,-0.567053,30.2832,378.285)">
                <path d="M208.267,367.13C208.305,367.104 208.095,367.341 208.066,367.38C207.896,367.607 207.688,367.848 207.409,367.949C206.598,368.244 205.694,367.906 205.255,367.175C204.839,366.48 204.775,365.345 205.265,364.667C205.536,364.293 206.326,363.783 206.726,364.282C207.388,365.11 206.092,365.642 205.44,365.324C204.37,364.801 203.837,362.868 203.734,361.779C203.608,360.452 205.404,357.869 206.797,359.46C207.474,360.233 206.16,360.544 205.615,360.466C204.041,360.242 204.058,357.501 204.565,356.441C204.869,355.804 205.457,354.991 206.205,354.876C206.69,354.801 207.618,355.238 207.234,355.872C206.799,356.591 205.543,356.355 205.265,355.653C204.881,354.685 204.993,353.168 205.634,352.335C205.856,352.046 206.143,351.783 206.447,351.583C206.719,351.404 207.024,351.294 207.347,351.251C207.516,351.228 207.773,351.225 207.947,351.254C209.128,351.451 208.327,353.058 207.541,352.677C207.213,352.519 207.284,351.77 207.322,351.496C207.472,350.401 207.828,348.721 208.828,348.077C209.406,347.706 210.2,347.52 210.859,347.773C211.157,347.888 211.912,348.377 211.601,348.792C211.484,348.948 210.766,349.321 210.648,349.001C210.509,348.626 210.827,348.078 210.998,347.776C211.694,346.545 213.107,345.754 214.542,346.201C214.848,346.296 215.281,346.563 215.389,346.889C215.545,347.355 214.954,347.862 214.499,347.732C213.96,347.578 214.96,346.338 215.029,346.257C215.635,345.54 216.522,345.253 217.412,345.609C217.731,345.737 218.074,345.906 218.349,346.113C218.511,346.234 218.612,346.357 218.743,346.507C219.306,347.151 217.662,347.638 218.088,346.871C218.154,346.752 218.311,346.56 218.401,346.47C218.553,346.319 218.712,346.21 218.899,346.103C220.194,345.363 223.18,345.612 223.18,347.644C223.18,348.1 222.253,348.705 221.894,348.301C221.612,347.985 221.996,347.494 222.256,347.321C222.928,346.873 224.038,346.652 224.789,346.981C225.687,347.374 227.419,348.731 226.108,349.715C225.812,349.937 224.725,350.445 224.52,349.833C224.344,349.309 225.48,348.945 225.832,348.87C226.868,348.65 228.239,349.17 228.693,350.192C229.115,351.141 228.184,351.819 227.364,352.065C227.197,352.115 226.357,352.348 226.357,351.933C226.357,351.526 227.084,351.308 227.396,351.241C228.342,351.039 229.572,351.181 230.081,352.127C230.606,353.1 229.697,354.1 228.72,354.209C228.194,354.267 227.539,354.068 227.539,353.465" style="fill:none;stroke:black;stroke-width:1.28px;stroke-miterlimit:1.5;"/>
            </g>
        </g>
        <g transform="matrix(1,0,0,1,-138.346,-1.6186)">
            <g transform="matrix(0.604406,0,0,-0.567053,30.2832,378.285)">
                <path d="M218.463,347.42C205.917,346.972 201.881,366.2 213.408,370.896C215.127,371.596 217.04,372.085 218.914,371.935C226.059,371.364 231.386,364.619 229.511,357.495C228.796,354.779 226.677,352.295 224.524,350.534C222.676,349.022 220.909,348.266 218.603,347.937C218.4,347.908 216.525,347.66 216.525,347.937" style="fill:none;stroke:black;stroke-width:1.28px;stroke-miterlimit:1.5;"/>
            </g>
            <g transform="matrix(0.75,0,0,-0.75,-1.40468,446.565)">
                <path d="M217.882,372.512C217.175,377.636 219.33,383.094 219.33,388.246C219.33,388.642 219.595,392.713 219.33,392.713" style="fill:none;stroke:black;stroke-width:1px;stroke-miterlimit:1.5;"/>
            </g>
            <g transform="matrix(0.75,0,0,-0.75,-1.40468,446.565)">
                <path d="M210.233,377.267C210.198,377.241 210.668,377.755 210.811,377.857C211.463,378.322 212.079,378.897 212.577,379.519C214.007,381.306 216.488,382.773 218.499,383.779C218.728,383.893 219.915,382.08 220.057,381.909C221.315,380.4 222.611,378.939 224.005,377.545C224.199,377.351 225.052,376.195 225.356,376.195" style="fill:none;stroke:black;stroke-width:1px;stroke-miterlimit:1.5;"/>
            </g>
            <g transform="matrix(0.75,0,0,-0.75,-1.40468,446.565)">
                <path d="M212.96,402.924C213.461,402.473 213.728,401.387 214.136,400.817C215.49,398.92 216.501,396.727 217.876,394.895C218.099,394.598 219.205,392.456 219.746,392.817C221.76,394.16 222.793,398.185 224.317,400.089C224.625,400.475 225.415,401.855 225.979,401.855" style="fill:none;stroke:black;stroke-width:1px;stroke-miterlimit:1.5;"/>
            </g>
            <g transform="matrix(0.604406,0,0,-0.567053,30.2832,378.285)">
                <path d="M213.967,356.616C213.83,356.781 213.979,356.767 214.136,356.767" style="fill:none;stroke:black;stroke-width:1.28px;stroke-miterlimit:1.5;"/>
            </g>
            <g transform="matrix(0.604406,0,0,-0.567053,30.2832,378.285)">
                <path d="M222.018,356.339C222.022,356.343 222.027,356.348 222.031,356.352" style="fill:none;stroke:black;stroke-width:1.28px;stroke-miterlimit:1.5;"/>
            </g>
            <g transform="matrix(0.604406,0,0,-0.567053,30.2832,378.285)">
                <path d="M213.899,363.51C213.921,363.518 214.808,365.304 215.174,365.598C217.948,367.827 223.689,367.07 224.628,363.312" style="fill:none;stroke:black;stroke-width:1.28px;stroke-miterlimit:1.5;"/>
            </g>
            <g transform="matrix(0.604406,0,0,-0.567053,30.2832,378.285)">
                <path d="M208.267,367.13C208.305,367.104 208.095,367.341 208.066,367.38C207.896,367.607 207.688,367.848 207.409,367.949C206.598,368.244 205.694,367.906 205.255,367.175C204.839,366.48 204.775,365.345 205.265,364.667C205.536,364.293 206.326,363.783 206.726,364.282C207.388,365.11 206.092,365.642 205.44,365.324C204.37,364.801 203.837,362.868 203.734,361.779C203.608,360.452 205.404,357.869 206.797,359.46C207.474,360.233 206.16,360.544 205.615,360.466C204.041,360.242 204.058,357.501 204.565,356.441C204.869,355.804 205.457,354.991 206.205,354.876C206.69,354.801 207.618,355.238 207.234,355.872C206.799,356.591 205.543,356.355 205.265,355.653C204.881,354.685 204.993,353.168 205.634,352.335C205.856,352.046 206.143,351.783 206.447,351.583C206.719,351.404 207.024,351.294 207.347,351.251C207.516,351.228 207.773,351.225 207.947,351.254C209.128,351.451 208.327,353.058 207.541,352.677C207.213,352.519 207.284,351.77 207.322,351.496C207.472,350.401 207.828,348.721 208.828,348.077C209.406,347.706 210.2,347.52 210.859,347.773C211.157,347.888 211.912,348.377 211.601,348.792C211.484,348.948 210.766,349.321 210.648,349.001C210.509,348.626 210.827,348.078 210.998,347.776C211.694,346.545 213.107,345.754 214.542,346.201C214.848,346.296 215.281,346.563 215.389,346.889C215.545,347.355 214.954,347.862 214.499,347.732C213.96,347.578 214.96,346.338 215.029,346.257C215.635,345.54 216.522,345.253 217.412,345.609C217.731,345.737 218.074,345.906 218.349,346.113C218.511,346.234 218.612,346.357 218.743,346.507C219.306,347.151 217.662,347.638 218.088,346.871C218.154,346.752 218.311,346.56 218.401,346.47C218.553,346.319 218.712,346.21 218.899,346.103C220.194,345.363 223.18,345.612 223.18,347.644C223.18,348.1 222.253,348.705 221.894,348.301C221.612,347.985 221.996,347.494 222.256,347.321C222.928,346.873 224.038,346.652 224.789,346.981C225.687,347.374 227.419,348.731 226.108,349.715C225.812,349.937 224.725,350.445 224.52,349.833C224.344,349.309 225.48,348.945 225.832,348.87C226.868,348.65 228.239,349.17 228.693,350.192C229.115,351.141 228.184,351.819 227.364,352.065C227.197,352.115 226.357,352.348 226.357,351.933C226.357,351.526 227.084,351.308 227.396,351.241C228.342,351.039 229.572,351.181 230.081,352.127C230.606,353.1 229.697,354.1 228.72,354.209C228.194,354.267 227.539,354.068 227.539,353.465" style="fill:none;stroke:black;stroke-width:1.28px;stroke-miterlimit:1.5;"/>
            </g>
        </g>
        <path id="path26388" d="M4.159,228.1L4.159,134.8" style="fill:none;fill-rule:nonzero;stroke:black;stroke-width:0.85px;"/>
        <path id="path26390" d="M4.159,134.8L130.21,134.8" style="fill:none;fill-rule:nonzero;stroke:black;stroke-width:0.85px;"/>
        <path id="path26392" d="M130.21,134.8L130.21,228.1" style="fill:none;fill-rule:nonzero;stroke:black;stroke-width:0.85px;"/>
        <path id="path26394" d="M130.21,228.1L4.159,228.1" style="fill:none;fill-rule:nonzero;stroke:black;stroke-width:0.85px;"/>
        <path id="path26398" d="M144.25,226.75L144.25,116.63" style="fill:none;fill-rule:nonzero;stroke:black;stroke-width:0.85px;"/>
        <path id="path26400" d="M144.25,116.63L282.61,116.63" style="fill:none;fill-rule:nonzero;stroke:black;stroke-width:0.85px;"/>
        <path id="path26402" d="M282.61,116.63L282.61,226.75" style="fill:none;fill-rule:nonzero;stroke:black;stroke-width:0.85px;"/>
        <path id="path26404" d="M282.61,226.75L144.25,226.75" style="fill:none;fill-rule:nonzero;stroke:black;stroke-width:0.85px;"/>
        <path id="path26408" d="M137.69,128.05L137.69,39.07" style="fill:none;fill-rule:nonzero;stroke:black;stroke-width:0.85px;"/>
        <path id="path26410" d="M137.69,39.07L5.47,39.07" style="fill:none;fill-rule:nonzero;stroke:black;stroke-width:0.85px;"/>
        <path id="path26412" d="M5.47,39.07L5.47,128.05" style="fill:none;fill-rule:nonzero;stroke:black;stroke-width:0.85px;"/>
        <path id="path26414" d="M5.47,128.05L137.69,128.05" style="fill:none;fill-rule:nonzero;stroke:black;stroke-width:0.85px;"/>
        <path id="path26418" d="M144.34,111.47L144.34,33.02" style="fill:none;fill-rule:nonzero;stroke:black;stroke-width:0.85px;"/>
        <path id="path26420" d="M144.34,33.02L282.93,33.02" style="fill:none;fill-rule:nonzero;stroke:black;stroke-width:0.85px;"/>
        <path id="path26422" d="M282.93,33.02L282.93,111.47" style="fill:none;fill-rule:nonzero;stroke:black;stroke-width:0.85px;"/>
        <path id="path26424" d="M282.93,111.47L144.34,111.47" style="fill:none;fill-rule:nonzero;stroke:black;stroke-width:0.85px;"/>
        <g transform="matrix(0.829528,0,0,-0.854665,0.0295371,504.173)">
            <text x="13.02px" y="140.109px" style="font-family:'ComicRelief', 'Comic Relief', cursive;font-size:12px;"><tspan xmlns:ns0="http://sodipodi.sourceforge.net/DTD/sodipodi-0.dtd" ns0:role="line">Almost everything I spend time on day to day is</tspan></text>
            <text x="13.02px" y="158.109px" style="font-family:'ComicRelief', 'Comic Relief', cursive;font-size:12px;"><tspan xmlns:ns0="http://sodipodi.sourceforge.net/DTD/sodipodi-0.dtd" ns0:role="line">something I've learned on the job.</tspan></text>
        </g>
        <g transform="matrix(0.829528,0,0,-0.854665,-4.71461,361.034)">
            <text x="13.02px" y="140.109px" style="font-family:'ComicRelief', 'Comic Relief', cursive;font-size:12px;"><tspan xmlns:ns0="http://sodipodi.sourceforge.net/DTD/sodipodi-0.dtd" ns0:role="line">Debugging is one way to learn at work. Here are more ways!</tspan></text>
        </g>
        <g transform="matrix(0.829528,0,0,-0.854665,156.359,331.135)">
            <text x="14.571px" y="140.109px" style="font-family:'ComicRelief', 'Comic Relief', cursive;font-size:12px;"><tspan xmlns:ns0="http://sodipodi.sourceforge.net/DTD/sodipodi-0.dtd" ns0:role="line">volunteer to do work</tspan></text>
            <text x="26.46px" y="158.109px" style="font-family:'ComicRelief', 'Comic Relief', cursive;font-size:12px;"><tspan xmlns:ns0="http://sodipodi.sourceforge.net/DTD/sodipodi-0.dtd" ns0:role="line">that seems hard</tspan></text>
        </g>
        <g transform="matrix(0.829528,0,0,-0.854665,157,218.53)">
            <text x="21.066px" y="140.109px" style="font-family:'ComicRelief', 'Comic Relief', cursive;font-size:12px;"><tspan xmlns:ns0="http://sodipodi.sourceforge.net/DTD/sodipodi-0.dtd" ns0:role="line">watch more senior</tspan></text>
            <text x="30.957px" y="158.109px" style="font-family:'ComicRelief', 'Comic Relief', cursive;font-size:12px;"><tspan xmlns:ns0="http://sodipodi.sourceforge.net/DTD/sodipodi-0.dtd" ns0:role="line">people operate</tspan></text>
        </g>
        <g transform="matrix(0.829528,0,0,-0.854665,11.9214,233.517)">
            <text x="27.33px" y="140.109px" style="font-family:'ComicRelief', 'Comic Relief', cursive;font-size:12px;"><tspan xmlns:ns0="http://sodipodi.sourceforge.net/DTD/sodipodi-0.dtd" ns0:role="line">pay attention to</tspan></text>
            <text x="36.546px" y="158.109px" style="font-family:'ComicRelief', 'Comic Relief', cursive;font-size:12px;"><tspan xmlns:ns0="http://sodipodi.sourceforge.net/DTD/sodipodi-0.dtd" ns0:role="line">others' code</tspan></text>
        </g>
        <g transform="matrix(0.829528,0,0,-0.854665,27.2143,141.286)">
            <text x="13.02px" y="140.109px" style="font-family:'ComicRelief', 'Comic Relief', cursive;font-size:12px;"><tspan xmlns:ns0="http://sodipodi.sourceforge.net/DTD/sodipodi-0.dtd" ns0:role="line">advocate for using something at work just</tspan></text>
            <text x="13.02px" y="158.109px" style="font-family:'ComicRelief', 'Comic Relief', cursive;font-size:12px;"><tspan xmlns:ns0="http://sodipodi.sourceforge.net/DTD/sodipodi-0.dtd" ns0:role="line">because I want to learn something</tspan></text>
        </g>
        <g transform="matrix(0.829528,0,0,-0.854665,-4.71052,141.775)">
            <text x="13.02px" y="140.109px" style="font-family:'ComicRelief', 'Comic Relief', cursive;font-size:12px;"><tspan xmlns:ns0="http://sodipodi.sourceforge.net/DTD/sodipodi-0.dtd" ns0:role="line">don't:</tspan></text>
        </g>
        <g transform="matrix(0.75,0,0,-0.75,0,432)">
            <path d="M9.014,550.301C8.88,550.44 11.044,550.267 11.552,550.237C13.776,550.107 15.999,550.207 18.226,550.114C25.01,549.831 32.033,549.619 38.743,549.619" style="fill:none;stroke:black;stroke-width:1px;stroke-miterlimit:1.5;"/>
        </g>
        <g transform="matrix(0.75,0,0,-0.75,0,432)">
            <path d="M8.226,552.908C8.217,552.946 11.885,552.833 12.17,552.833C14.402,552.833 16.617,552.811 18.844,552.709C25.667,552.399 33.044,552.339 39.732,552.339" style="fill:none;stroke:black;stroke-width:1px;stroke-miterlimit:1.5;"/>
        </g>
        <g transform="matrix(0.829528,0,0,-0.854665,8.27599,331.734)">
            <text x="17.757px" y="140.109px" style="font-family:'ComicRelief', 'Comic Relief', cursive;font-size:12px;"><tspan xmlns:ns0="http://sodipodi.sourceforge.net/DTD/sodipodi-0.dtd" ns0:role="line">follow up on bugs I</tspan></text>
            <text x="18.431px" y="158.109px" style="font-family:'ComicRelief', 'Comic Relief', cursive;font-size:12px;"><tspan xmlns:ns0="http://sodipodi.sourceforge.net/DTD/sodipodi-0.dtd" ns0:role="line">couldn't &#64257;gure out</tspan></text>
        </g>
        <g transform="matrix(0.699634,0,0,-0.720835,41.0658,277.563)">
            <text x="22.693px" y="140.109px" style="font-family:'ComicRelief', 'Comic Relief', cursive;font-size:12px;"><tspan xmlns:ns0="http://sodipodi.sourceforge.net/DTD/sodipodi-0.dtd" ns0:role="line">ooh someone</tspan></text>
            <text x="14.988px" y="158.109px" style="font-family:'ComicRelief', 'Comic Relief', cursive;font-size:12px;"><tspan xmlns:ns0="http://sodipodi.sourceforge.net/DTD/sodipodi-0.dtd" ns0:role="line">else &#64257;xed that,</tspan></text>
            <text x="21.055px" y="176.109px" style="font-family:'ComicRelief', 'Comic Relief', cursive;font-size:12px;"><tspan xmlns:ns0="http://sodipodi.sourceforge.net/DTD/sodipodi-0.dtd" ns0:role="line">let's see how</tspan></text>
        </g>
        <g transform="matrix(0.699634,0,0,-0.720835,38.1484,179.867)">
            <text x="18.749px" y="140.109px" style="font-family:'ComicRelief', 'Comic Relief', cursive;font-size:12px;"><tspan xmlns:ns0="http://sodipodi.sourceforge.net/DTD/sodipodi-0.dtd" ns0:role="line">cool, this one has</tspan></text>
            <text x="17.987px" y="158.109px" style="font-family:'ComicRelief', 'Comic Relief', cursive;font-size:12px;"><tspan xmlns:ns0="http://sodipodi.sourceforge.net/DTD/sodipodi-0.dtd" ns0:role="line">some great ideas!</tspan></text>
        </g>
        <g transform="matrix(0.699634,0,0,-0.720835,164,237.921)">
            <text x="36.311px" y="140.109px" style="font-family:'ComicRelief', 'Comic Relief', cursive;font-size:12px;"><tspan xmlns:ns0="http://sodipodi.sourceforge.net/DTD/sodipodi-0.dtd" ns0:role="line">I'm not always 100%</tspan></text>
            <text x="18.95px" y="158.109px" style="font-family:'ComicRelief', 'Comic Relief', cursive;font-size:12px;"><tspan xmlns:ns0="http://sodipodi.sourceforge.net/DTD/sodipodi-0.dtd" ns0:role="line">sure, but it's worth trying!</tspan></text>
        </g>
        <g transform="matrix(0.699634,0,0,-0.720835,179.238,164.832)">
            <text x="20.648px" y="140.109px" style="font-family:'ComicRelief', 'Comic Relief', cursive;font-size:12px;"><tspan xmlns:ns0="http://sodipodi.sourceforge.net/DTD/sodipodi-0.dtd" ns0:role="line">THAT's how you</tspan></text>
            <text x="14.322px" y="158.109px" style="font-family:'ComicRelief', 'Comic Relief', cursive;font-size:12px;"><tspan xmlns:ns0="http://sodipodi.sourceforge.net/DTD/sodipodi-0.dtd" ns0:role="line">do that cool thing!!</tspan></text>
        </g>
        <g transform="matrix(0.701789,0,0,-0.723055,180.419,276.355)">
            <text x="19.594px" y="140.109px" style="font-family:'ComicRelief', 'Comic Relief', cursive;font-size:12px;"><tspan xmlns:ns0="http://sodipodi.sourceforge.net/DTD/sodipodi-0.dtd" ns0:role="line">I'm sure &#160; I'll</tspan></text>
            <text x="24.516px" y="158.109px" style="font-family:'ComicRelief', 'Comic Relief', cursive;font-size:12px;"><tspan xmlns:ns0="http://sodipodi.sourceforge.net/DTD/sodipodi-0.dtd" ns0:role="line">&#64257;gure it out</tspan></text>
        </g>
        <g transform="matrix(0.75,0,0,-0.75,0,432)">
            <path d="M304.135,334.574C304.069,334.691 304.404,334.562 304.538,334.553C304.888,334.528 305.236,334.506 305.586,334.478C306.567,334.399 307.576,334.49 308.545,334.328" style="fill:none;stroke:black;stroke-width:1px;stroke-miterlimit:1.5;"/>
        </g>
        <g transform="matrix(0.75,0,0,-0.75,0,432)">
            <path d="M305.943,332.546C306.04,332.461 305.974,332.809 306.038,332.921C306.216,333.234 306.184,333.607 306.223,333.954C306.299,334.636 306.304,335.292 306.335,335.976C306.347,336.239 306.284,336.711 306.485,336.912" style="fill:none;stroke:black;stroke-width:1px;stroke-miterlimit:1.5;"/>
        </g>
        <g transform="matrix(0.75,0,0,-0.75,0,432)">
            <path d="M304.965,336.492C304.867,336.543 305.097,336.316 305.174,336.238C305.632,335.781 305.64,335.827 306.073,335.377C306.772,334.651 307.436,333.895 308.133,333.167C308.308,332.985 308.807,332.576 308.807,332.268" style="fill:none;stroke:black;stroke-width:1px;stroke-miterlimit:1.5;"/>
        </g>
        <g transform="matrix(0.75,0,0,-0.75,0,432)">
            <path d="M304.83,333.023C304.899,332.964 304.985,333.119 305.062,333.167C305.539,333.465 305.518,333.434 305.961,333.766C307.091,334.614 307.974,335.724 309.032,336.65" style="fill:none;stroke:black;stroke-width:1px;stroke-miterlimit:1.5;"/>
        </g>
        <g transform="matrix(0.75,0,0,-0.75,0,432)">
            <path d="M257.79,324.372C257.845,324.024 254.007,325.772 253.737,325.997C251.66,327.728 248.201,332.519 249.954,335.383C250.502,336.277 251.641,336.82 252.616,337.064C253.116,337.189 254.646,337.041 254.157,337.204C249.921,338.615 247.563,344.383 247.713,348.55C247.811,351.273 249.788,353.994 251.916,355.554C252.5,355.983 254.418,356.095 254.717,356.395C255.16,356.838 254.061,357.477 253.877,358.076C253.488,359.34 253.341,360.674 253.457,361.998C253.785,365.771 256.507,369.271 259.543,371.372C261.396,372.655 263.98,373.56 266.204,372.645C266.819,372.391 269.99,369.472 270.547,369.843C273.798,372.011 275.256,374.285 279.652,373.625C281.359,373.369 282.912,372.712 284.275,371.664C284.411,371.559 286.584,369.281 286.796,369.423C287.531,369.913 287.905,371.028 288.477,371.664C290.185,373.561 294.098,374.181 296.462,373.625C298.103,373.239 299.461,372.205 300.524,370.964C300.674,370.789 301.282,370.131 301.645,370.403C305.629,373.391 308.406,375.218 313.552,372.645C314.632,372.104 314.965,370.747 315.933,370.263C316.514,369.973 318.727,371.577 319.295,371.804C321.163,372.551 323.879,373.145 325.879,372.645C328.25,372.052 328.886,370.339 330.362,368.862C331.04,368.184 334.968,368.972 335.965,368.722C338.91,367.986 341.743,365.549 341.148,362.278C341.087,361.939 340.448,361.052 340.448,360.738C340.448,360.568 342.601,360.164 342.829,360.037C344.355,359.189 345.211,357.703 345.771,356.115C347.228,351.986 346.337,351.083 344.65,347.71C344.108,346.626 345.817,344.921 346.051,343.928C346.476,342.123 346.425,340.378 345.491,338.745C344.357,336.76 342.43,337.225 341.148,335.943C340.806,335.6 340.785,334.464 340.448,333.982C339.378,332.453 337.986,331.159 336.386,330.199C335.061,329.405 333.854,328.877 332.323,328.659C331.765,328.579 331.275,329.243 330.782,329.079C328.191,328.215 326.339,325.687 323.218,325.297C320.687,324.98 318.241,326.207 315.793,325.857C313.142,325.478 311.254,322.974 308.369,322.635C305.421,322.288 303.64,324.157 300.945,324.456C297.599,324.828 294.328,321.591 290.859,321.374C287.561,321.168 286.095,323.242 283.294,324.176C283.013,324.27 281.799,323.179 281.613,323.055C280.394,322.242 279.164,321.768 277.691,321.654C275.767,321.506 273.821,322.48 272.228,323.476C271.498,323.932 270.547,325.437 270.547,325.437C270.547,325.437 269.574,324.6 269.006,324.316C267.955,323.79 266.891,323.311 265.784,322.915C262.662,321.8 259.422,321.825 257.239,324.736" style="fill:none;stroke:black;stroke-width:1px;stroke-miterlimit:1.5;"/>
        </g>
        <g transform="matrix(0.75,0,0,-0.75,0,432)">
            <path d="M228.031,327.681C228.43,327.663 228.733,326.861 229.502,327.118C231.464,327.772 229.407,329.931 228.382,330.059C226.089,330.346 226.684,327.896 228.242,327.118" style="fill:none;stroke:black;stroke-width:1px;stroke-miterlimit:1.5;"/>
        </g>
        <g transform="matrix(0.75,0,0,-0.75,0,432)">
            <path d="M234.777,323.443C235.237,323.756 235.893,322.764 236.391,323.013C236.745,323.19 236.994,323.623 237.207,323.896C239.128,326.366 231.903,326.082 234.405,324.176C234.919,323.785 234.833,323.844 235.386,323.476" style="fill:none;stroke:black;stroke-width:1px;stroke-miterlimit:1.5;"/>
        </g>
        <g transform="matrix(0.75,0,0,-0.75,0,432)">
            <path d="M244.294,323.61C244.414,323.622 245.108,322.819 245.612,322.915C246.845,323.15 248.177,325.646 246.592,326.277C243.539,327.493 242.283,324.642 245.332,323.335" style="fill:none;stroke:black;stroke-width:1px;stroke-miterlimit:1.5;"/>
        </g>
        <g transform="matrix(0.75,0,0,-0.75,0,432)">
            <path d="M242.718,385.252C242.501,385.252 243.153,385.252 243.371,385.252C243.917,385.252 244.367,385.063 244.911,384.972C246.41,384.722 247.371,384.733 248.694,383.851" style="fill:none;stroke:black;stroke-width:1px;stroke-miterlimit:1.5;"/>
        </g>
        <g transform="matrix(0.75,0,0,-0.75,0,432)">
            <path d="M246.172,381.496C246.172,380.844 245.957,382.783 245.892,383.431C245.762,384.734 245.332,386.056 245.332,387.353" style="fill:none;stroke:black;stroke-width:1px;stroke-miterlimit:1.5;"/>
        </g>
        <g transform="matrix(0.75,0,0,-0.75,0,432)">
            <path d="M243.756,387.708C244.842,385.399 247.157,383.427 248.974,381.61" style="fill:none;stroke:black;stroke-width:1px;stroke-miterlimit:1.5;"/>
        </g>
        <g transform="matrix(0.75,0,0,-0.75,0,432)">
            <path d="M243.48,382.277C244.751,383.639 247.455,385.414 249.114,387.073" style="fill:none;stroke:black;stroke-width:1px;stroke-miterlimit:1.5;"/>
        </g>
        <g transform="matrix(0.829528,0,0,-0.854665,168.463,449.697)">
            <text x="13.02px" y="140.109px" style="font-family:'ComicRelief', 'Comic Relief', cursive;font-size:12px;"><tspan xmlns:ns0="http://sodipodi.sourceforge.net/DTD/sodipodi-0.dtd" ns0:role="line">read source code</tspan></text>
            <text x="13.02px" y="158.109px" style="font-family:'ComicRelief', 'Comic Relief', cursive;font-size:12px;"><tspan xmlns:ns0="http://sodipodi.sourceforge.net/DTD/sodipodi-0.dtd" ns0:role="line">ask questions</tspan></text>
            <text x="13.02px" y="176.109px" style="font-family:'ComicRelief', 'Comic Relief', cursive;font-size:12px;"><tspan xmlns:ns0="http://sodipodi.sourceforge.net/DTD/sodipodi-0.dtd" ns0:role="line">watch talks</tspan></text>
            <text x="13.02px" y="194.109px" style="font-family:'ComicRelief', 'Comic Relief', cursive;font-size:12px;"><tspan xmlns:ns0="http://sodipodi.sourceforge.net/DTD/sodipodi-0.dtd" ns0:role="line">read docs / blog posts</tspan></text>
            <text x="13.02px" y="212.109px" style="font-family:'ComicRelief', 'Comic Relief', cursive;font-size:12px;"><tspan xmlns:ns0="http://sodipodi.sourceforge.net/DTD/sodipodi-0.dtd" ns0:role="line">do experiments</tspan></text>
        </g>
        <g transform="matrix(0.829528,0,0,-0.854665,151.556,466.069)">
            <text x="13.02px" y="140.109px" style="font-family:'ComicRelief', 'Comic Relief', cursive;font-size:12px;"><tspan xmlns:ns0="http://sodipodi.sourceforge.net/DTD/sodipodi-0.dtd" ns0:role="line">set aside work time to:</tspan></text>
        </g>
        <g transform="matrix(0.623572,0,0,-0.642468,43.9679,425.185)">
            <text x="13.02px" y="140.109px" style="font-family:'ComicRelief', 'Comic Relief', cursive;font-size:12px;"><tspan xmlns:ns0="http://sodipodi.sourceforge.net/DTD/sodipodi-0.dtd" ns0:role="line">hmm I need to</tspan></text>
            <text x="13.02px" y="158.109px" style="font-family:'ComicRelief', 'Comic Relief', cursive;font-size:12px;"><tspan xmlns:ns0="http://sodipodi.sourceforge.net/DTD/sodipodi-0.dtd" ns0:role="line">use Kubernetes at</tspan></text>
            <text x="13.02px" y="176.109px" style="font-family:'ComicRelief', 'Comic Relief', cursive;font-size:12px;"><tspan xmlns:ns0="http://sodipodi.sourceforge.net/DTD/sodipodi-0.dtd" ns0:role="line">work but I don't</tspan></text>
            <text x="13.02px" y="194.109px" style="font-family:'ComicRelief', 'Comic Relief', cursive;font-size:12px;"><tspan xmlns:ns0="http://sodipodi.sourceforge.net/DTD/sodipodi-0.dtd" ns0:role="line">understand it well</tspan></text>
        </g>
        <g transform="matrix(0.75,0,0,-0.75,0,432)">
            <path d="M230.917,131.955C231.926,131.538 234.351,131.549 235.397,131.549" style="fill:none;stroke:black;stroke-width:1px;stroke-miterlimit:1.5;"/>
        </g>
        <g transform="matrix(0.75,0,0,-0.75,0,432)">
            <path d="M229.948,153.254C229.926,153.218 231.149,153.226 231.26,153.21C232.277,153.064 233.44,152.845 234.423,152.845" style="fill:none;stroke:black;stroke-width:1px;stroke-miterlimit:1.5;"/>
        </g>
        <g transform="matrix(0.75,0,0,-0.75,0,432)">
            <path d="M228.913,173.553C229.59,173.139 233.691,173.043 234.423,173.775" style="fill:none;stroke:black;stroke-width:1px;stroke-miterlimit:1.5;"/>
        </g>
        <g transform="matrix(0.75,0,0,-0.75,0.841084,431.819)">
            <path d="M228.605,193.885C228.597,193.873 229.552,193.872 229.678,193.854C230.763,193.699 231.859,193.732 232.963,193.732" style="fill:none;stroke:black;stroke-width:1px;stroke-miterlimit:1.5;"/>
        </g>
        <g transform="matrix(0.75,0,0,-0.75,0.146611,432.699)">
            <path d="M229.963,215.247C229.477,215.523 231.086,215.174 231.625,215.027C232.824,214.7 233.92,214.541 235.154,214.541" style="fill:none;stroke:black;stroke-width:1px;stroke-miterlimit:1.5;"/>
        </g>
        <g transform="matrix(0.75,0,0,-0.75,0.918057,418.706)">
            <path d="M68.45,99.272C68.692,99.151 67.23,99.455 67.093,99.528C66.197,100.005 65.249,100.671 64.461,101.314C62.022,103.302 59.108,106.693 60.042,110.151C60.354,111.305 61.467,112.465 62.393,113.159C62.417,113.177 63.615,113.789 63.615,113.911C63.615,114.307 62.811,114.06 62.487,114.287C61.844,114.737 61.321,115.33 60.888,115.979C59.379,118.243 57.666,121.059 57.666,123.879C57.666,125.419 58.08,126.599 59.29,127.636C59.486,127.804 61.65,128.839 61.64,128.858C61.293,129.553 59.997,130.288 59.478,130.927C57.42,133.46 56.379,135.699 56.282,139.011C56.216,141.263 56.495,143.985 57.88,145.874C58.317,146.469 60.982,147.28 60.982,147.66C60.982,148.512 59.408,150.084 59.102,150.951C57.85,154.5 58.698,158.636 61.17,161.479C62.534,163.048 64.293,164.463 66.435,164.582C67.2,164.624 68.459,163.866 69.067,164.018C69.72,164.181 70.77,165.596 71.417,165.992C73.577,167.311 75.734,168.063 78.28,168.154C79.992,168.215 82.105,168.003 83.463,166.815C83.996,166.348 84.494,165.85 84.861,165.24C84.891,165.19 85.229,164.341 85.425,164.488C86.224,165.087 86.653,166.335 87.493,167.026C90.661,169.635 94.922,170.667 98.962,170.128C100.031,169.986 101.211,169.627 102.158,169.094C103.084,168.573 103.708,167.378 104.885,167.496C106.151,167.623 107.316,168.511 108.457,169C111.221,170.185 115.035,171.146 118.046,170.598C119.446,170.344 120.581,169.757 121.242,168.436C121.514,167.892 121.714,166.556 122.558,166.556C123.311,166.556 124.421,167.794 125.096,168.154C126.78,169.052 128.628,169.564 130.549,169.564C131.691,169.564 133.195,169.174 134.027,168.342C134.65,167.72 134.666,165.893 135.813,166.18C136.344,166.312 136.752,166.866 137.224,167.12C139.519,168.356 143.061,169.248 145.496,167.966C146.667,167.35 147.302,166.442 147.753,165.24C147.887,164.882 147.99,163.511 148.317,163.266C148.94,162.798 150.6,162.959 151.325,162.89C154.056,162.63 157.023,162.301 158.639,159.761C159.684,158.119 160.443,155.739 160.162,153.771C160.035,152.883 158.874,151.5 159.222,150.574C159.796,149.042 162.381,148.131 163.546,147.19C165.687,145.462 167.473,142.018 167.682,139.293C167.845,137.181 167.396,135.338 166.272,133.559C165.751,132.733 163.828,130.893 163.828,129.893C163.828,129.285 166.312,127.956 166.742,127.354C167.954,125.658 168.789,122.648 168.375,120.577C167.978,118.592 165.581,117.001 163.828,116.355C163.802,116.346 162.413,115.927 162.23,115.885C161.893,115.807 161.196,115.791 161.196,115.791C161.196,115.791 161.895,115.706 162.23,115.603C162.922,115.39 163.539,115.13 164.11,114.663C165.333,113.663 165.601,111.652 164.956,110.245C163.824,107.775 160.882,106.134 158.375,105.45C157.519,105.217 156.622,105.231 155.743,105.168C155.363,105.141 154.615,105.356 154.615,105.356C154.615,105.356 155.461,104.909 155.461,104.51C155.461,103.798 154.61,102.965 154.145,102.536C151.331,99.939 147.925,97.417 143.884,97.753C142.269,97.888 141.211,99.259 139.762,99.622C139.273,99.744 137.833,98.531 137.412,98.306C136.144,97.629 134.696,97.33 133.275,97.178C130.463,96.876 127.553,96.922 124.908,98.024C123.619,98.561 122.667,99.691 121.43,100.186C120.821,100.429 120.233,99.513 119.832,99.246C118.652,98.459 117.184,97.901 115.79,97.648C113.149,97.167 109.897,97.242 107.329,98.024C105.934,98.448 104.721,99.663 103.38,99.998C102.575,100.199 101.111,98.571 100.524,98.152C99.226,97.225 97.022,96.969 95.484,96.895C93.474,96.8 91.444,96.855 89.561,97.648C88.215,98.214 87.105,99.742 85.707,100.092C85.012,100.266 84.847,99.096 84.485,98.682C83.788,97.885 82.621,97.359 81.57,97.272C78.853,97.045 77.437,98.821 75.272,99.904C75.096,99.992 74.758,99.441 74.708,99.34C74.256,98.437 73.709,97.731 72.734,97.366C70.634,96.578 69.543,98.585 68.033,99.34" style="fill:none;stroke:black;stroke-width:1px;stroke-miterlimit:1.5;"/>
        </g>
        <g transform="matrix(0.75,0,0,-0.75,0.918057,418.706)">
            <path d="M42.427,119.296C44.247,117.931 45.137,120.884 43.685,121.714C41.334,123.057 40.397,119.973 42.557,118.894" style="fill:none;stroke:black;stroke-width:1px;stroke-miterlimit:1.5;"/>
        </g>
        <g transform="matrix(0.75,0,0,-0.75,0.918057,418.706)">
            <path d="M47.143,115.839C47.258,116.099 47.56,115.433 47.821,115.321C48.38,115.082 49.266,115.264 49.513,115.885C50.504,118.373 44.918,118.624 46.223,116.449C46.43,116.104 46.784,115.795 47.069,115.509" style="fill:none;stroke:black;stroke-width:1px;stroke-miterlimit:1.5;"/>
        </g>
        <g transform="matrix(0.75,0,0,-0.75,0.918057,418.706)">
            <path d="M53.606,115.603C53.751,115.603 54.292,114.894 54.872,115.133C56.741,115.905 55.42,118.263 54.026,118.612C52.929,118.886 51.496,117.839 52.052,116.543C52.309,115.944 53.29,115.501 53.838,115.227" style="fill:none;stroke:black;stroke-width:1px;stroke-miterlimit:1.5;"/>
        </g>
        <g transform="matrix(0.75,0,0,-0.75,0,432)">
            <path d="M73.133,328.294C73.215,328.292 72.321,327.791 71.816,327.883C70.805,328.067 69.654,328.853 68.813,329.384C66.195,331.038 63.132,333.79 62.832,337.085C62.676,338.81 63.059,340.004 64.583,340.984C65.177,341.366 66.63,342.236 66.63,341.53C66.63,340.211 63.232,343.018 63.218,343.031C61.105,345.004 58.734,348.414 58.462,351.411C58.294,353.258 58.856,354.72 60.08,356.132C60.8,356.963 62.945,357.769 62.945,357.769C62.945,357.769 61.893,358.37 61.581,358.861C60.905,359.922 60.468,361.471 60.216,362.682C59.318,366.992 59.301,372.265 62.472,375.753C64.042,377.48 66.25,378.475 68.527,378.76C69.398,378.869 69.916,378.446 70.588,377.966C70.773,377.834 71.061,377.341 71.133,377.557C72.559,381.834 74.873,384.943 79.993,385.308C82.744,385.505 85.189,384.966 87.656,383.732C88.154,383.483 89.941,381.217 90.375,381.651C90.927,382.203 91.258,383.221 91.74,383.835C94.389,387.207 98.52,388.302 102.657,387.383C104.205,387.039 105.837,386.355 107.161,385.472C107.681,385.125 108.613,383.788 109.344,383.971C110.287,384.207 110.858,385.363 111.664,385.882C113.244,386.897 115.52,387.706 117.396,387.929C119.692,388.201 122.332,387.879 124.219,386.427C125.023,385.809 125.713,384.427 126.812,384.244C127.479,384.133 128.134,384.827 128.722,385.063C130.521,385.782 132.527,386.098 134.454,386.018C136.851,385.918 139.78,385.447 141.687,383.835C142.656,383.014 142.726,381.567 143.461,380.832C143.944,380.349 145.692,380.718 146.326,380.559C149.144,379.855 151.193,378.354 152.74,375.919C153.859,374.159 153.696,372.343 153.696,370.324C153.696,369.281 153.709,369.369 153.423,368.414C153.34,368.138 152.892,367.724 153.15,367.595C157.169,365.586 158.157,358.913 156.152,354.904C155.664,353.927 153.781,352.923 153.559,352.038C153.386,351.346 154.678,350.083 154.924,349.445C155.668,347.51 155.549,345.369 154.924,343.44C154.389,341.788 153.051,340.525 151.512,339.756C151.049,339.524 148.935,339.37 148.646,338.937C148.566,338.817 149.224,336.754 149.192,336.344C149.062,334.647 148.179,332.908 147.145,331.568C144.977,328.755 141.237,327.996 137.866,328.156C137.064,328.194 135.542,328.769 134.727,328.566C134.319,328.464 133.071,326.098 132.407,325.7C130.222,324.389 127.56,323.75 125.038,323.653C122.508,323.555 120.561,323.739 118.214,324.744C117.083,325.229 114.867,327.323 113.574,327.064C112.403,326.83 111.044,325.64 109.89,325.154C105.466,323.291 100.899,322.251 96.243,324.062C94.547,324.722 94.007,326.681 92.695,327.337C92.555,327.407 89.15,324.901 88.601,324.744C83.592,323.313 77.827,324.464 74.136,328.156" style="fill:none;stroke:black;stroke-width:1px;stroke-miterlimit:1.5;"/>
        </g>
        <g transform="matrix(0.75,0,0,-0.75,0,432)">
            <path d="M43.58,333.037C43.464,333.326 43.954,332.485 44.249,332.387C44.769,332.213 45.353,332.107 45.85,332.405C46.796,332.973 47.145,335.016 46.296,335.798C43.902,338.007 41.789,334.847 43.84,332.796" style="fill:none;stroke:black;stroke-width:1px;stroke-miterlimit:1.5;"/>
        </g>
        <g transform="matrix(0.75,0,0,-0.75,0,432)">
            <path d="M51.764,328.511C51.675,329.073 52.566,327.342 53.12,327.474C54.139,327.717 54.587,329.729 54.252,330.565C53.482,332.491 49.658,331.793 50.39,329.384C50.632,328.591 51.42,327.961 52.028,327.474" style="fill:none;stroke:black;stroke-width:1px;stroke-miterlimit:1.5;"/>
        </g>
        <g transform="matrix(0.75,0,0,-0.75,0,432)">
            <path d="M58.881,329.017C58.522,328.516 60.239,329.367 60.489,329.93C61.188,331.503 59.522,333.53 57.76,332.523C55.898,331.459 58.183,329.482 58.988,328.838" style="fill:none;stroke:black;stroke-width:1px;stroke-miterlimit:1.5;"/>
        </g>
        <g transform="matrix(0.75,0,0,-0.75,0,432)">
            <path d="M28.086,459.257C27.613,459.536 26.047,458.933 25.268,459.287C21.337,461.074 18.977,465.349 18.234,469.435C16.537,478.772 28.365,483.862 35.301,478.66C39.559,475.466 40.267,466.97 37.837,462.516C36.188,459.491 30.39,457.418 27.344,458.941" style="fill:none;stroke:black;stroke-width:1px;stroke-miterlimit:1.5;"/>
        </g>
        <g transform="matrix(0.75,0,0,-0.75,0,432)">
            <path d="M28.101,480.452C28.126,480.478 27.914,482.014 27.921,482.119C28.009,483.453 28.315,484.71 28.382,486.04C28.665,491.706 28.267,497.34 28.267,502.991" style="fill:none;stroke:black;stroke-width:1px;stroke-miterlimit:1.5;"/>
        </g>
        <g transform="matrix(0.75,0,0,-0.75,0,432)">
            <path d="M17.052,484.076C17.504,484.132 19.778,486.634 20.31,487.078C22.513,488.913 25.288,490.912 26.883,493.305C27.039,493.538 28.571,494.845 28.843,494.573C30.699,492.718 32.173,490.3 34.263,488.461C36.217,486.741 38.547,485.331 40.374,483.503" style="fill:none;stroke:black;stroke-width:1px;stroke-miterlimit:1.5;"/>
        </g>
        <g transform="matrix(0.75,0,0,-0.75,0,432)">
            <path d="M21.232,515.432C21.232,515.878 21.438,514.542 21.694,514.176C22.182,513.479 22.707,512.803 23.193,512.101C24.625,510.032 26.132,507.997 27.459,505.874C28.001,505.008 28.497,502.991 28.497,502.991C28.497,502.991 28.85,503.928 29.074,504.375C29.491,505.209 29.845,506.001 30.342,506.796C31.787,509.108 33.472,511.145 34.955,513.369" style="fill:none;stroke:black;stroke-width:1px;stroke-miterlimit:1.5;"/>
        </g>
        <g transform="matrix(0.75,0,0,-0.75,0,432)">
            <path d="M24.721,465.852C24.598,465.886 24.577,466.079 24.577,466.206" style="fill:none;stroke:black;stroke-width:1px;stroke-miterlimit:1.5;"/>
        </g>
        <g transform="matrix(0.75,0,0,-0.75,0,432)">
            <path d="M31.484,466.771C31.57,466.864 31.967,466.898 31.841,466.898" style="fill:none;stroke:black;stroke-width:1px;stroke-miterlimit:1.5;"/>
        </g>
        <g transform="matrix(0.75,0,0,-0.75,0,432)">
            <path d="M24,472.003C24,471.77 24.139,472.449 24.231,472.664C24.375,473.001 24.616,473.401 24.807,473.701C25.446,474.706 26.504,475.588 27.575,476.123C29.794,477.232 32.533,475.7 32.533,473.24" style="fill:none;stroke:black;stroke-width:1px;stroke-miterlimit:1.5;"/>
        </g>
        <g transform="matrix(0.75,0,0,-0.75,0,432)">
            <path d="M19.564,476.198C19.858,476.418 17.456,477.471 16.62,476.815C15.423,475.876 14.431,472.683 15.143,471.259C15.871,469.802 18.637,470.646 17.773,472.087C17.311,472.858 15.994,472.405 15.582,471.856C14.698,470.677 14.657,468.986 14.798,467.581C14.895,466.608 15.473,464.943 16.62,464.822C17.212,464.76 18.806,465.175 18.119,466.206C17.865,466.588 17.069,466.418 16.851,466.091C16.287,465.246 16.462,462.854 16.691,461.935C17.097,460.315 19.418,459.002 20.886,460.21C21.371,460.608 21.641,461.803 20.886,462.055C18.671,462.793 19.662,458.734 20.627,457.93C21.7,457.035 25.528,457.039 24.461,459.172C24.211,459.671 23.261,459.487 23.193,458.941C23.052,457.812 24.199,455.995 25.268,455.597C26.189,455.255 27.749,455.333 28.382,456.174C28.776,456.697 29.048,458.052 28.267,458.365C27.526,458.661 27.337,457.879 27.459,457.327C27.67,456.378 28.731,455.613 29.65,455.482C31.307,455.245 33.602,456.557 32.533,458.48C32.363,458.786 31.298,459.732 31.034,458.941C30.365,456.933 32.739,456.217 34.216,456.428C35.334,456.588 36.625,458.009 36.108,459.172C36.006,459.4 35.324,460.573 34.839,460.21C34.352,459.844 34.462,458.366 34.955,458.019C36.208,457.137 38.208,457.077 39.221,458.365C40.648,460.179 37.492,461.63 37.492,460.094" style="fill:none;stroke:black;stroke-width:1px;stroke-miterlimit:1.5;"/>
        </g>
        <g transform="matrix(0.75,0,0,-0.75,0,432)">
            <path d="M68.566,458.096C68.279,458.353 67.062,458.377 66.634,458.607C63.837,460.114 61.064,464.091 60.751,467.224C60.621,468.522 61.391,469.44 62.623,469.815C63.171,469.982 63.711,470.184 64.275,470.287C64.507,470.329 65.149,470.12 64.983,470.287C64.07,471.199 62.789,471.554 61.915,472.646C59.808,475.281 58.376,479.797 59.215,483.153C59.599,484.688 60.52,486.765 62.132,487.37C62.726,487.593 63.425,487.741 64.039,487.511C64.203,487.449 64.559,486.956 64.393,487.039C62.916,487.778 62.959,490.365 63.173,491.645C63.849,495.703 68.284,498.612 72.117,499.123C74.671,499.463 76.678,498.298 78.904,497.185C79.149,497.062 81.341,495.205 81.617,495.297C82.121,495.465 83.453,497.287 83.976,497.657C86.34,499.325 89.345,500.121 92.235,499.898C94.585,499.718 96.756,498.922 98.723,497.657C99.189,497.357 100.267,496.08 100.965,496.359C102.196,496.852 103.246,498.642 104.504,499.308C106.409,500.317 108.759,500.563 110.874,500.37C112.407,500.231 114.172,499.604 115.357,498.601C116.08,497.989 116.744,496.831 117.835,496.831C118.661,496.831 119.432,497.978 120.076,498.365C122.427,499.775 124.777,500.649 127.518,500.649C129.596,500.649 131.837,499.609 133.526,498.483C134.107,498.095 135.42,496.341 136.239,496.477C137.242,496.644 138.532,497.993 139.542,498.365C142.901,499.602 146.644,499.564 150.042,498.483C151.642,497.973 152.83,497.117 154.053,496.005C154.603,495.505 155.015,494.633 155.823,494.472C158.214,493.993 161.076,495.33 162.901,492.82C164.925,490.038 163.367,487.001 164.199,484.09C164.48,483.105 165.919,482.428 166.558,481.73C168.199,479.94 168.717,477.158 168.717,474.821C168.717,473.269 168.201,471.582 167.03,470.523C166.509,470.051 164.983,469.378 164.671,468.753C164.426,468.264 165.414,467.006 165.496,466.512C165.784,464.787 164.231,462.547 163.168,461.351C161.7,459.699 159.218,458.871 157.12,458.489C156.696,458.412 153.377,458.758 153.227,458.607C150.271,455.651 146.877,452.91 142.02,454.124C140.246,454.568 139.214,456.082 137.655,456.602C137.229,456.744 135.756,455.487 135.413,455.304C133.636,454.356 131.658,453.492 129.632,453.299C127.845,453.128 126.353,453.725 124.913,454.714C124.32,455.122 123.614,456.189 122.908,456.366C122.356,456.504 121.43,455.643 121.02,455.422C119.534,454.622 117.535,453.744 115.829,453.653C114.122,453.561 112.776,454.556 111.582,455.658C111.369,455.855 110.688,456.979 110.403,457.074C109.545,457.36 108.28,456.316 107.571,456.012C105.67,455.197 103.399,453.784 101.26,454.021C99.793,454.184 98.467,455.457 97.543,456.484C97.152,456.918 96.777,458.195 96.364,457.782C94.479,455.897 92.414,453.314 88.931,454.242C87.478,454.63 86.188,455.805 85.156,456.838C85.022,456.972 83.529,458.82 83.387,458.725C82.037,457.826 81.452,455.933 79.847,455.068C75.927,452.957 72.032,454.862 69.23,457.664" style="fill:none;stroke:black;stroke-width:1px;stroke-miterlimit:1.5;"/>
        </g>
        <g transform="matrix(0.75,0,0,-0.75,0,432)">
            <path d="M44.083,461.414C44.198,461.57 44.277,461.043 44.455,460.967C45.062,460.707 45.492,460.779 45.965,461.185C48.298,463.185 42.253,464.525 43.393,461.675C43.632,461.079 43.75,461.083 44.219,460.731" style="fill:none;stroke:black;stroke-width:1px;stroke-miterlimit:1.5;"/>
        </g>
        <g transform="matrix(0.75,0,0,-0.75,0,432)">
            <path d="M50.94,456.451C50.979,456.805 51.431,455.889 51.769,455.776C52.411,455.562 52.908,455.656 53.303,456.248C55.026,458.832 49.163,459.481 50.708,456.72C50.899,456.378 51.359,456.113 51.652,455.894" style="fill:none;stroke:black;stroke-width:1px;stroke-miterlimit:1.5;"/>
        </g>
        <g transform="matrix(0.75,0,0,-0.75,0,432)">
            <path d="M58.859,456.232C58.582,456.625 58.76,455.022 59.202,454.832C60.02,454.481 60.7,455.148 60.971,455.894C61.604,457.634 59.146,459.302 57.668,458.254C56.416,457.365 58.329,455.563 59.084,455.186" style="fill:none;stroke:black;stroke-width:1px;stroke-miterlimit:1.5;"/>
        </g>
        <g transform="matrix(0.75,0,0,-0.75,0,432)">
            <path d="M216.413,470.285C210.74,470.892 206.715,474.422 206.03,480.59C205.493,485.417 208.12,491.616 213.95,490.887C220.045,490.125 223.975,483.39 222.861,477.818C222.303,475.03 219.454,470.492 216.326,470.492" style="fill:none;stroke:black;stroke-width:1px;stroke-miterlimit:1.5;"/>
        </g>
        <g transform="matrix(0.75,0,0,-0.75,0,432)">
            <path d="M212.787,491.071C212.172,491.417 213.112,494.93 213.158,495.441C213.631,500.648 214.742,506.247 214.742,511.48" style="fill:none;stroke:black;stroke-width:1px;stroke-miterlimit:1.5;"/>
        </g>
        <g transform="matrix(0.75,0,0,-0.75,0,432)">
            <path d="M204.699,494.881C204.668,494.862 205.639,495.326 205.832,495.441C206.668,495.943 207.317,496.715 208.208,497.223C210.394,498.473 212.115,500.464 214.346,501.58C214.751,501.782 215.91,500.016 216.128,499.798C217.741,498.185 219.206,496.323 220.88,494.649" style="fill:none;stroke:black;stroke-width:1px;stroke-miterlimit:1.5;"/>
        </g>
        <g transform="matrix(0.75,0,0,-0.75,0,432)">
            <path d="M206.432,524.94C205.89,525.347 207.022,523.714 207.416,523.163C208.007,522.335 208.705,521.475 209.198,520.589C210.557,518.143 211.887,512.809 214.544,511.48C215.419,511.043 216.092,513.466 216.326,513.856C218.334,517.203 220.11,521.403 222.861,524.153" style="fill:none;stroke:black;stroke-width:1px;stroke-miterlimit:1.5;"/>
        </g>
        <g transform="matrix(0.75,0,0,-0.75,0,432)">
            <path d="M210.633,476.879C210.538,476.781 210.584,476.93 210.584,477.026" style="fill:none;stroke:black;stroke-width:1px;stroke-miterlimit:1.5;"/>
        </g>
        <g transform="matrix(0.75,0,0,-0.75,0,432)">
            <path d="M216.178,476.146C216.096,476.292 216.128,476.201 216.128,476.432" style="fill:none;stroke:black;stroke-width:1px;stroke-miterlimit:1.5;"/>
        </g>
        <g transform="matrix(0.75,0,0,-0.75,0,432)">
            <path d="M210.293,482.899C210.57,483.102 210.391,483.962 210.782,484.353C212.069,485.639 217.316,485.957 217.316,483.363" style="fill:none;stroke:black;stroke-width:1px;stroke-miterlimit:1.5;"/>
        </g>
        <g transform="matrix(0.75,0,0,-0.75,0,432)">
            <path d="M207.57,488.329C207.24,489.895 205.112,489.94 204.33,488.599C203.62,487.38 203.685,484.358 205.535,484.127C206.123,484.053 206.577,485.101 206.286,485.554C205.71,486.449 204.256,485.826 203.81,485.141C203.065,483.998 203.248,481.844 204.147,480.826C204.407,480.532 204.93,480.346 205.31,480.488C205.698,480.634 206.08,481.181 205.774,481.564C205.388,482.046 204.549,481.864 204.11,481.577C203.213,480.989 202.968,480.169 203.022,479.1C203.081,477.92 203.625,476.414 204.86,476.023C205.404,475.851 207.182,476.347 206.924,477.186C206.814,477.545 206.084,477.414 205.873,477.337C205.118,477.058 204.662,476.508 204.71,475.686C204.788,474.357 205.571,472.826 206.586,471.971C207.005,471.619 207.783,471.213 208.322,471.536C209.024,471.957 209.735,473.659 208.425,473.659C207.591,473.659 207.253,472.695 207.296,472.008C207.373,470.772 208.377,469.704 209.288,468.969C210.192,468.239 211.355,468.217 212.252,468.932C212.718,469.303 213.568,470.287 212.702,470.733C211.523,471.34 210.593,470.467 211.389,469.344C212.309,468.047 214.567,467.309 216.089,467.689C216.676,467.836 217.561,468.183 217.88,468.744C218.42,469.691 217.875,470.797 216.717,470.545C215.913,470.37 215.923,469.269 216.378,468.763C217.018,468.052 218.425,467.958 219.29,468.161C219.7,468.258 220.13,468.426 220.466,468.685C220.807,468.947 221.001,469.316 221.158,469.707C221.303,470.07 221.601,470.626 221.483,471.033C221.179,472.072 219.334,471.543 219.719,470.395C219.856,469.987 220.36,469.799 220.732,469.72C221.864,469.478 223.123,469.538 223.964,470.456C224.766,471.331 224.959,473.519 223.572,473.946C222.792,474.186 221.984,473.841 221.333,473.434" style="fill:none;stroke:black;stroke-width:1px;stroke-miterlimit:1.5;"/>
        </g>
        <g transform="matrix(0.75,0,0,-0.75,-3.15116,427.923)">
            <path d="M358.411,484.579C358.953,484.405 357.827,481.822 357.706,481.581C356.223,478.615 354.983,474.569 352.007,472.709C350.062,471.493 347.101,471.095 344.835,471.284C343.48,471.397 341.925,472.558 340.479,472.076C334.488,470.079 331.507,467.23 324.836,469.898C322.675,470.762 320.713,472.344 318.302,472.076C314.824,471.69 311.654,469.609 308.005,470.096C304.915,470.508 303.605,471.922 301.867,473.66C301.585,473.942 300.153,473.155 299.887,473.066C297.26,472.191 295.036,470.335 292.164,470.096C290.666,469.971 287.492,472.103 286.818,471.878C283.307,470.708 280.164,468.984 276.324,469.304C274.729,469.437 272.449,471.086 271.175,471.086C266.427,471.086 262.782,468.588 258.701,472.67C258.196,473.175 256.561,474.913 257.116,475.838C257.344,476.218 258.305,476.432 258.305,476.432C258.305,476.432 255.474,476.034 254.146,476.432C252.143,477.033 250.884,478.589 250.384,480.59C250.016,482.064 249.892,484.12 250.978,485.343C251.197,485.589 253.768,487.098 253.75,487.125C253.128,488.059 251.401,488.682 250.582,489.501C247.693,492.39 245.315,497.433 245.632,501.58C245.826,504.115 248.824,504.455 250.78,504.154C250.858,504.142 253.194,503.202 253.354,503.362C253.579,503.587 253.071,505.928 253.383,506.553C254.497,508.781 258.841,510.954 261.077,511.48C262.824,511.891 264.596,511.828 266.225,511.084C266.488,510.964 269.511,509.222 269.591,509.302C272.474,512.185 275.632,514.775 280.284,514.054C281.952,513.796 283.769,513.071 285.234,512.272C286.014,511.847 286.42,510.093 287.214,510.49C290.718,512.242 293.002,515.051 297.511,514.45C299.083,514.241 301.926,510.223 302.857,510.688C306.733,512.626 308.968,515.534 313.946,513.46C315.436,512.839 316.078,511.313 317.312,510.49C317.978,510.046 321.522,512.299 322.262,512.47C324.334,512.948 329.302,514.074 331.173,512.47C332.015,511.748 332.189,510.068 332.757,509.5C333.073,509.183 334.72,510.767 334.935,510.886C336.489,511.749 338.532,512.097 340.281,512.272C343.246,512.569 343.684,510.432 345.825,509.896C347.961,509.362 350.301,511.432 352.756,510.886C357.727,509.781 355.964,504.073 357.31,501.382C357.853,500.295 360.285,500.186 361.072,499.005C361.663,498.119 361.448,495.453 360.874,494.649C360.712,494.422 358.993,493.164 359.092,493.065C359.682,492.475 361.367,493.003 362.062,492.075C363.308,490.415 361.256,485.976 359.884,484.947C359.11,484.366 357.976,484.623 357.31,483.957" style="fill:none;stroke:black;stroke-width:1px;stroke-miterlimit:1.5;"/>
        </g>
        <g transform="matrix(0.75,0,0,-0.75,0,432)">
            <path d="M228.529,473.937C229.136,473.291 222.984,475.405 225.831,476.828C227.522,477.674 229.917,475.568 228.405,474.056" style="fill:none;stroke:black;stroke-width:1px;stroke-miterlimit:1.5;"/>
        </g>
        <g transform="matrix(0.75,0,0,-0.75,0,432)">
            <path d="M238.07,472.809C238.456,473.42 236.615,472.244 235.929,472.472C235.035,472.77 233.257,474.354 234.345,475.442C236.61,477.707 239.218,473.462 237.711,473.462" style="fill:none;stroke:black;stroke-width:1px;stroke-miterlimit:1.5;"/>
        </g>
        <g transform="matrix(0.75,0,0,-0.75,0,432)">
            <path d="M244.555,478.063C245.029,477.809 238.22,477.732 241.276,480.788C242.915,482.427 246.32,479.647 243.85,478.412" style="fill:none;stroke:black;stroke-width:1px;stroke-miterlimit:1.5;"/>
        </g>
        <g transform="matrix(1.39873,0,0,-1.44111,65.4009,609.665)">
            <text x="13.02px" y="140.112px" style="font-family:'ComicRelief', 'Comic Relief', cursive;font-size:12.003px;"><tspan xmlns:ns0="http://sodipodi.sourceforge.net/DTD/sodipodi-0.dtd" ns0:role="line">learning at work</tspan></text>
        </g>
    </g>
</svg>