<!DOCTYPE svg PUBLIC "-//W3C//DTD SVG 1.1//EN" "http://www.w3.org/Graphics/SVG/1.1/DTD/svg11.dtd">
<svg xmlns="http://www.w3.org/2000/svg" xmlns:xlink="http://www.w3.org/1999/xlink" xmlns:serif="http://www.serif.com/" width="100%" height="100%" viewBox="0 0 384 576" version="1.1" xml:space="preserve" style="fill-rule:evenodd;clip-rule:evenodd;stroke-linecap:round;stroke-linejoin:round;stroke-miterlimit:1.5;">
    <g id="g10" transform="matrix(1.33333,0,0,-1.33333,0,576)">
        <g transform="matrix(0.634646,0,0,-0.653878,42.9128,434.863)">
            <text x="19.855px" y="140.109px" style="font-family:'ComicRelief', 'Comic Relief', cursive;font-size:12px;"><tspan xmlns:ns0="http://sodipodi.sourceforge.net/DTD/sodipodi-0.dtd" ns0:role="line">I'll start</tspan></text>
            <text x="25.876px" y="158.109px" style="font-family:'ComicRelief', 'Comic Relief', cursive;font-size:12px;"><tspan xmlns:ns0="http://sodipodi.sourceforge.net/DTD/sodipodi-0.dtd" ns0:role="line">coding!</tspan></text>
        </g>
        <g transform="matrix(0.634646,0,0,-0.653878,95.3621,431.107)">
            <text x="19.445px" y="140.109px" style="font-family:'ComicRelief', 'Comic Relief', cursive;font-size:12px;"><tspan xmlns:ns0="http://sodipodi.sourceforge.net/DTD/sodipodi-0.dtd" ns0:role="line">2 months</tspan></text>
            <text x="31.36px" y="158.109px" style="font-family:'ComicRelief', 'Comic Relief', cursive;font-size:12px;"><tspan xmlns:ns0="http://sodipodi.sourceforge.net/DTD/sodipodi-0.dtd" ns0:role="line">later</tspan></text>
        </g>
        <g transform="matrix(0.75,0,0,-0.75,5.32764,578.849)">
            <path d="M37.083,300.357C37.083,299.743 34.964,299.791 34.655,299.813C32.444,299.965 29.874,302.189 28.584,303.802C27.429,305.246 26.532,306.95 26.069,308.745C25.521,310.866 25.15,313.698 25.722,315.857C27.167,321.308 33.752,324.022 38.904,323.488C47.67,322.579 49.04,310.723 45.061,304.756C43.788,302.846 39.533,299.198 36.909,300.073" style="fill:none;stroke:black;stroke-width:1px;"/>
        </g>
        <g transform="matrix(0.75,0,0,-0.75,5.32764,578.849)">
            <path d="M35.554,324.133C35.499,324.069 35.522,324.631 35.522,324.702C35.522,325.098 35.658,325.523 35.695,325.916C35.853,327.577 35.869,329.279 35.869,330.946C35.869,336.005 36.129,341.058 36.129,346.123" style="fill:none;stroke:black;stroke-width:1px;"/>
        </g>
        <g transform="matrix(0.75,0,0,-0.75,5.32764,578.849)">
            <path d="M26.069,327.69C26.069,327.575 26.395,327.977 26.416,327.998L28.931,330.513C30.45,332.032 32.187,333.335 33.701,334.849C34.316,335.465 34.924,336.285 35.695,336.67C36.08,336.863 37.892,334.523 38.123,334.329C40.588,332.254 43.053,329.866 45.668,327.998" style="fill:none;stroke:black;stroke-width:1px;"/>
        </g>
        <g transform="matrix(0.75,0,0,-0.75,5.32764,578.849)">
            <path d="M27.763,357.335C28.309,357.007 29.405,354.904 29.798,354.275C31.053,352.267 32.522,350.396 33.874,348.465C34.227,347.961 35.191,345.997 36.042,346.21C36.606,346.351 37.683,347.796 38.037,348.204C39.616,350.027 41.112,351.894 42.546,353.841C43.177,354.697 44.528,356.703 45.755,356.703" style="fill:none;stroke:black;stroke-width:1px;"/>
        </g>
        <g transform="matrix(0.533234,0,0,-0.530677,16.5949,507.266)">
            <path d="M63.794,314.577C63.556,315.053 63.696,316.345 63.696,316.854L63.696,322.317C63.696,330.52 64.682,339.569 73.236,343.044C83.499,347.213 95.501,345.999 106.277,345.125C111.449,344.706 116.622,344.485 121.801,344.171C125.45,343.95 129.116,343.696 132.555,342.35C141.063,339.021 143.965,329.258 146.257,321.363C146.932,319.037 147.549,316.655 147.905,314.252C148.54,309.966 150.203,304.538 149.119,300.203C148.076,296.031 144.694,294.016 140.88,292.744C134.198,290.517 127.21,289.703 120.24,288.929C108.69,287.645 97.058,287.661 85.464,288.061C80.556,288.231 74.54,288.146 70.027,290.403C67.353,291.74 64.69,295.726 64.39,298.728C64.212,300.511 64.414,302.327 64.216,304.105C64.063,305.49 64.656,308.255 64.043,309.482C63.689,310.19 61.996,310.002 61.355,310.002C58.522,310.002 56.09,309.485 53.81,307.661C53.575,307.474 51.259,305.355 50.948,305.666C50.808,305.806 50.996,306.572 51.034,306.707C51.392,307.958 51.978,309.201 52.856,310.176C54.65,312.17 57.62,314.635 60.401,315.032C61.696,315.217 62.881,314.599 63.956,314.599" style="fill:none;stroke:black;stroke-width:1.41px;"/>
        </g>
        <g transform="matrix(0.75,0,0,-0.75,5.32764,578.849)">
            <path d="M31.878,307.755C31.785,307.685 31.929,307.723 32.026,307.723" style="fill:none;stroke:black;stroke-width:1px;"/>
        </g>
        <g transform="matrix(0.75,0,0,-0.75,5.32764,578.849)">
            <path d="M38.908,307.362C38.891,307.346 39.078,307.264 39.078,307.437" style="fill:none;stroke:black;stroke-width:1px;"/>
        </g>
        <g transform="matrix(0.75,0,0,-0.75,5.32764,578.849)">
            <path d="M30.6,314.748C30.12,319.069 40.507,320.616 40.507,315.823" style="fill:none;stroke:black;stroke-width:1px;"/>
        </g>
        <g transform="matrix(0.75,0,0,-0.75,5.32764,578.849)">
            <path d="M25.958,318.06C25.932,318.021 26.102,318.222 25.928,318.396C25.713,318.61 25.273,318.806 24.975,318.872C24.278,319.027 23.192,318.971 22.688,318.396C21.584,317.134 21.289,314.875 22.402,313.536C22.766,313.098 24.186,312.122 24.499,313.059C25.001,314.567 22.788,314.175 22.212,313.727C20.799,312.628 20.721,310.019 21.366,308.471C21.904,307.179 23.35,306.092 24.784,306.103C25.489,306.109 26.528,306.651 26.528,307.471C26.528,308.721 24.547,309.338 23.712,308.504C22.483,307.275 23.22,303.733 24.213,302.482C24.56,302.045 25.025,301.805 25.547,301.625C28.418,300.632 28.587,305.148 26.595,304.579C25.946,304.393 26.041,303.232 26.118,302.768C26.388,301.151 27.499,299.636 28.787,298.671C30.059,297.716 33.103,297.394 33.103,299.767C33.103,300.275 32.11,301.086 31.645,300.862C31.229,300.662 31.725,299.197 31.836,298.957C32.508,297.5 34.267,296.324 35.933,296.765C37.041,297.058 37.863,297.954 37.863,299.103C37.863,299.526 36.604,301.011 36.315,300.576C35.627,299.545 38.655,298.243 39.269,298.194C40.538,298.093 42.518,299.798 41.746,301.148C41.644,301.327 40.414,302.014 40.317,301.625C39.955,300.177 43.074,299.418 44.033,299.719C46.327,300.437 44.538,303.176 42.985,303.435" style="fill:none;stroke:black;stroke-width:1px;"/>
        </g>
        <g transform="matrix(0.75,0,0,-0.75,0,432)">
            <path d="M232.939,101.526C232.626,101.682 229.591,100.797 228.859,100.864C225.722,101.149 222.674,103.979 221.191,106.615C216.652,114.685 226.576,122.161 234.193,119.391C236.968,118.382 239.68,116.745 240.885,113.935C243.753,107.242 239.27,99.992 232.171,99.992" style="fill:none;stroke:black;stroke-width:1px;"/>
        </g>
        <g transform="matrix(0.75,0,0,-0.75,0,432)">
            <path d="M230.167,120.372C230.69,120.437 230.036,121.426 230.079,121.951C230.195,123.344 230.354,124.735 230.428,126.134C230.697,131.247 229.336,138.37 230.951,143.213" style="fill:none;stroke:black;stroke-width:1px;"/>
        </g>
        <g transform="matrix(0.75,0,0,-0.75,0,432)">
            <path d="M219.988,125.764C219.582,126.305 221.194,126.398 221.714,126.831C222.709,127.66 223.69,128.425 224.677,129.271C226.327,130.686 227.767,132.261 229.557,133.454C229.803,133.618 230.384,134.609 230.602,134.499C231.356,134.122 232.041,132.821 232.694,132.234C235.537,129.675 238.527,127.272 241.233,124.566" style="fill:none;stroke:black;stroke-width:1px;"/>
        </g>
        <g transform="matrix(0.75,0,0,-0.75,0,432)">
            <path d="M220.843,159.919C220.843,160.461 221.4,158.99 221.714,158.55C222.556,157.372 223.208,156.102 223.98,154.89C225.854,151.945 227.318,148.663 229.208,145.827C229.654,145.159 230.445,143.205 231.125,142.865C231.519,142.668 233.475,146.02 233.739,146.35C235.59,148.663 238.258,155.699 241.059,156.633" style="fill:none;stroke:black;stroke-width:1px;"/>
        </g>
        <g transform="matrix(0.75,0,0,-0.75,0,432)">
            <path d="M226.833,107.052C226.733,107.184 226.865,107.138 226.942,107.138" style="fill:none;stroke:black;stroke-width:1px;"/>
        </g>
        <g transform="matrix(0.75,0,0,-0.75,0,432)">
            <path d="M232.824,106.913C232.839,106.93 232.853,106.947 232.868,106.964" style="fill:none;stroke:black;stroke-width:1px;"/>
        </g>
        <g transform="matrix(0.75,0,0,-0.75,0,432)">
            <path d="M226.371,115.148C226.665,115.189 226.408,114.516 226.594,114.283C226.9,113.901 227.939,113.312 228.337,113.063C230.235,111.877 233.671,111.881 234.785,114.109" style="fill:none;stroke:black;stroke-width:1px;"/>
        </g>
        <g transform="matrix(0.75,0,0,-0.75,0,432)">
            <path d="M219.182,115.957C216.412,118.31 213.618,114.001 215.963,111.32C216.614,110.576 219.623,109.673 219.623,111.495C219.623,112.447 217.455,113.016 216.834,112.366C215.587,111.061 216.661,106.788 218.054,105.918C219.354,105.105 221.17,107.552 220.32,107.835C217.433,108.797 218.48,103.053 219.623,101.909C220.335,101.197 221.828,100.542 222.777,101.254C223.066,101.471 224.362,102.59 223.631,102.955C221.461,104.04 222.98,99.633 224.154,98.947C225.47,98.178 230.709,98.248 229.857,100.803C229.731,101.181 228.291,101.725 228.162,101.212C227.506,98.587 231.783,97.755 233.391,98.25C234.132,98.478 235.907,99.317 235.308,100.515C235.291,100.549 233.878,101.802 233.739,101.387C232.626,98.046 239.763,97.498 240.885,100.864C241.398,102.405 238.342,101.342 239.665,100.515C239.93,100.349 240.236,100.257 240.536,100.167C241.306,99.936 241.392,99.928 242.105,100.167C245.556,101.322 243.733,104.524 240.71,104.524" style="fill:none;stroke:black;stroke-width:1px;"/>
        </g>
        <path id="path8260" d="M98.96,335.7L98.86,335.67" style="fill:none;fill-rule:nonzero;stroke:black;stroke-width:0.85px;stroke-miterlimit:10;"/>
        <path id="path8262" d="M98.86,335.67L98.97,335.77" style="fill:none;fill-rule:nonzero;stroke:black;stroke-width:0.85px;stroke-miterlimit:10;"/>
        <path id="path8264" d="M98.97,335.77L99.19,335.79" style="fill:none;fill-rule:nonzero;stroke:black;stroke-width:0.85px;stroke-miterlimit:10;"/>
        <path id="path8266" d="M99.19,335.79L99.37,335.57" style="fill:none;fill-rule:nonzero;stroke:black;stroke-width:0.85px;stroke-miterlimit:10;"/>
        <path id="path8268" d="M99.37,335.57L99.37,335.36" style="fill:none;fill-rule:nonzero;stroke:black;stroke-width:0.85px;stroke-miterlimit:10;"/>
        <path id="path8270" d="M99.37,335.36L99.16,335.19" style="fill:none;fill-rule:nonzero;stroke:black;stroke-width:0.85px;stroke-miterlimit:10;"/>
        <path id="path8272" d="M99.16,335.19L98.83,335.25" style="fill:none;fill-rule:nonzero;stroke:black;stroke-width:0.85px;stroke-miterlimit:10;"/>
        <path id="path8274" d="M98.83,335.25L98.81,335.36" style="fill:none;fill-rule:nonzero;stroke:black;stroke-width:0.85px;stroke-miterlimit:10;"/>
        <path id="path8276" d="M98.81,335.36L99.01,335.56" style="fill:none;fill-rule:nonzero;stroke:black;stroke-width:0.85px;stroke-miterlimit:10;"/>
        <path id="path8280" d="M101.44,335.58L101.67,335.61" style="fill:none;fill-rule:nonzero;stroke:black;stroke-width:0.85px;stroke-miterlimit:10;"/>
        <path id="path8282" d="M101.67,335.61L101.77,335.54" style="fill:none;fill-rule:nonzero;stroke:black;stroke-width:0.85px;stroke-miterlimit:10;"/>
        <path id="path8284" d="M101.77,335.54L101.77,335.44" style="fill:none;fill-rule:nonzero;stroke:black;stroke-width:0.85px;stroke-miterlimit:10;"/>
        <path id="path8286" d="M101.77,335.44L101.66,335.38" style="fill:none;fill-rule:nonzero;stroke:black;stroke-width:0.85px;stroke-miterlimit:10;"/>
        <path id="path8288" d="M101.66,335.38L101.76,335.46" style="fill:none;fill-rule:nonzero;stroke:black;stroke-width:0.85px;stroke-miterlimit:10;"/>
        <path id="path8290" d="M101.76,335.46L101.91,335.32" style="fill:none;fill-rule:nonzero;stroke:black;stroke-width:0.85px;stroke-miterlimit:10;"/>
        <path id="path8294" d="M103.84,335.24L104.02,335.44" style="fill:none;fill-rule:nonzero;stroke:black;stroke-width:0.85px;stroke-miterlimit:10;"/>
        <path id="path8296" d="M104.02,335.44L104.32,335.27" style="fill:none;fill-rule:nonzero;stroke:black;stroke-width:0.85px;stroke-miterlimit:10;"/>
        <path id="path8298" d="M104.32,335.27L104.34,335.16" style="fill:none;fill-rule:nonzero;stroke:black;stroke-width:0.85px;stroke-miterlimit:10;"/>
        <path id="path8300" d="M104.34,335.16L104.12,335.04" style="fill:none;fill-rule:nonzero;stroke:black;stroke-width:0.85px;stroke-miterlimit:10;"/>
        <path id="path8302" d="M104.12,335.04L104.23,335.24" style="fill:none;fill-rule:nonzero;stroke:black;stroke-width:0.85px;stroke-miterlimit:10;"/>
        <path id="path8674" d="M147.49,334.14L147.69,334.5" style="fill:none;fill-rule:nonzero;stroke:black;stroke-width:0.85px;stroke-miterlimit:10;"/>
        <path id="path8676" d="M147.69,334.5L147.81,334.61" style="fill:none;fill-rule:nonzero;stroke:black;stroke-width:0.85px;stroke-miterlimit:10;"/>
        <path id="path8678" d="M147.81,334.61L148.04,334.64" style="fill:none;fill-rule:nonzero;stroke:black;stroke-width:0.85px;stroke-miterlimit:10;"/>
        <path id="path8680" d="M148.04,334.64L148.14,334.59" style="fill:none;fill-rule:nonzero;stroke:black;stroke-width:0.85px;stroke-miterlimit:10;"/>
        <path id="path8682" d="M148.14,334.59L147.83,334.46" style="fill:none;fill-rule:nonzero;stroke:black;stroke-width:0.85px;stroke-miterlimit:10;"/>
        <path id="path8686" d="M150.94,334.43L151.31,334.47" style="fill:none;fill-rule:nonzero;stroke:black;stroke-width:0.85px;stroke-miterlimit:10;"/>
        <path id="path8688" d="M151.31,334.47L151.39,334.37" style="fill:none;fill-rule:nonzero;stroke:black;stroke-width:0.85px;stroke-miterlimit:10;"/>
        <path id="path8690" d="M151.39,334.37L151.29,334.3" style="fill:none;fill-rule:nonzero;stroke:black;stroke-width:0.85px;stroke-miterlimit:10;"/>
        <path id="path8694" d="M154.05,334.45L154.39,334.57" style="fill:none;fill-rule:nonzero;stroke:black;stroke-width:0.85px;stroke-miterlimit:10;"/>
        <path id="path8696" d="M154.39,334.57L154.59,334.6" style="fill:none;fill-rule:nonzero;stroke:black;stroke-width:0.85px;stroke-miterlimit:10;"/>
        <path id="path8698" d="M154.59,334.6L154.47,334.54" style="fill:none;fill-rule:nonzero;stroke:black;stroke-width:0.85px;stroke-miterlimit:10;"/>
        <g transform="matrix(0.75,0,0,-0.75,0.998103,441.267)">
            <path d="M18.017,267.518C18.032,267.544 20.298,267.421 20.631,267.394C22.638,267.234 24.647,267.121 26.642,266.921C27.01,266.884 28.235,266.621 28.488,266.874C28.731,267.117 27.941,267.493 27.872,267.536C26.929,268.137 25.981,268.736 25.033,269.335C23.556,270.267 22.068,271.166 20.584,272.08C20.324,272.24 19.613,273.027 19.306,273.027C19.266,273.027 19.352,272.558 19.353,272.553C19.549,271.966 19.745,271.412 19.874,270.802C20.315,268.705 20.846,266.538 21.672,264.555C21.725,264.428 22.31,262.755 22.524,262.898C22.855,263.119 23.209,264.388 23.376,264.744C24.24,266.579 25.311,268.59 25.648,270.613C25.69,270.864 26.234,272.583 26.027,272.79C25.833,272.984 24.509,272.483 24.323,272.411C22.532,271.723 21.432,270.763 20.016,269.524C19.529,269.098 19.042,268.603 18.643,268.104C18.44,267.851 18.345,267.65 18.217,267.394C18.192,267.344 18.018,267.3 18.075,267.3C18.382,267.3 18.951,267.74 19.258,267.868C19.516,267.975 20.063,268.104 20.063,268.104C20.063,268.104 19.022,267.661 19.022,268.01C19.022,268.217 20.379,268.278 20.584,268.483C20.83,268.729 20.773,270.505 20.773,270.849C20.773,271.215 20.631,271.938 20.631,271.938C20.631,271.938 20.904,271.513 21.104,271.37C21.569,271.038 22.031,270.714 22.524,270.424C23.7,269.732 24.806,268.997 25.932,268.246C26.051,268.167 26.926,267.662 26.926,267.536C26.926,267.344 26.546,267.593 26.358,267.631C26.096,267.683 25.82,267.754 25.553,267.773C24.154,267.873 22.786,268.186 21.388,268.341C21.333,268.347 19.921,268.501 19.921,268.436C19.921,268.414 21.142,268.255 21.199,268.246C22.261,268.076 23.279,267.845 24.323,267.584C24.372,267.571 25.213,267.451 25.317,267.347C25.418,267.246 25.032,267.372 24.891,267.394C24.716,267.422 24.544,267.461 24.37,267.489C23.694,267.597 23.008,267.648 22.335,267.773C22.128,267.811 21.924,267.864 21.72,267.915C21.593,267.947 21.211,268.01 21.341,268.01C22.002,268.01 22.671,267.928 23.329,267.868C23.368,267.864 23.932,267.726 24.039,267.915C24.174,268.155 23.633,268.482 23.518,268.578C22.985,269.023 21.857,270.187 21.104,270.187C20.902,270.187 21.416,269.929 21.578,269.808C22.115,269.405 22.739,269.086 23.329,268.767C23.515,268.666 23.709,268.582 23.897,268.483C24.034,268.411 24.433,268.184 24.323,268.294C23.681,268.935 22.594,269.37 21.814,269.808C21.58,269.94 21.344,270.067 21.104,270.187C20.943,270.267 20.54,270.503 20.584,270.329C20.712,269.817 21.391,269.399 21.767,269.098C21.777,269.09 22.35,268.74 22.335,268.53C22.333,268.509 20.525,269.111 20.915,269.051C22.007,268.883 23.056,268.528 24.133,268.294C24.47,268.221 24.901,268.225 25.222,268.104C25.405,268.036 25.852,267.777 25.79,267.962C25.718,268.179 25.058,268.322 24.891,268.388C23.914,268.779 23.573,268.752 22.95,267.773C22.704,267.386 22.714,266.931 22.714,266.495C22.714,266.274 22.923,265.763 22.714,265.832C22.626,265.862 21.967,267.559 21.956,267.536C21.725,267.074 21.933,266.137 21.956,265.643C21.964,265.485 21.993,265.328 22.004,265.17C22.009,265.091 22.059,264.877 22.004,264.933C21.773,265.164 21.704,266.038 21.625,266.353C21.59,266.494 21.559,266.636 21.53,266.779C21.505,266.904 21.412,267.264 21.483,267.158C21.904,266.526 21.961,265.651 22.098,264.933C22.129,264.771 22.076,264.46 22.24,264.46C22.43,264.46 22.271,264.839 22.288,265.028C22.333,265.555 22.302,266.389 22.666,266.826C22.996,267.223 22.771,265.172 22.761,265.075C22.739,264.855 22.662,264.215 22.761,264.413C22.947,264.784 23.707,267.82 23.707,266.164C23.707,266.053 23.707,266.385 23.707,266.495L23.707,267.536C23.707,268.09 23.697,268.642 23.66,269.193C23.647,269.385 23.415,269.886 23.518,270.092C23.659,270.373 24.512,270.577 24.512,270.849C24.512,271.039 24.133,270.849 23.944,270.849C23.843,270.849 22.184,270.714 22.619,271.086C23.158,271.549 23.969,271.572 24.512,271.843C24.857,272.016 24.793,271.632 24.938,271.559C25.103,271.477 25.589,271.618 25.459,271.749C25.355,271.852 25.153,271.496 25.127,271.465C24.908,271.201 24.17,270.293 24.559,269.903C24.684,269.778 24.633,270.248 24.654,270.424C24.675,270.601 25.116,271.841 25.127,271.796C25.235,271.367 24.987,270.843 24.938,270.424C24.913,270.214 24.796,269.598 24.796,269.808" style="fill:none;stroke:black;stroke-width:1px;"/>
        </g>
        <g transform="matrix(0.75,0,0,-0.75,1.72232,450.159)">
            <path d="M17.052,409.799C17.156,409.687 17.978,409.784 18.09,409.784C19.034,409.784 19.966,409.763 20.907,409.72C22.34,409.655 23.894,409.718 25.324,409.848C25.395,409.854 26.413,409.903 26.413,409.976C26.413,410.087 25.431,410.445 25.324,410.488C24.2,410.938 23.292,411.893 22.379,412.665C21.396,413.497 20.442,414.102 19.307,414.713C19.268,414.734 18.17,415.45 18.09,415.289C17.941,414.991 18.605,414.067 18.73,413.817C19.414,412.449 19.888,410.913 20.395,409.464C20.704,408.58 20.897,407.664 21.355,406.839C21.488,406.6 21.716,405.971 21.867,406.199C22.19,406.683 21.981,407.727 22.187,408.311C22.89,410.301 23.432,412.21 23.916,414.265C24.017,414.695 24.097,415.193 24.236,415.61C24.259,415.678 24.685,416.185 24.62,416.25C24.359,416.511 22.949,415.532 22.764,415.418C21.337,414.539 19.685,413.257 18.794,411.832C18.669,411.632 17.234,409.621 17.322,409.592C17.969,409.376 18.779,409.922 19.371,410.04C20.369,410.24 21.431,410.319 22.444,410.424C23.225,410.505 23.18,410.527 23.98,410.616C24.196,410.64 24.815,410.647 24.62,410.744C23.602,411.253 21.337,410.745 20.267,410.616C19.549,410.53 19.619,410.47 18.922,410.424C18.773,410.414 18.325,410.424 18.474,410.424C19.341,410.424 20.236,410.358 21.099,410.424C21.893,410.485 21.845,410.552 22.636,410.552C22.764,410.552 23.148,410.552 23.02,410.552C21.909,410.552 20.801,410.71 19.691,410.744C19.136,410.761 18.58,410.779 18.026,410.744C17.891,410.736 17.51,410.643 17.642,410.616C18.7,410.405 19.963,410.68 21.035,410.68C21.597,410.68 21.55,410.692 22.123,410.744C22.23,410.754 22.444,410.637 22.444,410.744C22.444,410.829 20.837,411.396 20.651,411.768C20.305,412.461 20.93,413.01 20.779,413.689C20.773,413.715 20.557,414.235 20.395,414.073C20.014,413.692 20.539,412.871 20.779,412.601C20.899,412.465 21.264,412.066 21.163,412.217C20.474,413.25 19.247,413.621 18.41,414.457C18.271,414.596 18.71,414.203 18.858,414.073C19.064,413.893 19.273,413.715 19.499,413.561C20.236,413.058 21.022,412.626 21.739,412.089C21.921,411.952 22.07,411.776 22.251,411.64C22.328,411.583 22.575,411.445 22.508,411.512C22.355,411.664 21.666,412.016 21.547,412.089C21.138,412.339 20.73,412.591 20.331,412.857C20.178,412.959 19.801,413.341 19.883,413.177C20.232,412.478 21.558,411.895 22.187,411.512C22.425,411.368 22.654,411.209 22.892,411.064C23.088,410.944 23.532,410.578 23.532,410.808C23.532,411.098 23.075,411.169 22.828,411.32C22.167,411.724 19.957,412.78 19.307,411.832C19.178,411.645 19.279,411.293 19.114,411.128C18.955,410.968 18.749,411.553 19.05,411.768C19.123,411.821 20.075,412.093 20.075,412.025C20.075,411.797 18.205,410.965 18.41,410.936C19.139,410.832 20.257,411.773 20.907,411.448C21.052,411.376 20.715,411.163 20.715,411C20.715,410.613 20.747,410.232 20.779,409.848C20.855,408.941 21.027,409.031 21.419,408.247C21.511,408.064 21.362,407.792 21.547,407.607C21.654,407.5 21.611,407.904 21.611,408.055C21.611,408.471 21.43,409.492 21.867,409.784C22.065,409.916 22.014,408.183 21.739,408.183C21.516,408.183 21.547,409.737 21.547,409.912C21.547,410.357 21.738,410.891 21.547,411.32C21.403,411.646 20.96,411.848 20.907,412.217C20.778,413.117 21.531,413.993 22.123,414.585C22.294,414.756 22.45,414.943 22.636,415.097C22.728,415.175 22.977,415.439 22.892,415.354C22.673,415.135 21.716,413.991 21.867,413.689C21.935,413.553 23.231,414.995 23.34,414.777C23.559,414.338 22.854,413.42 22.7,413.049C22.6,412.809 22.312,412.281 22.572,412.281C22.699,412.281 23.07,414.379 23.34,414.649C23.485,414.794 22.573,412.274 22.508,412.537C22.321,413.282 23.566,413.364 23.724,413.881C23.776,414.05 23.738,414.969 23.532,414.969C23.417,414.969 23.212,414.726 23.212,414.841C23.212,414.914 23.459,415.161 23.532,415.161" style="fill:none;stroke:black;stroke-width:1px;"/>
        </g>
        <g transform="matrix(0.75,0,0,-0.75,-4.32437,443.509)">
            <path d="M24.039,497.613C23.987,497.67 24.193,497.619 24.27,497.619L25.037,497.619C25.782,497.619 26.534,497.593 27.279,497.619C29.054,497.683 30.812,497.796 32.59,497.796C32.811,497.796 34.15,497.627 34.302,497.855C34.429,498.046 33.626,498.499 33.534,498.563C32.384,499.369 31.229,500.191 30.112,501.042C28.799,502.042 27.441,503.13 26.04,503.992C25.858,504.105 25.066,504.759 24.801,504.582C24.523,504.398 25.08,503.459 25.155,503.284C25.818,501.737 26.621,500.256 27.22,498.681C27.686,497.459 28.207,496.209 28.755,495.023C28.799,494.926 29.349,493.688 29.581,493.843C29.821,494.003 29.854,495.146 29.935,495.436C30.353,496.942 31.013,498.44 31.528,499.921C31.941,501.107 32.127,502.306 32.413,503.52C32.466,503.745 32.826,504.329 32.826,504.523C32.826,504.655 32.584,504.416 32.472,504.346C32.154,504.147 32.157,504.205 31.823,504.051C31.11,503.722 30.36,503.296 29.699,502.871C27.993,501.775 26.383,500.486 24.86,499.153C24.746,499.053 23.646,497.83 23.798,497.678C24.04,497.436 25.375,497.878 25.627,497.914C27.371,498.163 29.128,498.193 30.879,498.327C31.216,498.353 32.705,498.685 33.003,498.386C33.01,498.379 32.521,498.515 32.354,498.681C31.921,499.114 31.461,499.421 30.938,499.744C29.682,500.517 28.391,501.284 27.161,502.104C26.739,502.385 26.184,502.647 25.863,503.048C25.689,503.265 25.273,503.638 25.273,503.638C25.273,503.638 25.55,503.207 25.686,502.989C25.916,502.62 26.139,502.26 26.335,501.868C26.996,500.546 27.687,499.223 28.341,497.914C28.688,497.221 28.772,496.391 29.168,495.731C29.2,495.677 29.264,495.218 29.345,495.259C29.642,495.408 29.703,496.58 29.758,496.852C30.014,498.135 30.289,499.507 30.702,500.747C30.906,501.358 31.174,501.987 31.41,502.576C31.487,502.77 31.438,502.986 31.528,503.166C31.591,503.293 31.906,503.52 31.764,503.52C31.248,503.52 30.454,502.38 29.994,502.104C29.927,502.064 29.275,501.879 29.404,501.75C29.452,501.701 29.817,501.883 29.817,501.927C29.817,502.157 29.365,501.809 29.168,501.691C28.597,501.349 27.938,501.11 27.456,500.629C26.801,499.973 26.355,499.383 25.568,498.858C25.286,498.671 24.978,498.032 24.978,498.032C24.978,498.032 25.447,498.162 25.686,498.209C26.136,498.299 26.59,498.376 27.043,498.445C27.828,498.566 30.014,498.23 30.643,498.858C30.755,498.971 30.474,500.273 30.525,500.629C30.544,500.76 31.049,501.665 30.997,501.691C30.333,502.023 29.122,500.754 28.637,500.511C28.45,500.417 27.889,500.274 27.81,500.039C27.607,499.428 28.588,499.445 28.991,499.331C29.009,499.325 29.581,499.148 29.581,499.212C29.581,499.401 28.695,499.566 28.873,499.921C28.944,500.064 30.309,499.993 29.463,500.275C29.373,500.305 29.522,498.537 29.522,498.268C29.522,498.14 29.439,496.852 29.286,496.852C28.98,496.852 29.045,497.319 29.168,497.442" style="fill:none;stroke:black;stroke-width:1px;"/>
        </g>
        <g transform="matrix(0.788376,0,0,-0.812266,1.33307,490.593)">
            <text x="13.02px" y="140.109px" style="font-family:'ComicRelief', 'Comic Relief', cursive;font-size:12px;"><tspan xmlns:ns0="http://sodipodi.sourceforge.net/DTD/sodipodi-0.dtd" ns0:role="line">It's surprisingly easy to end up in this situation:</tspan></text>
        </g>
        <g transform="matrix(0.788376,0,0,-0.812266,4.69539,406.973)">
            <text x="13.02px" y="140.109px" style="font-family:'ComicRelief', 'Comic Relief', cursive;font-size:12px;"><tspan xmlns:ns0="http://sodipodi.sourceforge.net/DTD/sodipodi-0.dtd" ns0:role="line">A little bit of &#160; &#160;planning &#160; &#160;helps me make sure my</tspan></text>
            <text x="13.02px" y="158.109px" style="font-family:'ComicRelief', 'Comic Relief', cursive;font-size:12px;"><tspan xmlns:ns0="http://sodipodi.sourceforge.net/DTD/sodipodi-0.dtd" ns0:role="line">hard work doesn't go to waste.</tspan></text>
        </g>
        <g transform="matrix(0.788376,0,0,-0.812266,4.84511,373.452)">
            <text x="13.02px" y="140.109px" style="font-family:'ComicRelief', 'Comic Relief', cursive;font-size:12px;"><tspan xmlns:ns0="http://sodipodi.sourceforge.net/DTD/sodipodi-0.dtd" ns0:role="line">Here are a few things that help me to remember:</tspan></text>
        </g>
        <g transform="matrix(0.708952,0,0,-0.730436,18.6434,262.234)">
            <text x="13.02px" y="140.109px" style="font-family:'ComicRelief', 'Comic Relief', cursive;font-size:12px;"><tspan xmlns:ns0="http://sodipodi.sourceforge.net/DTD/sodipodi-0.dtd" ns0:role="line">I just try my best and deal with changes when they come</tspan></text>
        </g>
        <g transform="matrix(0.634646,0,0,-0.653878,217.715,307.14)">
            <text x="13.02px" y="140.109px" style="font-family:'ComicRelief', 'Comic Relief', cursive;font-size:12px;"><tspan xmlns:ns0="http://sodipodi.sourceforge.net/DTD/sodipodi-0.dtd" ns0:role="line">ok doing that</tspan></text>
            <text x="13.02px" y="158.109px" style="font-family:'ComicRelief', 'Comic Relief', cursive;font-size:12px;"><tspan xmlns:ns0="http://sodipodi.sourceforge.net/DTD/sodipodi-0.dtd" ns0:role="line">is way too</tspan></text>
            <text x="13.02px" y="176.109px" style="font-family:'ComicRelief', 'Comic Relief', cursive;font-size:12px;"><tspan xmlns:ns0="http://sodipodi.sourceforge.net/DTD/sodipodi-0.dtd" ns0:role="line">expensive now</tspan></text>
        </g>
        <g transform="matrix(0.634646,0,0,-0.653878,40.6616,305.396)">
            <text x="17.835px" y="140.109px" style="font-family:'ComicRelief', 'Comic Relief', cursive;font-size:12px;"><tspan xmlns:ns0="http://sodipodi.sourceforge.net/DTD/sodipodi-0.dtd" ns0:role="line">let's reprocess</tspan></text>
            <text x="24.158px" y="158.109px" style="font-family:'ComicRelief', 'Comic Relief', cursive;font-size:12px;"><tspan xmlns:ns0="http://sodipodi.sourceforge.net/DTD/sodipodi-0.dtd" ns0:role="line">every record</tspan></text>
            <text x="33.254px" y="176.109px" style="font-family:'ComicRelief', 'Comic Relief', cursive;font-size:12px;"><tspan xmlns:ns0="http://sodipodi.sourceforge.net/DTD/sodipodi-0.dtd" ns0:role="line">every day</tspan></text>
        </g>
        <g transform="matrix(0.634646,0,0,-0.653878,198.943,441.922)">
            <text x="32.07px" y="140.109px" style="font-family:'ComicRelief', 'Comic Relief', cursive;font-size:12px;"><tspan xmlns:ns0="http://sodipodi.sourceforge.net/DTD/sodipodi-0.dtd" ns0:role="line">oh no this is</tspan></text>
            <text x="21.398px" y="158.109px" style="font-family:'ComicRelief', 'Comic Relief', cursive;font-size:12px;"><tspan xmlns:ns0="http://sodipodi.sourceforge.net/DTD/sodipodi-0.dtd" ns0:role="line">totally not what</tspan></text>
            <text x="13.531px" y="176.109px" style="font-family:'ComicRelief', 'Comic Relief', cursive;font-size:12px;"><tspan xmlns:ns0="http://sodipodi.sourceforge.net/DTD/sodipodi-0.dtd" ns0:role="line">we needed to build</tspan></text>
        </g>
        <g transform="matrix(0.75,0,0,-0.75,0.522396,445.968)">
            <path d="M37.083,300.357C37.083,299.743 34.964,299.791 34.655,299.813C32.444,299.965 29.874,302.189 28.584,303.802C27.429,305.246 26.532,306.95 26.069,308.745C25.521,310.866 25.15,313.698 25.722,315.857C27.167,321.308 33.752,324.022 38.904,323.488C47.67,322.579 49.04,310.723 45.061,304.756C43.788,302.846 39.533,299.198 36.909,300.073" style="fill:none;stroke:black;stroke-width:1px;"/>
        </g>
        <g transform="matrix(0.75,0,0,-0.75,0.522396,445.968)">
            <path d="M35.554,324.133C35.499,324.069 35.522,324.631 35.522,324.702C35.522,325.098 35.658,325.523 35.695,325.916C35.853,327.577 35.869,329.279 35.869,330.946C35.869,336.005 36.129,341.058 36.129,346.123" style="fill:none;stroke:black;stroke-width:1px;"/>
        </g>
        <g transform="matrix(0.75,0,0,-0.75,0.522396,445.968)">
            <path d="M26.069,327.69C26.069,327.575 26.395,327.977 26.416,327.998L28.931,330.513C30.45,332.032 32.187,333.335 33.701,334.849C34.316,335.465 34.924,336.285 35.695,336.67C36.08,336.863 37.892,334.523 38.123,334.329C40.588,332.254 43.053,329.866 45.668,327.998" style="fill:none;stroke:black;stroke-width:1px;"/>
        </g>
        <g transform="matrix(0.75,0,0,-0.75,0.522396,445.968)">
            <path d="M27.763,357.335C28.309,357.007 29.405,354.904 29.798,354.275C31.053,352.267 32.522,350.396 33.874,348.465C34.227,347.961 35.191,345.997 36.042,346.21C36.606,346.351 37.683,347.796 38.037,348.204C39.616,350.027 41.112,351.894 42.546,353.841C43.177,354.697 44.528,356.703 45.755,356.703" style="fill:none;stroke:black;stroke-width:1px;"/>
        </g>
        <g transform="matrix(0.75,0,0,-0.75,0.998103,441.267)">
            <path d="M63.794,314.577C63.556,315.053 63.696,316.345 63.696,316.854L63.696,322.317C63.696,330.52 64.682,339.569 73.236,343.044C83.499,347.213 95.501,345.999 106.277,345.125C111.449,344.706 116.622,344.485 121.801,344.171C125.45,343.95 129.116,343.696 132.555,342.35C141.063,339.021 143.965,329.258 146.257,321.363C146.932,319.037 147.549,316.655 147.905,314.252C148.54,309.966 150.203,304.538 149.119,300.203C148.076,296.031 144.694,294.016 140.88,292.744C134.198,290.517 127.21,289.703 120.24,288.929C108.69,287.645 97.058,287.661 85.464,288.061C80.556,288.231 74.54,288.146 70.027,290.403C67.353,291.74 64.69,295.726 64.39,298.728C64.212,300.511 64.414,302.327 64.216,304.105C64.063,305.49 64.656,308.255 64.043,309.482C63.689,310.19 61.996,310.002 61.355,310.002C58.522,310.002 56.09,309.485 53.81,307.661C53.575,307.474 51.259,305.355 50.948,305.666C50.808,305.806 50.996,306.572 51.034,306.707C51.392,307.958 51.978,309.201 52.856,310.176C54.65,312.17 57.62,314.635 60.401,315.032C61.696,315.217 62.881,314.599 63.956,314.599" style="fill:none;stroke:black;stroke-width:1px;"/>
        </g>
        <g transform="matrix(0.75,0,0,-0.75,0.522396,445.968)">
            <path d="M31.878,307.755C31.785,307.685 31.929,307.723 32.026,307.723" style="fill:none;stroke:black;stroke-width:1px;"/>
        </g>
        <g transform="matrix(0.75,0,0,-0.75,0.522396,445.968)">
            <path d="M38.908,307.362C38.891,307.346 39.078,307.264 39.078,307.437" style="fill:none;stroke:black;stroke-width:1px;"/>
        </g>
        <g transform="matrix(0.75,0,0,-0.75,0.522396,445.968)">
            <path d="M30.6,314.748C30.12,319.069 40.507,320.616 40.507,315.823" style="fill:none;stroke:black;stroke-width:1px;"/>
        </g>
        <g transform="matrix(0.75,0,0,-0.75,0.522396,445.968)">
            <path d="M25.958,318.06C25.932,318.021 26.102,318.222 25.928,318.396C25.713,318.61 25.273,318.806 24.975,318.872C24.278,319.027 23.192,318.971 22.688,318.396C21.584,317.134 21.289,314.875 22.402,313.536C22.766,313.098 24.186,312.122 24.499,313.059C25.001,314.567 22.788,314.175 22.212,313.727C20.799,312.628 20.721,310.019 21.366,308.471C21.904,307.179 23.35,306.092 24.784,306.103C25.489,306.109 26.528,306.651 26.528,307.471C26.528,308.721 24.547,309.338 23.712,308.504C22.483,307.275 23.22,303.733 24.213,302.482C24.56,302.045 25.025,301.805 25.547,301.625C28.418,300.632 28.587,305.148 26.595,304.579C25.946,304.393 26.041,303.232 26.118,302.768C26.388,301.151 27.499,299.636 28.787,298.671C30.059,297.716 33.103,297.394 33.103,299.767C33.103,300.275 32.11,301.086 31.645,300.862C31.229,300.662 31.725,299.197 31.836,298.957C32.508,297.5 34.267,296.324 35.933,296.765C37.041,297.058 37.863,297.954 37.863,299.103C37.863,299.526 36.604,301.011 36.315,300.576C35.627,299.545 38.655,298.243 39.269,298.194C40.538,298.093 42.518,299.798 41.746,301.148C41.644,301.327 40.414,302.014 40.317,301.625C39.955,300.177 43.074,299.418 44.033,299.719C46.327,300.437 44.538,303.176 42.985,303.435" style="fill:none;stroke:black;stroke-width:1px;"/>
        </g>
        <g transform="matrix(0.634646,0,0,-0.653878,112.575,296.275)">
            <text x="13.02px" y="140.109px" style="font-family:'ComicRelief', 'Comic Relief', cursive;font-size:12px;"><tspan xmlns:ns0="http://sodipodi.sourceforge.net/DTD/sodipodi-0.dtd" ns0:role="line">... 2 years later...</tspan></text>
        </g>
        <g transform="matrix(0.634646,0,0,-0.653878,111.136,198.141)">
            <text x="13.02px" y="140.109px" style="font-family:'ComicRelief', 'Comic Relief', cursive;font-size:12px;"><tspan xmlns:ns0="http://sodipodi.sourceforge.net/DTD/sodipodi-0.dtd" ns0:role="line">... 2 years later...</tspan></text>
        </g>
        <g transform="matrix(0.634646,0,0,-0.653878,49.2473,210.498)">
            <text x="13.02px" y="140.109px" style="font-family:'ComicRelief', 'Comic Relief', cursive;font-size:12px;"><tspan xmlns:ns0="http://sodipodi.sourceforge.net/DTD/sodipodi-0.dtd" ns0:role="line">this is a bit</tspan></text>
            <text x="13.02px" y="158.109px" style="font-family:'ComicRelief', 'Comic Relief', cursive;font-size:12px;"><tspan xmlns:ns0="http://sodipodi.sourceforge.net/DTD/sodipodi-0.dtd" ns0:role="line">sketchy but it</tspan></text>
            <text x="13.02px" y="176.109px" style="font-family:'ComicRelief', 'Comic Relief', cursive;font-size:12px;"><tspan xmlns:ns0="http://sodipodi.sourceforge.net/DTD/sodipodi-0.dtd" ns0:role="line">should work</tspan></text>
        </g>
        <g transform="matrix(0.634646,0,0,-0.653878,215.152,208.42)">
            <text x="13.02px" y="140.109px" style="font-family:'ComicRelief', 'Comic Relief', cursive;font-size:12px;"><tspan xmlns:ns0="http://sodipodi.sourceforge.net/DTD/sodipodi-0.dtd" ns0:role="line">wow it's still</tspan></text>
            <text x="13.02px" y="158.109px" style="font-family:'ComicRelief', 'Comic Relief', cursive;font-size:12px;"><tspan xmlns:ns0="http://sodipodi.sourceforge.net/DTD/sodipodi-0.dtd" ns0:role="line">working with no</tspan></text>
            <text x="13.02px" y="176.109px" style="font-family:'ComicRelief', 'Comic Relief', cursive;font-size:12px;"><tspan xmlns:ns0="http://sodipodi.sourceforge.net/DTD/sodipodi-0.dtd" ns0:role="line">problems</tspan></text>
        </g>
        <g transform="matrix(0.634646,0,0,-0.653878,151.506,137.277)">
            <text x="13.02px" y="140.109px" style="font-family:'ComicRelief', 'Comic Relief', cursive;font-size:12px;"><tspan xmlns:ns0="http://sodipodi.sourceforge.net/DTD/sodipodi-0.dtd" ns0:role="line">show me a</tspan></text>
            <text x="13.02px" y="158.109px" style="font-family:'ComicRelief', 'Comic Relief', cursive;font-size:12px;"><tspan xmlns:ns0="http://sodipodi.sourceforge.net/DTD/sodipodi-0.dtd" ns0:role="line">prototype and</tspan></text>
            <text x="13.02px" y="176.109px" style="font-family:'ComicRelief', 'Comic Relief', cursive;font-size:12px;"><tspan xmlns:ns0="http://sodipodi.sourceforge.net/DTD/sodipodi-0.dtd" ns0:role="line">I'll believe it</tspan></text>
        </g>
        <g transform="matrix(0.634646,0,0,-0.653878,64.3133,143.801)">
            <text x="13.02px" y="140.109px" style="font-family:'ComicRelief', 'Comic Relief', cursive;font-size:12px;"><tspan xmlns:ns0="http://sodipodi.sourceforge.net/DTD/sodipodi-0.dtd" ns0:role="line">I bet we can make</tspan></text>
            <text x="13.02px" y="158.109px" style="font-family:'ComicRelief', 'Comic Relief', cursive;font-size:12px;"><tspan xmlns:ns0="http://sodipodi.sourceforge.net/DTD/sodipodi-0.dtd" ns0:role="line">this 100x faster</tspan></text>
        </g>
        <g transform="matrix(0.634646,0,0,-0.653878,65.8701,107.192)">
            <text x="13.02px" y="140.109px" style="font-family:'ComicRelief', 'Comic Relief', cursive;font-size:12px;"><tspan xmlns:ns0="http://sodipodi.sourceforge.net/DTD/sodipodi-0.dtd" ns0:role="line">coming right up!</tspan></text>
        </g>
        <g transform="matrix(0.788376,0,0,-0.812266,15.2752,351.068)">
            <text x="13.02px" y="140.109px" style="font-family:'ComicRelief', 'Comic Relief', cursive;font-size:12px;"><tspan xmlns:ns0="http://sodipodi.sourceforge.net/DTD/sodipodi-0.dtd" ns0:role="line">you can't predict how requirements will change</tspan></text>
        </g>
        <g transform="matrix(0.788376,0,0,-0.812266,13.0838,252.378)">
            <text x="13.02px" y="140.109px" style="font-family:'ComicRelief', 'Comic Relief', cursive;font-size:12px;"><tspan xmlns:ns0="http://sodipodi.sourceforge.net/DTD/sodipodi-0.dtd" ns0:role="line">"good enough" is often really awesome</tspan></text>
        </g>
        <g transform="matrix(0.788376,0,0,-0.812266,14.299,179.442)">
            <text x="13.02px" y="140.109px" style="font-family:'ComicRelief', 'Comic Relief', cursive;font-size:12px;"><tspan xmlns:ns0="http://sodipodi.sourceforge.net/DTD/sodipodi-0.dtd" ns0:role="line">making a proof of concept can really help</tspan></text>
        </g>
        <g transform="matrix(0.75,0,0,-0.75,-2.76101,440.936)">
            <path d="M265.816,294.309C258.977,293.13 254.141,302.277 254.616,307.983C254.759,309.697 256.185,311.245 257.384,312.351C261.804,316.429 268.485,318.514 274.267,315.984C280.222,313.379 282.581,303.183 278.542,298.246C276.738,296.041 273.556,295.084 270.955,294.506C269.228,294.122 267.084,293.45 265.398,294.292" style="fill:none;stroke:black;stroke-width:1px;"/>
        </g>
        <g transform="matrix(0.75,0,0,-0.75,-2.76101,440.936)">
            <path d="M266.724,317.648C266.246,318.153 266.574,321.262 266.574,322.288C266.574,326.557 266.424,330.847 266.253,335.111C266.168,337.248 266.146,339.387 266.039,341.523C265.992,342.476 266.003,342.418 265.933,343.339C265.913,343.59 265.826,344.339 265.826,344.087" style="fill:none;stroke:black;stroke-width:1px;"/>
        </g>
        <g transform="matrix(0.75,0,0,-0.75,-2.76101,440.936)">
            <path d="M254.739,322.131C254.674,322.255 255.479,322.543 255.568,322.609L256.422,323.464C257.734,324.939 259.412,326.026 260.803,327.418C262.302,328.916 263.921,330.214 265.398,331.692C265.644,331.937 266.568,332.766 267.001,332.333C267.753,331.581 268.283,330.46 269.031,329.662C271.569,326.955 274.512,324.692 276.939,321.861" style="fill:none;stroke:black;stroke-width:1px;"/>
        </g>
        <g transform="matrix(0.75,0,0,-0.75,-2.76101,440.936)">
            <path d="M254.94,358.089C254.886,358.073 255.929,356.47 255.995,356.376C256.763,355.278 257.639,354.318 258.346,353.17C260.075,350.359 262.461,348.093 264.757,345.797C265.272,345.282 265.913,344.204 266.574,343.873C266.7,343.81 267.128,344.909 267.215,345.049C267.613,345.685 268.093,346.318 268.604,346.865C269.863,348.214 271.187,349.48 272.344,350.926C273.844,352.8 274.769,355.107 276.832,356.482" style="fill:none;stroke:black;stroke-width:1px;"/>
        </g>
        <g transform="matrix(0.75,0,0,-0.75,-2.76101,440.936)">
            <path d="M264.043,300.648C263.991,300.569 264.058,300.704 264.116,300.704" style="fill:none;stroke:black;stroke-width:1px;"/>
        </g>
        <g transform="matrix(0.75,0,0,-0.75,-2.76101,440.936)">
            <path d="M271.202,300.532C271.158,300.476 271.181,300.704 271.382,300.704" style="fill:none;stroke:black;stroke-width:1px;"/>
        </g>
        <g transform="matrix(0.75,0,0,-0.75,-2.76101,440.936)">
            <path d="M261.902,310.205C261.598,310.297 262.523,310.069 262.834,310C263.669,309.814 264.46,309.586 265.291,309.359C267.678,308.708 270.05,308.036 272.451,307.435" style="fill:none;stroke:black;stroke-width:1px;"/>
        </g>
        <g transform="matrix(0.75,0,0,-0.75,-2.76101,440.936)">
            <path d="M255.053,310.062C254.716,310.821 252.979,310.962 252.148,309.893C251.104,308.551 251.522,305.665 253.11,304.871C253.311,304.77 253.532,304.712 253.751,304.657C255.319,304.265 253.616,307.25 252.869,305.757C252.295,304.609 252.221,302.055 252.789,300.917C253.174,300.148 254.982,299.294 255.461,300.49C255.773,301.27 253.357,301.889 253.217,300.49C253.011,298.435 254.119,295.091 256.82,295.863C257.409,296.031 258.385,297.158 257.491,297.605C256.753,297.974 256.636,296.732 256.636,296.322C256.636,295.218 256.938,294.209 257.956,293.627C258.762,293.166 262.086,292.374 262.086,293.972C262.086,294.424 260.933,295.153 260.803,294.506C260.319,292.084 263.574,290.96 265.398,291.514C266.23,291.767 267.251,292.545 267.001,293.544C266.744,294.572 264.276,294.613 265.398,292.689C265.538,292.449 265.727,292.236 265.933,292.048C266.158,291.841 266.418,291.672 266.681,291.514C267.886,290.791 271.037,290.305 271.596,292.262C271.865,293.204 271.284,294.481 270.1,294.185C268.989,293.908 271.621,291.747 271.916,291.621C273.424,290.975 275.9,292.145 275.9,293.963C275.9,294.746 275.232,296.359 274.16,296.002C273.714,295.853 274.256,294.945 274.374,294.826C275.145,294.055 276.1,293.831 277.152,293.758C278.202,293.685 280.524,295.516 279.396,296.643C278.836,297.204 277.883,297.287 277.152,297.391" style="fill:none;stroke:black;stroke-width:1px;"/>
        </g>
        <g transform="matrix(0.75,0,0,-0.75,-2.76101,440.936)">
            <path d="M297.452,314.798C297.88,316.188 297.241,319.303 297.241,320.792C297.241,325.85 297.635,333.891 301.836,337.462C304.596,339.808 308.423,340.355 311.881,340.775C319.176,341.659 326.441,341.95 333.786,341.95C341.889,341.95 349.947,342.048 358.042,341.736C362.285,341.573 367.092,341.054 370.865,338.958C374.074,337.175 375.921,331.557 376.742,328.272C377.509,325.207 378.345,321.952 378.345,318.762C378.345,315.871 377.554,312.906 377.383,310C377.086,304.939 377.572,299.598 376.422,294.613C374.864,287.86 364.53,287.224 359.111,286.599C347.124,285.215 335.671,285.569 323.635,285.957C317.253,286.163 310.15,285.429 304.508,289.056C300.841,291.413 298.524,295.692 298.524,300.062C298.524,302.398 298.583,304.728 298.203,307.008C298.127,307.463 298.37,308.337 298.096,308.611C297.561,309.146 295.703,308.931 294.997,308.931C291.839,308.931 288.694,307.772 286.128,305.939C285.785,305.694 284.439,303.696 284.312,303.696C284.113,303.696 284.611,305.021 284.632,305.085C285.126,306.564 286.345,307.546 287.411,308.611C289.667,310.867 291.7,311.931 294.463,313.313C294.868,313.515 297.028,314.363 297.028,314.595" style="fill:none;stroke:black;stroke-width:1px;"/>
        </g>
        <g transform="matrix(0.75,0,0,-0.75,-15.0218,438.901)">
            <path d="M57.069,418.209C56.425,418.514 54.766,418.035 53.975,418.114C50.93,418.419 47.653,420.838 46.237,423.491C45.453,424.961 45.27,426.711 45.188,428.343C44.636,439.382 57.253,442.441 65.515,438.31C70.796,435.669 73.29,427.801 70.105,422.704C68.245,419.728 64.975,418.767 61.843,418.245C60.455,418.014 58.451,417.581 57.122,418.245" style="fill:none;stroke:black;stroke-width:1px;"/>
        </g>
        <g transform="matrix(0.75,0,0,-0.75,-15.0218,438.901)">
            <path d="M56.704,440.901C56.959,441.231 56.597,445.511 56.597,446.179C56.597,451.292 56.729,456.402 56.729,461.522" style="fill:none;stroke:black;stroke-width:1px;"/>
        </g>
        <g transform="matrix(0.75,0,0,-0.75,-15.0218,438.901)">
            <path d="M45.442,443.443C45.48,443.358 47.999,445.212 48.204,445.392C49.896,446.872 51.732,448.263 53.319,449.85C54.078,450.61 55.139,452.138 56.073,452.604C57.485,453.311 58.194,451.926 59.22,450.9C61.367,448.753 64.935,444.798 67.876,443.818" style="fill:none;stroke:black;stroke-width:1px;"/>
        </g>
        <g transform="matrix(0.75,0,0,-0.75,-15.0218,438.901)">
            <path d="M45.11,474.471C44.919,474.593 45.421,474.141 45.582,473.981C45.91,473.652 46.302,473.391 46.631,473.063C47.64,472.053 48.48,470.759 49.385,469.653C51.399,467.191 54.285,462.547 57.122,461.129C57.418,460.981 59.83,463.801 60.007,464.014C61.934,466.326 63.867,468.629 65.777,470.964C66.324,471.632 67.377,473.325 68.4,473.325" style="fill:none;stroke:black;stroke-width:1px;"/>
        </g>
        <g transform="matrix(0.75,0,0,-0.75,-15.0218,438.901)">
            <path d="M53.065,424.909C53.045,424.967 53.282,424.934 53.319,424.934" style="fill:none;stroke:black;stroke-width:1px;"/>
        </g>
        <g transform="matrix(0.75,0,0,-0.75,-15.0218,438.901)">
            <path d="M60.757,425.066C60.857,425.063 60.957,425.065 61.056,425.065" style="fill:none;stroke:black;stroke-width:1px;"/>
        </g>
        <g transform="matrix(0.75,0,0,-0.75,-15.0218,438.901)">
            <path d="M52.684,435.402C52.439,435.672 53.379,435.18 53.712,435.032C54.232,434.801 54.754,434.575 55.286,434.376C57.356,433.6 59.488,432.975 61.581,432.278" style="fill:none;stroke:black;stroke-width:1px;"/>
        </g>
        <g transform="matrix(0.75,0,0,-0.75,-15.0218,438.901)">
            <path d="M46.418,435.369C43.832,438.331 40.569,433.221 42.041,430.573C42.697,429.391 45.28,430.107 44.532,431.228C44.19,431.742 42.808,431.796 42.434,431.36C41.55,430.327 41.131,427.84 41.677,426.565C42.185,425.382 45.239,421.756 46.5,424.278C46.817,424.912 45.81,425.49 45.319,425.196C43.553,424.136 44.791,418.794 46.631,417.983C47.356,417.663 51.658,417.905 50.565,419.295C50.34,419.581 49.276,419.754 49.122,419.295C48.363,417.015 51.053,414.619 53.188,415.229C53.772,415.396 55.077,415.942 55.417,416.541C56.004,417.574 53.963,418.341 53.844,417.983C52.767,414.753 57.998,415.202 59.483,416.147C59.875,416.397 59.067,417.088 59.351,416.803C60.865,415.29 66.007,414.704 66.695,417.459C66.885,418.218 65.465,419.655 64.728,419.163C63.351,418.245 67.046,416.298 68.007,416.541C71.185,417.344 70.687,419.674 68.007,420.344" style="fill:none;stroke:black;stroke-width:1px;"/>
        </g>
        <g transform="matrix(0.75,0,0,-0.75,-15.0218,438.901)">
            <path d="M95.719,415.928C94.533,415.631 92.9,416.725 91.875,417.196C87.852,419.044 85.564,424.973 85.973,429.13C86.198,431.419 87.442,433.39 89.383,434.638C89.916,434.981 90.736,435.302 91.35,435.425C91.569,435.469 92.163,435.398 92.006,435.556C87.35,440.212 84.036,449.581 88.163,455.772C89.189,457.31 90.542,459.137 92.268,459.948C92.943,460.266 93.639,460.211 94.366,460.211C94.803,460.211 95.678,459.774 95.678,460.211C95.678,461.49 94.835,462.169 95.415,463.62C97.553,468.966 106.096,470.052 110.89,469.653C113.269,469.455 116.112,468.589 117.972,467.03C118.394,466.676 120.451,464.011 120.988,464.145C121.912,464.376 123.338,466.121 124.266,466.637C127.884,468.646 132.35,470.084 136.524,469.442C138.838,469.086 141.173,467.597 143.02,466.243C143.696,465.747 144.552,464.352 145.38,464.145C146.068,463.973 148.546,465.987 149.314,466.243C152.712,467.376 156.409,467.215 159.543,465.325C161.014,464.438 162.498,463.031 163.084,461.391C163.263,460.89 163.027,458.694 163.347,458.375C164.037,457.684 166.253,457.668 167.15,457.457C170.23,456.732 172.432,455.941 173.969,452.867C175.254,450.298 175.002,447.258 173.838,444.736C173.62,444.264 171.468,441.617 171.608,441.195C171.777,440.69 173.435,440.11 173.838,439.753C175.382,438.38 176.125,436.551 176.33,434.507C176.61,431.697 175.91,429.359 173.707,427.556C173.021,426.995 170.807,426.215 170.428,425.458C170.053,424.707 171.82,424.311 172.002,423.491C172.323,422.046 171.397,420.233 170.69,419.032C168.881,415.956 165.845,413.748 162.297,413.131C161.159,412.933 159.766,412.868 158.625,413.131C158.466,413.168 157.172,413.907 156.921,413.655C154.668,411.403 150.579,410.487 147.478,410.115C144.691,409.78 142.212,409.861 139.61,410.902C138.31,411.422 136.217,413.81 134.758,413.393C131.508,412.465 128.709,410.617 125.184,410.246C122.608,409.975 120.27,410.994 118.234,412.475C117.548,412.974 116.581,414.233 115.742,414.442C114.151,414.84 112.478,412.912 111.021,412.475C106.717,411.184 98.058,411.705 96.071,416.672" style="fill:none;stroke:black;stroke-width:1px;"/>
        </g>
        <g transform="matrix(0.75,0,0,-0.75,-15.0218,438.901)">
            <path d="M73.843,413.352C75.514,411.055 75.4,417.492 72.99,415.885C70.861,414.465 73.264,413.094 74.564,412.606" style="fill:none;stroke:black;stroke-width:1px;"/>
        </g>
        <g transform="matrix(0.75,0,0,-0.75,-15.0218,438.901)">
            <path d="M81.256,409.716C80.946,410.104 82.241,409.126 82.695,409.328C83.455,409.666 84.358,410.618 84.006,411.557C82.974,414.308 78.768,411.24 81.908,409.984" style="fill:none;stroke:black;stroke-width:1px;"/>
        </g>
        <g transform="matrix(0.75,0,0,-0.75,-15.0218,438.901)">
            <path d="M87.576,412.796C87.452,412.545 92.036,411.957 91.219,414.18C90.311,416.649 85.195,416.528 87.547,413" style="fill:none;stroke:black;stroke-width:1px;"/>
        </g>
        <g transform="matrix(0.75,0,0,-0.75,-7.26449,439.648)">
            <path d="M271.219,416.616C270.552,413.45 265.106,415.383 263.409,416.365C256.996,420.078 254.38,429.524 261.823,433.813C263.774,434.937 266.558,435.164 268.745,435.255C273.812,435.467 281.454,432.974 282.444,427.036C283.479,420.827 276.858,415.211 270.908,415.211" style="fill:none;stroke:black;stroke-width:1px;"/>
        </g>
        <g transform="matrix(0.75,0,0,-0.75,-7.26449,439.648)">
            <path d="M268.655,435.793C267.984,436.282 268.963,440.25 269.033,440.879C269.674,446.645 269.321,452.31 269.321,458.039" style="fill:none;stroke:black;stroke-width:1px;"/>
        </g>
        <g transform="matrix(0.75,0,0,-0.75,-7.26449,439.648)">
            <path d="M257.939,439.943C257.862,440.55 259.084,440.447 259.516,440.879C260.617,441.981 261.579,443.231 262.688,444.34C264.094,445.746 265.673,447.036 267.014,448.378C267.322,448.686 269.118,450.6 269.177,450.541L276.82,442.898C278.343,441.375 280.089,440.062 281.579,438.572" style="fill:none;stroke:black;stroke-width:1px;"/>
        </g>
        <g transform="matrix(0.75,0,0,-0.75,-7.26449,439.648)">
            <path d="M259.894,474.044C260.185,474.05 262.147,471.355 262.4,471.017C264.759,467.871 266.766,464.654 268.745,461.356C269.022,460.893 269.426,457.751 270.042,457.751C270.152,457.751 270.409,459.183 270.475,459.337C270.847,460.204 271.378,461.019 271.917,461.788C273.938,464.676 276.622,467.384 278.983,470.008C279.687,470.79 280.67,472.748 281.867,472.748" style="fill:none;stroke:black;stroke-width:1px;"/>
        </g>
        <g transform="matrix(0.75,0,0,-0.75,-7.26449,439.648)">
            <path d="M265.682,421.354C265.535,421.354 265.734,421.452 265.841,421.452" style="fill:none;stroke:black;stroke-width:1px;"/>
        </g>
        <g transform="matrix(0.75,0,0,-0.75,-7.26449,439.648)">
            <path d="M273.336,421.301C273.353,421.284 273.301,421.336 273.284,421.354" style="fill:none;stroke:black;stroke-width:1px;"/>
        </g>
        <g transform="matrix(0.75,0,0,-0.75,-7.26449,439.648)">
            <path d="M263.304,428.398C262.875,428.719 263.853,429.347 264.274,429.678C265.187,430.395 266.32,430.718 267.408,431.049C270.302,431.931 272.794,430.893 275.046,429.09" style="fill:none;stroke:black;stroke-width:1px;"/>
        </g>
        <g transform="matrix(0.75,0,0,-0.75,-7.26449,439.648)">
            <path d="M258.652,432.089C258.97,432.388 256.158,432.68 255.754,432.518C254.387,431.971 253.906,429.473 254.383,428.209C254.718,427.321 257.505,425.529 258.006,427.034C258.333,428.013 256.086,428.338 255.558,428.111C254.101,427.486 253.873,423.819 254.15,422.571C254.448,421.231 255.633,420.444 256.929,420.374C257.455,420.346 259.069,420.465 258.79,421.452C258.66,421.908 257.346,422.364 257.1,421.872C256.403,420.478 257.163,417.837 258.104,416.751C258.67,416.098 262.994,414.094 262.707,416.457C262.664,416.811 261.414,417.932 261.042,417.436C260.556,416.789 261.273,415.625 261.532,415.086C262.41,413.259 264.369,412.583 266.345,412.748C267.047,412.806 269.198,413.429 268.387,414.596C268.245,414.801 267.257,415.523 267.016,415.282C266.685,414.951 267.855,413.574 267.995,413.421C269.258,412.053 271.024,411.981 272.657,412.707C273.606,413.129 274.379,413.899 274.263,414.988C274.235,415.252 273.562,416.246 273.186,415.87C272.571,415.255 273.893,413.949 274.361,413.715C275.913,412.939 278.193,413.441 279.356,414.694C280.781,416.232 278.602,417.632 277.201,417.632" style="fill:none;stroke:black;stroke-width:1px;"/>
        </g>
        <g transform="matrix(0.75,0,0,-0.75,-7.26449,439.648)">
            <path d="M286.878,420.224C287.925,419.511 289.829,421.262 289.1,422.235C287.597,424.239 284.514,422.728 286.554,420.179" style="fill:none;stroke:black;stroke-width:1px;"/>
        </g>
        <g transform="matrix(0.75,0,0,-0.75,-7.26449,439.648)">
            <path d="M291.958,417.431C291.78,417.483 292.113,417.088 292.234,416.947C292.647,416.465 293.076,416.318 293.703,416.261C294.687,416.171 295.638,417.149 295.308,418.138C294.507,420.542 288.82,419.253 291.94,416.653" style="fill:none;stroke:black;stroke-width:1px;"/>
        </g>
        <g transform="matrix(0.75,0,0,-0.75,-7.26449,439.648)">
            <path d="M298.676,413.726C299.215,413.437 299.397,412.517 300.46,412.834C301.985,413.287 302.319,415.12 301.048,415.967C298.813,417.457 296.646,414.643 298.893,413.519" style="fill:none;stroke:black;stroke-width:1px;"/>
        </g>
        <g transform="matrix(0.75,0,0,-0.75,-7.26449,439.648)">
            <path d="M309.203,419.458C309.084,419.61 307.099,419.699 306.728,419.885C304.486,421.006 301.785,423.061 301.006,425.592C300.587,426.956 300.653,428.261 301.733,429.286C302.217,429.746 302.592,430.102 303.202,430.364C303.538,430.507 304.279,430.559 304.279,430.559C304.279,430.559 303.534,430.979 303.202,431.245C302.482,431.821 301.796,432.648 301.243,433.399C299.637,435.584 298.321,438.592 298.403,441.332C298.456,443.062 299.259,444.43 300.558,445.543C300.612,445.589 302.289,446.391 302.027,446.718C300.973,448.036 299.388,448.712 298.501,450.244C296.502,453.696 296.076,458.651 299.319,461.534C300.351,462.451 301.435,462.336 302.517,462.877C302.792,463.015 302.165,463.385 302.027,463.661C301.918,463.877 301.656,464.864 301.635,465.032C301.421,466.742 302.451,468.606 303.766,469.658C306.88,472.149 312.24,473.798 316.031,471.985C317.06,471.493 318.344,469.889 319.361,469.634C319.952,469.487 321.168,470.842 321.613,471.103C323.511,472.22 325.785,472.916 327.979,473.062C331.171,473.275 334.588,473.101 337.478,471.593C338.578,471.02 339.654,469.335 340.808,469.047C341.258,468.934 342.98,470.936 343.452,471.201C345.73,472.482 348.381,472.47 350.895,472.083C352.42,471.848 354.263,471.361 355.302,470.124C355.67,469.686 355.75,468.27 356.379,468.165C357.239,468.022 358.575,468.86 359.415,469.047C361,469.399 363.062,469.216 364.606,468.753C366.211,468.271 367.799,467.285 368.523,465.717C368.895,464.91 368.494,463.667 369.013,462.975C369.297,462.596 370.833,462.609 371.265,462.485C372.677,462.082 374.284,461.564 375.354,460.495C376.149,459.7 376.426,458.253 376.162,457.197C376.142,457.116 375.575,455.556 375.672,455.532C378.453,454.837 380.709,454.404 381.646,451.125C381.945,450.078 380.752,448.372 381.156,447.698C381.634,446.902 383.08,446.296 383.8,445.641C384.986,444.563 385.921,442.766 386.347,441.234C386.977,438.965 386.685,436.232 384.878,434.575C384.321,434.064 383.237,434.011 382.821,433.595C382.539,433.314 383.345,432.98 383.507,432.616C383.772,432.019 383.741,431.406 383.702,430.755C383.532,427.853 382.695,423.723 380.667,421.55C380.132,420.977 379.397,420.495 378.61,420.374C378.463,420.352 377.39,420.526 377.239,420.374C376.1,419.235 375.431,417.611 373.909,416.751C370.234,414.673 365.073,414.834 361.08,415.87C359.719,416.222 358.469,416.967 357.065,417.143C355.939,417.283 354.614,415.94 353.637,415.478C351.654,414.539 349.484,413.672 347.272,413.519C343.999,413.293 340.195,413.927 337.185,415.282C336.069,415.784 335.26,416.894 334.149,417.338C332.632,417.945 330.366,415.372 328.86,415.184C326.402,414.877 323.6,415.653 321.613,417.143C320.953,417.638 320.435,418.841 319.655,419.101C319.226,419.244 318.382,418.245 318.088,418.024C317.013,417.218 315.279,416.321 313.877,416.555C312.642,416.761 309.666,418.535 309.666,419.983" style="fill:none;stroke:black;stroke-width:1px;"/>
        </g>
        <g transform="matrix(0.75,0,0,-0.75,0,432)">
            <path d="M58.308,497.517C50.671,495.226 44.082,506.167 45.388,512.799C46.705,519.484 54.775,522.3 60.873,521.831C71.574,521.008 73.113,508.424 67.126,501.582C65.771,500.033 62.766,498.541 60.873,497.909C60.278,497.711 59.313,497.187 58.788,497.711" style="fill:none;stroke:black;stroke-width:1px;"/>
        </g>
        <g transform="matrix(0.75,0,0,-0.75,0,432)">
            <path d="M57.858,522.715C58.343,522.846 57.655,523.713 57.696,524.214C57.842,525.96 57.796,527.717 57.796,529.474L57.796,548.632" style="fill:none;stroke:black;stroke-width:1px;"/>
        </g>
        <g transform="matrix(0.75,0,0,-0.75,0,432)">
            <path d="M46.886,528.182C46.682,528.233 47.137,528.52 47.274,528.68C47.503,528.947 47.72,529.226 47.969,529.474C48.731,530.237 49.4,530.986 50.053,531.857C51.478,533.757 53.845,534.884 55.314,536.72C55.797,537.324 56.664,538.884 57.299,539.202C57.862,539.483 59.987,536.613 60.277,536.323C63.555,533.046 66.502,529.31 70.303,526.596" style="fill:none;stroke:black;stroke-width:1px;"/>
        </g>
        <g transform="matrix(0.75,0,0,-0.75,0,432)">
            <path d="M48.295,563.641C47.744,563.228 49.111,562.528 49.458,561.933C50.24,560.592 51.124,559.287 51.939,557.962C53.224,555.875 54.613,553.882 55.91,551.808C56.404,551.017 56.922,549.267 57.796,548.83C58.339,548.559 60.539,551.389 60.774,551.709C62.523,554.095 64.154,556.581 65.935,558.955C66.603,559.845 67.365,560.564 67.722,561.635" style="fill:none;stroke:black;stroke-width:1px;"/>
        </g>
        <g transform="matrix(0.75,0,0,-0.75,0,432)">
            <path d="M52.709,504.708C52.779,504.57 52.733,504.831 52.733,504.858" style="fill:none;stroke:black;stroke-width:1px;"/>
        </g>
        <g transform="matrix(0.75,0,0,-0.75,0,432)">
            <path d="M62.535,504.973C62.588,504.939 62.56,504.967 62.56,504.858" style="fill:none;stroke:black;stroke-width:1px;"/>
        </g>
        <g transform="matrix(0.75,0,0,-0.75,0,432)">
            <path d="M51.431,513.02C51.507,512.877 51.496,513.338 51.542,513.493C51.698,514.013 51.733,514.022 52.138,514.387C53.076,515.231 54.233,515.763 55.414,516.173C58.225,517.151 62.416,517.722 63.454,514.089" style="fill:none;stroke:black;stroke-width:1px;"/>
        </g>
        <g transform="matrix(0.75,0,0,-0.75,0,432)">
            <path d="M45.714,516.51C45.579,516.322 45.716,517.128 45.487,517.166C44.361,517.354 43.203,517.339 42.609,516.173C41.989,514.959 41.789,512.438 42.657,511.28C43.167,510.601 44.898,509.628 45.686,510.416C46.485,511.215 44.335,511.716 43.899,511.607C43.413,511.486 43.204,510.713 43.105,510.317C42.701,508.7 42.233,505.886 43.711,504.619C44.376,504.049 45.692,503.975 46.48,504.262C46.764,504.365 47.204,504.829 46.877,505.155C45.851,506.181 45.048,505.03 44.991,504.064C44.91,502.691 45.035,501.132 45.884,499.994C46.724,498.868 48.012,498.633 49.359,498.704C49.439,498.708 51.331,498.993 50.848,499.597C50.328,500.247 48.744,500.394 48.962,499.2C49.187,497.957 50.23,496.419 51.344,495.825C51.918,495.519 52.481,495.428 53.131,495.428C53.496,495.428 53.861,495.473 54.222,495.527C54.524,495.572 54.821,495.647 55.116,495.726C57.282,496.303 54.912,497.428 54.619,497.115C53.439,495.854 56.863,494.108 57.814,494.108C58.819,494.108 60.662,494.899 60.972,495.924C61.142,496.485 60.055,497.861 59.781,497.314C59.023,495.798 62.165,494.817 63.156,495.229C64.039,495.597 65.252,496.761 65.042,497.81C65.021,497.916 64.063,499.624 63.851,499.2C63.363,498.225 64.702,497.712 65.34,497.512C66.76,497.068 68.436,497.475 69.31,498.803C70.608,500.774 67.351,501.429 66.134,501.185" style="fill:none;stroke:black;stroke-width:1px;"/>
        </g>
        <g transform="matrix(0.75,0,0,-0.75,0,432)">
            <path d="M91.076,513.124C90.783,513.352 91.048,513.867 91.048,514.238C91.048,515.602 91.047,516.947 91.147,518.308C91.499,523.057 91.219,528.152 96.706,529.524C101.039,530.607 105.874,530.394 110.305,530.616C120.044,531.103 129.632,531.339 139.388,531.112C150,530.865 160.525,530.599 171.052,529.226C174.973,528.715 180.288,528.328 183.261,525.355C187.391,521.225 188.45,515.819 189.813,510.367C190.575,507.317 191.345,503.702 191.103,500.54C190.958,498.646 187.31,497.678 185.941,497.165C179.996,494.935 173.158,494.592 166.883,494.187C148.828,493.022 130.754,493.989 112.687,493.989C108.028,493.989 103.341,493.855 98.691,494.088C96.564,494.194 94.131,494.563 92.636,496.272C90.731,498.449 90.651,502.876 90.651,505.602" style="fill:none;stroke:black;stroke-width:1px;"/>
        </g>
        <g transform="matrix(0.75,0,0,-0.75,0,432)">
            <path d="M76.677,511.265C76.459,511.211 77.129,511.3 77.35,511.26C77.784,511.181 78.208,511.049 78.641,510.962C79.707,510.749 80.771,510.459 81.817,510.168C85.282,509.205 88.018,507.366 91.147,505.801" style="fill:none;stroke:black;stroke-width:1px;"/>
        </g>
        <g transform="matrix(0.75,0,0,-0.75,0,432)">
            <path d="M76.531,511.2C76.645,511.02 79.745,511.587 80.129,511.657C83.735,512.313 87.334,512.451 90.949,512.451" style="fill:none;stroke:black;stroke-width:1px;"/>
        </g>
        <g transform="matrix(0.75,0,0,-0.75,0,432)">
            <path d="M93.564,553.969C93.553,553.961 93.53,554.925 93.53,555.034L93.53,556.821C93.53,558.899 94.3,560.432 96.21,561.387C101.335,563.949 108.696,564.265 114.275,564.265C119.456,564.265 124.59,564.084 129.76,563.868C139.532,563.461 149.457,564.265 159.24,564.265C167.133,564.265 176.431,564.506 179.39,555.63C179.907,554.08 180.575,552.602 180.78,550.964C181.877,542.187 169.63,541.622 163.508,540.542C146.189,537.485 128.023,538.557 110.503,538.557C106.177,538.557 101.025,538.655 97.302,541.138C96.377,541.754 94.82,542.526 94.522,543.718C94.304,544.593 94.324,546.253 94.324,546.994" style="fill:none;stroke:black;stroke-width:1px;"/>
        </g>
        <g transform="matrix(0.75,0,0,-0.75,0,432)">
            <path d="M74.372,521.725C74.372,531.151 81.223,539.218 85.887,546.795C87.186,548.907 90.691,553.148 93.53,553.148" style="fill:none;stroke:black;stroke-width:1px;"/>
        </g>
        <g transform="matrix(0.75,0,0,-0.75,0,432)">
            <path d="M74.031,521.804C74.27,521.68 74.124,522.351 74.273,522.576C74.648,523.138 74.847,523.769 75.166,524.362C76.184,526.253 77.216,528.077 78.343,529.921C81.37,534.874 85.267,540.894 90.055,544.314C90.999,544.988 93.469,547.093 94.423,547.093" style="fill:none;stroke:black;stroke-width:1px;"/>
        </g>
        <g transform="matrix(0.75,0,0,-0.75,0,432)">
            <path d="M334.342,494.038C330.669,490.581 324.423,496.376 322.623,499.299C321.765,500.693 321.397,502.456 321.333,504.064C321.007,512.201 328.399,516.38 335.825,515.28C342.906,514.231 347.277,505.733 344.262,499.101C342.732,495.735 336.42,491.756 332.649,493.641" style="fill:none;stroke:black;stroke-width:1px;"/>
        </g>
        <g transform="matrix(0.75,0,0,-0.75,0,432)">
            <path d="M333.223,516.128C333.264,516.215 333.231,518.38 333.244,518.655C333.372,521.342 333.307,524.113 333.145,526.794C332.739,533.486 332.946,540.183 332.946,546.845" style="fill:none;stroke:black;stroke-width:1px;"/>
        </g>
        <g transform="matrix(0.75,0,0,-0.75,0,432)">
            <path d="M321.55,522.081C321.344,522.613 323.566,524.362 323.914,524.71C326.321,527.118 328.981,529.38 331.358,531.757C331.735,532.134 332.768,533.981 333.443,533.643C334.452,533.139 335.178,531.756 335.924,530.963C338.511,528.215 341.462,523.666 345.056,522.228" style="fill:none;stroke:black;stroke-width:1px;"/>
        </g>
        <g transform="matrix(0.75,0,0,-0.75,0,432)">
            <path d="M320.775,563.324C320.423,563.309 321.131,562.717 321.333,562.429C321.455,562.254 322.127,561.457 322.226,561.337C323.326,560.018 324.331,558.582 325.303,557.168C327.11,554.541 329.326,552.291 331.16,549.724C331.696,548.973 332.613,546.962 333.443,546.547C333.982,546.278 335.877,548.568 336.123,548.83C338.031,550.865 339.817,553.025 341.582,555.183C342.5,556.304 343.536,558.095 344.858,558.756" style="fill:none;stroke:black;stroke-width:1px;"/>
        </g>
        <g transform="matrix(0.75,0,0,-0.75,0,432)">
            <path d="M323.197,497.502C323.844,497.803 322.611,498.809 322.425,499.498C322.194,500.35 322.012,501.215 321.829,502.078C320.973,506.127 319.447,510.419 319.447,514.585" style="fill:none;stroke:black;stroke-width:1px;"/>
        </g>
        <g transform="matrix(0.75,0,0,-0.75,0,432)">
            <path d="M323.631,498.147C323.443,497.674 323.074,499.012 322.921,499.498C322.276,501.55 322.198,502.885 321.73,505.056C320.965,508.607 319.162,512.116 318.653,515.677" style="fill:none;stroke:black;stroke-width:1px;"/>
        </g>
        <g transform="matrix(0.75,0,0,-0.75,0,432)">
            <path d="M322.236,500.254C322.124,500.702 322.539,499.365 322.822,499.001C323.623,497.972 324.223,496.995 325.204,496.123C327.492,494.089 331.908,492.303 335.031,493.343C339.609,494.869 343.402,498.272 345.255,502.674C346.019,504.488 346.487,506.421 346.942,508.332C347.174,509.305 347.138,510.613 348.133,511.111" style="fill:none;stroke:black;stroke-width:1px;"/>
        </g>
        <g transform="matrix(0.75,0,0,-0.75,0,432)">
            <path d="M343.784,499.582C343.401,499.885 344.82,502.784 344.858,502.872C346.306,506.285 347.464,509.698 348.63,513.196" style="fill:none;stroke:black;stroke-width:1px;"/>
        </g>
        <g transform="matrix(0.75,0,0,-0.75,0,432)">
            <path d="M344.563,502.455C344.327,503.989 345.251,505.872 345.751,507.24C346.714,509.873 347.671,512.569 348.927,515.082" style="fill:none;stroke:black;stroke-width:1px;"/>
        </g>
        <g transform="matrix(0.75,0,0,-0.75,0,432)">
            <path d="M345.339,504.707C345.435,504.408 345.324,505.338 345.354,505.652C345.455,506.7 345.832,507.78 346.22,508.751C347.416,511.742 349.22,514.231 351.31,516.67" style="fill:none;stroke:black;stroke-width:1px;"/>
        </g>
        <g transform="matrix(0.75,0,0,-0.75,0,432)">
            <path d="M329.296,493.841C327.709,493.784 326.635,495.232 325.502,496.123C322.743,498.291 321.345,500.602 320.837,504.163" style="fill:none;stroke:black;stroke-width:1px;"/>
        </g>
        <g transform="matrix(0.75,0,0,-0.75,0,432)">
            <path d="M322.974,497.805C323.016,497.81 322.336,498.782 322.326,498.803C321.834,499.763 321.433,501.243 321.134,502.178C319.895,506.062 318.677,510.016 317.76,513.99" style="fill:none;stroke:black;stroke-width:1px;"/>
        </g>
        <g transform="matrix(0.75,0,0,-0.75,0,432)">
            <path d="M322.065,499.675C321.763,499.845 321.906,500.35 321.829,500.689C321.44,502.411 321.073,504.139 320.638,505.85C319.624,509.842 318.17,513.607 316.767,517.464" style="fill:none;stroke:black;stroke-width:1px;"/>
        </g>
        <g transform="matrix(0.75,0,0,-0.75,0,432)">
            <path d="M321.404,504.668C321.752,504.562 321.054,505.308 320.936,505.652C320.724,506.266 320.608,506.91 320.44,507.538C319.819,509.852 319.273,512.234 318.454,514.486" style="fill:none;stroke:black;stroke-width:1px;"/>
        </g>
        <g transform="matrix(0.75,0,0,-0.75,0,432)">
            <path d="M320.471,503.021C320.314,502.774 321.036,501.796 321.134,501.582C321.794,500.153 322.366,498.596 323.417,497.413C326.728,493.688 334.021,490.927 338.406,494.435C342.186,497.46 346.431,502.741 347.538,507.538C348.086,509.914 348.546,512.15 349.324,514.486C349.44,514.832 349.903,516.231 350.416,515.975" style="fill:none;stroke:black;stroke-width:1px;"/>
        </g>
        <g transform="matrix(0.75,0,0,-0.75,0,432)">
            <path d="M345.156,507.369C345.156,507.18 345.11,507.752 345.156,507.935C345.364,508.769 345.819,509.522 346.148,510.317C346.783,511.851 347.411,513.247 348.233,514.685" style="fill:none;stroke:black;stroke-width:1px;"/>
        </g>
        <g transform="matrix(0.75,0,0,-0.75,0,432)">
            <path d="M328.703,500.334C328.555,500.084 328.94,499.66 329.175,499.895C329.338,500.058 328.976,500.398 328.976,500.093" style="fill:none;stroke:black;stroke-width:1px;"/>
        </g>
        <g transform="matrix(0.75,0,0,-0.75,0,432)">
            <path d="M336.725,500.294C336.327,500.145 337.016,499.928 337.016,500.192" style="fill:none;stroke:black;stroke-width:1px;"/>
        </g>
        <g transform="matrix(0.75,0,0,-0.75,0,432)">
            <path d="M327.016,506.143C326.794,506.191 327.567,507.019 327.586,507.041C328.531,508.143 329.219,508.796 330.564,509.424C333.308,510.704 338.108,510.779 338.108,506.644" style="fill:none;stroke:black;stroke-width:1px;"/>
        </g>
        <g transform="matrix(0.75,0,0,-0.75,0,432)">
            <path d="M288.611,529.799C288.256,529.947 288.407,531.477 288.419,531.659C288.568,533.896 288.943,536.094 288.943,538.342C288.943,543.373 286.714,548.04 283.178,551.576C279.499,555.255 273.826,556.56 268.895,557.473C255.289,559.992 240.39,558.22 226.703,557.08C221.565,556.651 214.495,556.362 210.324,552.887C204.652,548.16 204.384,541.013 203.903,534.28C203.07,522.614 203.756,509.041 215.303,502.963C219.521,500.743 224.292,500.199 228.93,499.425C240.373,497.518 252.246,498.246 263.785,498.77C269.467,499.029 277.391,499.409 282.129,503.094C285.55,505.755 287.592,511.067 289.074,515.018C289.546,516.275 289.353,520.014 290.253,520.915C290.5,521.161 293.829,520.116 294.184,519.998C298.358,518.606 302.55,516.954 306.239,514.494C307.435,513.697 308.686,512.869 309.908,512.136C310.465,511.802 311.35,510.176 311.35,510.825C311.35,512.232 309.21,514.711 308.598,515.936C305.866,521.398 301.043,525.22 295.495,527.597C293.81,528.32 290.965,530.087 289.336,530.087" style="fill:none;stroke:black;stroke-width:1px;"/>
        </g>
        <g transform="matrix(0.75,0,0,-0.75,4.08081,436.211)">
            <path d="M104.109,185.917C104.521,185.733 103.974,185.101 103.791,184.996C102.567,184.297 101.332,185.173 101.208,186.531C101.119,187.516 101.888,187.669 102.604,188.206C103.547,188.913 104.491,190.057 105.535,190.579" style="fill:none;stroke:black;stroke-width:1px;"/>
        </g>
        <g transform="matrix(0.75,0,0,-0.75,4.08081,436.211)">
            <path d="M104.34,185.732C104.371,185.845 104.414,185.504 104.488,185.415C104.718,185.139 104.97,184.87 105.256,184.647C105.864,184.175 107.391,183.444 107.769,184.577C108.191,185.843 107.432,187.763 106.861,188.904C106.658,189.311 106.427,189.722 106.163,190.091C106.009,190.307 105.556,190.956 105.675,190.719C106.24,189.588 106.44,188.354 106.861,187.16C107.029,186.686 107.21,185.694 107.21,185.694C107.21,185.694 106.92,186.528 106.792,186.95C106.622,187.507 106.472,188.069 106.303,188.625C106.226,188.879 106.169,189.138 106.094,189.393C106.038,189.584 105.821,190.14 105.884,189.951C106.319,188.646 106.859,187.417 107.071,186.043C107.131,185.651 107.495,185.034 107.141,184.856C106.851,184.712 106.894,185.456 106.792,185.764C106.507,186.617 106.322,187.477 106.094,188.346C106.027,188.597 105.838,189.346 105.954,189.114C106.174,188.675 106.412,188.124 106.512,187.648C106.58,187.329 106.613,186.49 106.582,186.182C106.483,185.187 105.761,185.21 105.466,186.182C105.2,187.055 105.025,187.995 104.977,188.904C104.964,189.161 104.828,189.537 105.047,189.672C105.29,189.822 105.548,189.318 105.605,189.183C105.824,188.67 106.224,186.988 105.271,186.75C104.03,186.44 104.386,190.111 104.977,189.323C105.647,188.429 105.124,187.795 104.488,187.16C104.235,186.906 103.645,186.152 103.162,186.392C102.334,186.803 103.184,188.946 104.323,188.263C105.513,187.549 104.452,185.958 103.302,186.182C102.494,186.34 102.857,188.526 103.93,188.206C104.85,187.932 104.98,186.54 104.07,186.182C103.666,186.024 103.543,186.77 103.699,187.004C104.206,187.764 106.362,185.683 105.884,185.205C105.677,184.998 104.589,186.895 104.488,187.02C104.343,187.202 104.234,187.743 104.07,187.578C103.84,187.348 104.842,186.123 104.977,185.903C105.168,185.593 105.668,184.623 105.466,184.926C105.228,185.282 105.004,185.667 104.698,185.973C104.602,186.069 104.349,186.318 104.349,186.182C104.349,185.813 104.858,185.5 105.117,185.345C105.349,185.205 105.936,184.684 105.815,184.926C105.56,185.435 104.303,187.679 103.581,187.439C103.52,187.418 103.1,187.095 103.093,187.09L102.674,186.811C101.796,185.932 104.024,185.778 103.511,186.462C102.69,187.557 101.895,185.554 102.534,185.554C104.031,185.554 102.245,187.976 101.836,187.16C101.739,186.965 102.04,185.688 102.325,185.973C102.385,186.033 101.879,185.485 102.604,185.485C102.846,185.485 103.08,186.349 103.232,186.531C103.482,186.832 104.398,187.043 104.768,186.95C105.237,186.833 105.604,186.186 105.745,185.764C105.815,185.554 105.954,185.136 105.954,185.136C105.954,185.136 105.688,186.14 106.024,186.392C106.508,186.755 107.353,185.49 107.141,185.066C106.745,184.275 106.079,185.958 106.373,186.252C106.76,186.64 107.051,184.378 106.652,184.577C106.221,184.793 106.416,185.863 105.884,186.182C105.384,186.483 104.18,186.815 103.651,186.392C103.371,186.168 103.592,185.554 103.302,185.554" style="fill:none;stroke:black;stroke-width:1px;"/>
        </g>
        <g transform="matrix(0.75,0,0,-0.75,1.86168,435.971)">
            <path d="M165.095,186.01C164.934,186.196 165.464,185.586 165.416,185.345C165.326,184.896 164.7,184.219 164.299,184.019C163.13,183.434 161.379,184.627 160.81,185.624C160.546,186.085 160.965,186.668 161.228,187.02C162.068,188.139 163.482,189.168 164.578,190.021C164.653,190.079 166.077,191.104 166.114,191.068C166.234,190.947 166.236,190.489 166.393,190.3C167.591,188.862 168.81,187.439 169.324,185.554C169.432,185.16 169.74,183.703 169.324,183.391C168.322,182.639 165.961,184.366 165.346,185.136C165.101,185.442 165.016,185.826 164.927,186.182C164.886,186.347 164.788,186.84 164.788,186.671C164.788,185.619 166.855,183.67 167.858,183.67C168.171,183.67 167.461,184.156 167.23,184.368C166.787,184.774 166.309,185.178 165.904,185.624C165.738,185.807 165.181,186.261 165.416,186.182C165.797,186.055 166.236,185.46 166.532,185.205C166.695,185.066 166.858,184.926 167.021,184.787C169.243,182.882 165.625,185.41 165.625,185.973C165.625,186.373 166.282,185.515 166.602,185.275C166.88,185.066 167.83,183.949 168.138,183.949C168.493,183.949 167.776,184.561 167.579,184.856C167.347,185.205 167.114,185.554 166.881,185.903C166.77,186.07 166.443,186.571 166.532,186.392C166.914,185.628 167.669,184.886 168.207,184.228C168.23,184.201 168.683,183.657 168.836,183.81C169.331,184.305 167.826,186.859 167.579,187.229C167.3,187.648 166.742,188.486 166.742,188.486C166.742,188.486 167.115,187.788 167.3,187.439C167.671,186.739 167.653,186.803 167.998,186.113C168.133,185.842 168.561,185.061 168.347,185.275C167.47,186.153 167.341,188.884 166.183,189.463C166.006,189.551 166.309,189.084 166.393,188.904C166.49,188.697 166.583,188.487 166.672,188.276C166.924,187.677 167.44,186.78 167.44,186.113C167.44,185.789 167.101,186.664 166.951,186.95C166.653,187.522 166.402,188.118 166.114,188.695C165.997,188.928 165.887,189.163 165.765,189.393C165.691,189.531 165.555,189.968 165.555,189.812C165.555,188.56 166.323,187.224 166.323,185.903C166.323,185.631 166.113,186.408 166.044,186.671C165.793,187.632 165.846,187.601 165.555,188.555C165.414,189.02 165.137,189.951 165.137,189.951C165.137,189.951 165.253,189.302 165.276,188.974C165.311,188.485 165.557,186.603 165.206,186.252C165.05,186.096 165.051,186.666 164.997,186.88C164.959,187.034 164.198,189.4 164.16,189.323C163.938,188.88 163.728,188.263 163.601,187.788C163.529,187.517 163.531,186.67 163.531,186.95C163.531,187.376 163.616,187.801 163.741,188.206C163.817,188.455 164.336,188.987 164.09,188.904C163.647,188.757 161.963,187.112 162.624,186.671C162.765,186.577 163.742,187.786 163.671,187.857C163.218,188.31 161.717,186.549 161.717,186.113C161.717,185.384 163.521,185.819 163.741,186.113C163.94,186.379 162.208,186.83 161.926,186.811C161.497,186.782 161.496,186.132 161.577,185.833C161.779,185.09 162.645,184.627 163.322,184.996C163.56,185.126 164.132,185.605 163.9,185.953C162.952,187.376 162.077,183.947 163.671,184.507C164.472,184.789 164.783,186.841 164.02,187.299C163.745,187.464 163.612,186.774 163.601,186.741C163.482,186.382 162.933,184.232 163.52,184.086C164.303,183.89 164.481,186.553 164.439,187.02C164.422,187.201 164.147,187.611 164.09,187.439C163.519,185.725 165.302,186.601 165.206,186.601" style="fill:none;stroke:black;stroke-width:1px;"/>
        </g>
        <g transform="matrix(0.75,0,0,-0.75,0,432)">
            <path d="M282.131,97.309C277.772,95.43 273.238,102.994 272.953,106.41C272.839,107.777 273.528,109.017 274.567,109.883C274.797,110.075 276.422,110.83 276.422,111.158C276.422,111.403 273.154,113.637 272.828,114.057C271.036,116.361 269.917,119.391 269.698,122.288C269.604,123.534 269.802,125.122 271.089,125.766C271.394,125.918 273.4,126.137 273.176,126.809C272.804,127.924 270.97,129.364 270.278,130.403C268.205,133.512 267.52,137.977 269.466,141.3C270.673,143.36 273.509,146.727 275.958,147.328C276.979,147.579 278.152,147.248 278.972,146.633C279.085,146.549 279.837,145.586 280.016,145.705C280.543,146.057 280.74,147.492 281.059,148.024C282.132,149.812 283.963,151.367 285.928,152.081C290.911,153.893 294.998,151.398 299.376,149.647C300.189,149.322 301.881,151.537 302.506,151.85C304.673,152.933 307.171,153.506 309.578,153.589C312.754,153.698 315.757,153.273 318.736,152.081C320.344,151.439 321.888,149.49 323.605,149.299C325.92,149.042 328.181,151.93 330.213,152.777C334.164,154.423 339.828,154.845 343.661,152.545C344.6,151.982 345.074,150.679 345.979,150.227C346.716,149.858 348.081,150.988 348.646,151.27C350.579,152.236 352.34,152.313 354.442,152.313C356.956,152.313 359.906,151.502 361.63,149.531C362.038,149.064 362.023,147.979 362.325,147.676C362.894,147.107 365.832,147.722 366.615,147.676C369.076,147.531 371.061,145.732 372.179,143.619C374.2,139.802 371.461,138.752 370.209,135.62C369.887,134.814 371.817,133.7 372.064,132.837C372.489,131.348 372.221,129.331 371.948,127.852C371.492,125.392 370.495,123.344 368.586,121.708C367.791,121.026 366.139,120.473 365.571,119.621C365.359,119.303 366.353,118.748 366.499,118.578C367.105,117.871 367.249,117.058 367.31,116.143C367.561,112.385 366.586,108.378 363.948,105.594C362.483,104.047 360.243,102.813 358.152,102.348C357.807,102.271 356.843,102.189 356.413,102.232C356.12,102.261 355.47,102.843 355.602,102.58C356.351,101.081 354.477,99.556 353.515,98.754C350.931,96.601 348.052,94.602 344.704,93.885C341.782,93.259 338.484,93.634 335.778,94.928C334.874,95.361 334.142,96.113 333.111,96.32C332.222,96.497 329.647,94.276 328.822,93.885C325.885,92.494 322.176,92.158 318.968,92.03C316.468,91.93 313.938,92.591 311.78,93.885C310.482,94.664 309.251,96.429 307.839,96.899C306.939,97.199 304.994,94.892 304.245,94.465C302.394,93.409 300.092,92.982 297.985,92.842C295.201,92.656 292.941,93.753 290.333,94.465C289.155,94.786 287.797,94.45 286.856,95.392C285.815,96.433 285.276,98.3 284.073,99.102C283.419,99.538 283.027,98.433 282.682,98.174C281.762,97.485 280.706,97.423 279.668,97.943" style="fill:none;stroke:black;stroke-width:1px;"/>
        </g>
        <g transform="matrix(0.75,0,0,-0.75,0,432)">
            <path d="M252.486,102.401C254.119,100.795 256.972,103.96 255.207,105.362C253.988,106.33 251.188,105.988 251.729,103.971C251.929,103.227 252.77,102.736 253.352,102.348" style="fill:none;stroke:black;stroke-width:1px;"/>
        </g>
        <g transform="matrix(0.75,0,0,-0.75,0,432)">
            <path d="M260.518,99.755C260.671,100.054 260.75,99.092 261.003,98.87C261.526,98.413 262.733,98.081 263.295,98.643C265.145,100.492 262.757,102.232 260.887,102.232C259.78,102.232 259.023,101.029 259.844,100.145C260.476,99.465 260.429,99.562 261.119,99.102" style="fill:none;stroke:black;stroke-width:1px;"/>
        </g>
        <g transform="matrix(0.75,0,0,-0.75,0,432)">
            <path d="M269.242,96.171C269.227,96.235 269.377,95.52 269.494,95.364C269.787,94.972 270.505,94.781 270.973,94.812C272.112,94.89 273.583,96.838 273.292,97.943C272.518,100.876 266.945,98.749 269.582,95.972C270.311,95.204 270.282,95.273 271.089,94.697" style="fill:none;stroke:black;stroke-width:1px;"/>
        </g>
        <g transform="matrix(1.39873,0,0,-1.44111,22.4833,605.365)">
            <text x="13.02px" y="140.112px" style="font-family:'ComicRelief', 'Comic Relief', cursive;font-size:12.003px;"><tspan xmlns:ns0="http://sodipodi.sourceforge.net/DTD/sodipodi-0.dtd" ns0:role="line">learn to &#160; design &#160; software</tspan></text>
        </g>
        <g transform="matrix(0.75,0,0,-0.75,0,432)">
            <path d="M153.19,22.693C153.288,22.822 152.448,22.39 152.339,22.299C151.887,21.922 151.119,20.633 150.451,20.633" style="fill:none;stroke:black;stroke-width:2px;"/>
        </g>
        <g transform="matrix(0.75,0,0,-0.75,0,432)">
            <path d="M157.066,19.332C157.171,19.263 156.633,18.837 156.559,18.745C156.099,18.17 155.749,17.49 155.227,16.968" style="fill:none;stroke:black;stroke-width:2px;"/>
        </g>
        <g transform="matrix(0.75,0,0,-0.75,0,432)">
            <path d="M163.594,16.253C163.589,16.259 163.377,15.676 163.334,15.524C163.18,14.987 163,14.418 163,13.859" style="fill:none;stroke:black;stroke-width:2px;"/>
        </g>
        <g transform="matrix(0.75,0,0,-0.75,0,432)">
            <path d="M170.611,15.972C170.676,15.968 170.71,13.671 170.774,13.414" style="fill:none;stroke:black;stroke-width:2px;"/>
        </g>
        <g transform="matrix(0.75,0,0,-0.75,0,432)">
            <path d="M178.819,15.634C178.777,15.635 179.203,14.562 179.214,14.525C179.368,14.012 179.358,13.644 179.659,13.192" style="fill:none;stroke:black;stroke-width:2px;"/>
        </g>
        <g transform="matrix(0.75,0,0,-0.75,0,432)">
            <path d="M185.923,15.767C185.761,15.695 186.357,13.272 186.433,12.97" style="fill:none;stroke:black;stroke-width:2px;"/>
        </g>
        <g transform="matrix(0.75,0,0,-0.75,0,432)">
            <path d="M193.009,15.441C192.984,15.412 194.202,12.705 194.318,12.415" style="fill:none;stroke:black;stroke-width:2px;"/>
        </g>
        <g transform="matrix(0.75,0,0,-0.75,0,432)">
            <path d="M199.673,15.662C199.335,15.289 200.45,13.411 200.648,13.081" style="fill:none;stroke:black;stroke-width:2px;"/>
        </g>
        <g transform="matrix(0.75,0,0,-0.75,0,432)">
            <path d="M208.97,16.253C209.068,15.374 209.696,14.59 209.976,13.748" style="fill:none;stroke:black;stroke-width:2px;"/>
        </g>
        <g transform="matrix(0.75,0,0,-0.75,0,432)">
            <path d="M217.046,17.136C217.207,17.366 217.078,16.977 217.306,16.635C217.697,16.048 218.44,15.524 218.972,15.08" style="fill:none;stroke:black;stroke-width:2px;"/>
        </g>
        <g transform="matrix(0.75,0,0,-0.75,0,432)">
            <path d="M223.164,20.129C223.25,19.97 225.606,19.408 225.857,19.3" style="fill:none;stroke:black;stroke-width:2px;"/>
        </g>
        <g transform="matrix(0.75,0,0,-0.75,0,432)">
            <path d="M225.316,25.272C225.308,25.285 227.411,25.001 227.634,24.964" style="fill:none;stroke:black;stroke-width:2px;"/>
        </g>
        <g transform="matrix(0.75,0,0,-0.75,0,432)">
            <path d="M226.773,31.402C226.335,31.456 227.643,31.555 228.078,31.627C228.779,31.744 229.404,31.958 230.077,32.183" style="fill:none;stroke:black;stroke-width:2px;"/>
        </g>
        <g transform="matrix(0.75,0,0,-0.75,0,432)">
            <path d="M226.628,38.226C226.655,38.042 226.738,38.592 226.857,38.735C227.219,39.17 227.678,39.308 228.189,39.512" style="fill:none;stroke:black;stroke-width:2px;"/>
        </g>
        <g transform="matrix(0.75,0,0,-0.75,0,432)">
            <path d="M222.706,45.08C223.005,44.974 222.927,45.676 223.081,45.953C223.364,46.463 223.675,46.77 224.08,47.175" style="fill:none;stroke:black;stroke-width:2px;"/>
        </g>
        <g transform="matrix(0.75,0,0,-0.75,0,432)">
            <path d="M214.97,49.351C215.015,49.933 214.863,50.476 214.863,51.062" style="fill:none;stroke:black;stroke-width:2px;"/>
        </g>
        <g transform="matrix(0.75,0,0,-0.75,0,432)">
            <path d="M206.096,49.588C205.86,50.622 205.756,51.656 205.756,52.728" style="fill:none;stroke:black;stroke-width:2px;"/>
        </g>
        <g transform="matrix(0.75,0,0,-0.75,0,432)">
            <path d="M196.917,50.103C196.623,49.837 196.789,50.888 196.761,51.284C196.698,52.159 196.65,52.086 196.65,52.95" style="fill:none;stroke:black;stroke-width:2px;"/>
        </g>
        <g transform="matrix(0.75,0,0,-0.75,0,432)">
            <path d="M186.985,50.369C187.05,50.873 186.681,51.956 186.544,52.505" style="fill:none;stroke:black;stroke-width:2px;"/>
        </g>
        <g transform="matrix(0.75,0,0,-0.75,0,432)">
            <path d="M178.125,50.53C177.777,50.138 177.915,51.557 177.771,52.061" style="fill:none;stroke:black;stroke-width:2px;"/>
        </g>
        <g transform="matrix(0.75,0,0,-0.75,0,432)">
            <path d="M170.788,49.234C170.453,50.471 170.431,51.679 170.219,52.95" style="fill:none;stroke:black;stroke-width:2px;"/>
        </g>
        <g transform="matrix(0.75,0,0,-0.75,0,432)">
            <path d="M165.451,48.791C165.376,49.325 164.468,50.489 164.222,51.062" style="fill:none;stroke:black;stroke-width:2px;"/>
        </g>
        <g transform="matrix(0.75,0,0,-0.75,0,432)">
            <path d="M160.089,46.464C160.264,46.783 159.387,46.713 159.114,46.953C158.586,47.415 158.223,47.954 157.67,48.396" style="fill:none;stroke:black;stroke-width:2px;"/>
        </g>
        <g transform="matrix(0.75,0,0,-0.75,0,432)">
            <path d="M156.521,42.352C156.628,42.485 155.74,42.386 155.671,42.4C154.689,42.596 153.805,42.844 152.783,42.844" style="fill:none;stroke:black;stroke-width:2px;"/>
        </g>
        <g transform="matrix(0.75,0,0,-0.75,0,432)">
            <path d="M150.788,36.633C150.622,36.219 149.899,36.736 149.452,36.736C148.439,36.736 147.731,36.669 146.787,36.292" style="fill:none;stroke:black;stroke-width:2px;"/>
        </g>
        <g transform="matrix(0.75,0,0,-0.75,0,432)">
            <path d="M148.695,30.4C148.063,30.584 146.604,29.658 146.12,29.295" style="fill:none;stroke:black;stroke-width:2px;"/>
        </g>
        <g transform="matrix(0.75,0,0,-0.75,0,432)">
            <path d="M149.889,26.318C150.029,25.883 148.973,26.168 148.563,25.964C148.11,25.737 147.611,25.281 147.231,24.964" style="fill:none;stroke:black;stroke-width:2px;"/>
        </g>
    </g>
</svg>