<!DOCTYPE svg PUBLIC "-//W3C//DTD SVG 1.1//EN" "http://www.w3.org/Graphics/SVG/1.1/DTD/svg11.dtd">
<svg xmlns="http://www.w3.org/2000/svg" xmlns:xlink="http://www.w3.org/1999/xlink" xmlns:serif="http://www.serif.com/" width="100%" height="100%" viewBox="0 0 384 576" version="1.1" xml:space="preserve" style="fill-rule:evenodd;clip-rule:evenodd;stroke-linecap:round;stroke-linejoin:round;stroke-miterlimit:1.5;">
    <g id="g10" transform="matrix(1.33333,0,0,-1.33333,0,576)">
        <g transform="matrix(0.829528,0,0,-0.854665,2.84693,494.998)">
            <text x="13.02px" y="140.109px" style="font-family:'ComicRelief', 'Comic Relief', cursive;font-size:12px;"><tspan xmlns:ns0="http://sodipodi.sourceforge.net/DTD/sodipodi-0.dtd" ns0:role="line">I started learning Linux in high school. After using</tspan></text>
            <text x="13.02px" y="158.109px" style="font-family:'ComicRelief', 'Comic Relief', cursive;font-size:12px;"><tspan xmlns:ns0="http://sodipodi.sourceforge.net/DTD/sodipodi-0.dtd" ns0:role="line">it every day for 10 years, I realized something kind</tspan></text>
            <text x="13.02px" y="176.109px" style="font-family:'ComicRelief', 'Comic Relief', cursive;font-size:12px;"><tspan xmlns:ns0="http://sodipodi.sourceforge.net/DTD/sodipodi-0.dtd" ns0:role="line">of scary:</tspan></text>
        </g>
        <g transform="matrix(0.829528,0,0,-0.854665,0.191359,364.793)">
            <text x="13.02px" y="140.109px" style="font-family:'ComicRelief', 'Comic Relief', cursive;font-size:12px;"><tspan xmlns:ns0="http://sodipodi.sourceforge.net/DTD/sodipodi-0.dtd" ns0:role="line">There were all KINDS of concepts that I either</tspan></text>
            <text x="13.02px" y="158.109px" style="font-family:'ComicRelief', 'Comic Relief', cursive;font-size:12px;"><tspan xmlns:ns0="http://sodipodi.sourceforge.net/DTD/sodipodi-0.dtd" ns0:role="line">didn't understand or didn't even know existed:</tspan></text>
        </g>
        <g transform="matrix(0.829528,0,0,-0.854665,1.96362,260.801)">
            <text x="13.02px" y="140.109px" style="font-family:'ComicRelief', 'Comic Relief', cursive;font-size:12px;"><tspan xmlns:ns0="http://sodipodi.sourceforge.net/DTD/sodipodi-0.dtd" ns0:role="line">Just today (4 years later!) I realized I don't fully</tspan></text>
            <text x="13.02px" y="158.109px" style="font-family:'ComicRelief', 'Comic Relief', cursive;font-size:12px;"><tspan xmlns:ns0="http://sodipodi.sourceforge.net/DTD/sodipodi-0.dtd" ns0:role="line">understand how Linux users/groups work. No big</tspan></text>
            <text x="13.02px" y="176.109px" style="font-family:'ComicRelief', 'Comic Relief', cursive;font-size:12px;"><tspan xmlns:ns0="http://sodipodi.sourceforge.net/DTD/sodipodi-0.dtd" ns0:role="line">deal! I picked my copy of "The Linux Programming</tspan></text>
            <text x="13.02px" y="194.109px" style="font-family:'ComicRelief', 'Comic Relief', cursive;font-size:12px;"><tspan xmlns:ns0="http://sodipodi.sourceforge.net/DTD/sodipodi-0.dtd" ns0:role="line">Interface", read Chapter 9, and now I understand.</tspan></text>
        </g>
        <g transform="matrix(0.718405,0,0,-0.740175,115.2,425.449)">
            <text x="13.02px" y="140.109px" style="font-family:'ComicRelief', 'Comic Relief', cursive;font-size:12px;"><tspan xmlns:ns0="http://sodipodi.sourceforge.net/DTD/sodipodi-0.dtd" ns0:role="line">um... I don't know</tspan></text>
            <text x="13.02px" y="158.109px" style="font-family:'ComicRelief', 'Comic Relief', cursive;font-size:12px;"><tspan xmlns:ns0="http://sodipodi.sourceforge.net/DTD/sodipodi-0.dtd" ns0:role="line">what the Linux</tspan></text>
            <text x="13.02px" y="176.109px" style="font-family:'ComicRelief', 'Comic Relief', cursive;font-size:12px;"><tspan xmlns:ns0="http://sodipodi.sourceforge.net/DTD/sodipodi-0.dtd" ns0:role="line">kernel DOES at all!!!</tspan></text>
        </g>
        <g transform="matrix(0.718405,0,0,-0.740175,59.9813,170.223)">
            <text x="13.02px" y="140.109px" style="font-family:'ComicRelief', 'Comic Relief', cursive;font-size:12px;"><tspan xmlns:ns0="http://sodipodi.sourceforge.net/DTD/sodipodi-0.dtd" ns0:role="line">ugh, how can I</tspan></text>
            <text x="13.02px" y="158.109px" style="font-family:'ComicRelief', 'Comic Relief', cursive;font-size:12px;"><tspan xmlns:ns0="http://sodipodi.sourceforge.net/DTD/sodipodi-0.dtd" ns0:role="line">not know that</tspan></text>
            <text x="13.02px" y="176.109px" style="font-family:'ComicRelief', 'Comic Relief', cursive;font-size:12px;"><tspan xmlns:ns0="http://sodipodi.sourceforge.net/DTD/sodipodi-0.dtd" ns0:role="line">already?</tspan></text>
        </g>
        <g transform="matrix(0.718405,0,0,-0.740175,189.125,171.01)">
            <text x="13.02px" y="140.109px" style="font-family:'ComicRelief', 'Comic Relief', cursive;font-size:12px;"><tspan xmlns:ns0="http://sodipodi.sourceforge.net/DTD/sodipodi-0.dtd" ns0:role="line">today is the</tspan></text>
            <text x="13.02px" y="158.109px" style="font-family:'ComicRelief', 'Comic Relief', cursive;font-size:12px;"><tspan xmlns:ns0="http://sodipodi.sourceforge.net/DTD/sodipodi-0.dtd" ns0:role="line">best day to</tspan></text>
            <text x="13.02px" y="176.109px" style="font-family:'ComicRelief', 'Comic Relief', cursive;font-size:12px;"><tspan xmlns:ns0="http://sodipodi.sourceforge.net/DTD/sodipodi-0.dtd" ns0:role="line">start learning!</tspan></text>
        </g>
        <g transform="matrix(0.716909,0.0463313,0.0477353,-0.738634,121.418,271.76)">
            <text x="13.02px" y="140.109px" style="font-family:'ComicRelief', 'Comic Relief', cursive;font-size:12px;"><tspan xmlns:ns0="http://sodipodi.sourceforge.net/DTD/sodipodi-0.dtd" ns0:role="line">&#64257;le descriptor</tspan></text>
        </g>
        <g transform="matrix(0.715698,0.0622997,0.0641876,-0.737386,206.523,306.744)">
            <text x="13.02px" y="140.109px" style="font-family:'ComicRelief', 'Comic Relief', cursive;font-size:12px;"><tspan xmlns:ns0="http://sodipodi.sourceforge.net/DTD/sodipodi-0.dtd" ns0:role="line">interrupts</tspan></text>
        </g>
        <g transform="matrix(0.718405,0,0,-0.740175,227.74,278.252)">
            <text x="13.02px" y="140.109px" style="font-family:'ComicRelief', 'Comic Relief', cursive;font-size:12px;"><tspan xmlns:ns0="http://sodipodi.sourceforge.net/DTD/sodipodi-0.dtd" ns0:role="line">TCP</tspan></text>
        </g>
        <g transform="matrix(0.75,0,0,-0.75,0,432)">
            <path d="M327.688,327.864C322.842,320.292 309.666,326.74 309.011,334.59C308.439,341.453 317.235,346.744 321.542,350.744C323.441,352.508 325.342,354.649 326.742,356.848C326.905,357.105 327.786,358.883 328.211,358.883C328.378,358.883 328.906,358.161 329.003,358.092C330.677,356.896 332.254,355.669 333.863,354.361C339.499,349.782 344.65,342.804 345.393,335.371C345.61,333.198 346.245,330.17 344.602,328.363C342.198,325.719 337.213,323.41 333.637,325.198C332.336,325.848 330.995,326.908 329.681,327.346C328.895,327.608 328.774,328.589 328.098,328.589" style="fill:none;stroke:black;stroke-width:1px;"/>
        </g>
        <g transform="matrix(0.716757,0.0486255,0.050099,-0.738477,138.307,306.622)">
            <text x="13.02px" y="140.109px" style="font-family:'ComicRelief', 'Comic Relief', cursive;font-size:12px;"><tspan xmlns:ns0="http://sodipodi.sourceforge.net/DTD/sodipodi-0.dtd" ns0:role="line">futex</tspan></text>
        </g>
        <g transform="matrix(0.698747,0.166905,0.171963,-0.719922,-10.1946,302.064)">
            <text x="20.249px" y="140.109px" style="font-family:'ComicRelief', 'Comic Relief', cursive;font-size:12px;"><tspan xmlns:ns0="http://sodipodi.sourceforge.net/DTD/sodipodi-0.dtd" ns0:role="line">virtual</tspan></text>
            <text x="16.622px" y="158.109px" style="font-family:'ComicRelief', 'Comic Relief', cursive;font-size:12px;"><tspan xmlns:ns0="http://sodipodi.sourceforge.net/DTD/sodipodi-0.dtd" ns0:role="line">memory</tspan></text>
        </g>
        <g transform="matrix(0.75,0,0,-0.75,0,432)">
            <path d="M20.864,293.155C21.235,292.599 23.797,294.26 24.543,293.812C26.31,292.752 26.453,289.998 28.114,288.891C28.688,288.508 29.473,289.136 29.947,289.373C31.115,289.957 32.524,290.245 33.711,289.566C35.543,288.52 35.751,285.756 37.668,284.934C38.42,284.612 38.935,285.406 39.501,285.803C40.466,286.478 42.269,287.214 43.458,286.768C45.224,286.106 46.042,283.603 47.8,283.101C49.606,282.585 50.439,285.171 52.336,284.934C54.39,284.677 55.258,281.645 57.258,281.074C58.167,280.814 58.641,281.804 59.284,282.232C60.216,282.854 61.355,283.116 62.469,283.004C64.268,282.824 65.235,281.703 66.715,280.881C67.124,280.654 68.048,280.102 68.548,280.302C70.006,280.885 69.87,282.982 72.022,283.197C73.343,283.329 74.774,281.734 75.979,282.136C76.524,282.317 76.643,284.247 77.137,284.741C78.321,285.925 80.076,287.176 81.576,287.926C81.955,288.115 82.924,288.116 83.217,288.408C83.289,288.48 82.768,289.209 82.734,289.277C82.358,290.029 82.187,290.89 82.734,291.593C83.898,293.089 87.276,293.934 87.752,295.839C87.985,296.768 86.08,297.634 86.594,299.12C87.275,301.089 91.323,302.666 91.323,304.814C91.323,305.14 90.395,304.969 90.261,305.007C89.578,305.202 89.256,305.878 89.2,306.551C89.015,308.763 89.806,311.248 90.165,313.402C90.174,313.456 90.715,315.058 90.551,315.14C89.449,315.69 88.255,314.585 87.366,316.008C86.73,317.025 87.615,320.058 86.401,320.544C85.135,321.05 83.63,319.834 82.252,320.447C80.639,321.164 80.111,323.565 78.295,323.825C76.821,324.035 75.577,322.09 73.856,322.377C71.433,322.781 70.238,326.451 67.68,326.816C65.543,327.122 64.13,324.654 61.697,325.465C59.514,326.193 58.18,328.753 55.906,329.132C53.904,329.466 52.074,326.969 49.73,327.395C47.451,327.81 46.027,331.255 43.747,331.255C42.335,331.255 41.567,328.697 39.984,328.553C36.814,328.265 34.904,331.301 32.07,331.931C29.894,332.415 29.526,328.957 27.631,328.746C26.727,328.646 25.145,329.831 24.447,329.132C23.811,328.497 23.921,327.031 23.868,326.237C23.7,323.715 25.315,320.934 24.736,318.517C24.326,316.802 21.646,316.77 21.262,315.236C20.91,313.829 21.847,312.374 22.613,311.279C22.945,310.806 23.748,309.791 23.385,309.156C22.453,307.526 19.34,307.529 18.464,306.068C18.194,305.618 18.773,305.05 19.043,304.814C19.915,304.05 22.044,303.392 22.227,302.112C22.398,300.918 19.519,299.969 19.139,298.831C18.873,298.032 21.661,297.233 22.034,296.611C22.643,295.596 21.648,293.668 21.648,292.558" style="fill:none;stroke:black;stroke-width:1px;"/>
        </g>
        <g transform="matrix(0.718405,0,0,-0.740175,31.0471,271.069)">
            <text x="13.02px" y="140.109px" style="font-family:'ComicRelief', 'Comic Relief', cursive;font-size:12px;"><tspan xmlns:ns0="http://sodipodi.sourceforge.net/DTD/sodipodi-0.dtd" ns0:role="line">CPU scheduling</tspan></text>
        </g>
        <g transform="matrix(0.75,0,0,-0.75,0,432)">
            <path d="M53.991,338.057C54.374,338.197 54.965,338.978 55.355,339.217C56.981,340.218 58.903,340.958 60.839,340.43C61.875,340.147 62.962,339.286 63.549,338.406C63.733,338.13 63.746,337.333 64.198,337.514C64.706,337.717 65.159,338.431 65.658,338.731C67.357,339.75 69.621,340.116 71.58,339.866C72.887,339.699 74.169,338.811 74.906,337.757C75.162,337.391 75.633,336.053 76.204,336.053C76.736,336.053 77.584,337.372 77.989,337.676C79.299,338.658 80.667,339.163 82.289,339.298C84.311,339.467 87.018,339.038 88.698,337.838C89.136,337.525 90.028,335.729 90.482,335.729C91.238,335.729 92.725,336.962 93.403,337.27C95.534,338.239 98.747,339.294 101.11,338.974C102.16,338.832 103.272,338.306 104.112,337.676C104.743,337.202 104.932,336.321 105.734,336.053C106.223,335.89 107.038,337.531 107.438,337.838C108.812,338.895 110.505,339.392 112.224,339.542C113.492,339.652 115.026,339.684 116.199,339.136C116.887,338.815 118.107,337.149 118.958,337.433C119.712,337.684 120.346,338.679 120.986,339.136C122.686,340.351 124.336,341.222 126.421,341.327C127.463,341.379 128.926,341.246 129.747,340.515C129.795,340.473 130.686,339.229 130.802,339.461C131.834,341.524 133.617,343.94 135.994,344.653C137.225,345.022 138.721,344.913 139.888,345.302C140.07,345.362 140.036,346.666 140.05,346.843C140.215,348.824 140.468,350.519 141.348,352.36C141.856,353.421 142.417,354.41 143.214,355.28C143.447,355.534 143.683,355.786 143.944,356.01C144.076,356.123 144.505,356.257 144.35,356.335C142.604,357.208 140.914,357.451 139.32,358.931C138.607,359.593 137.933,360.389 137.535,361.284C137.411,361.564 137.342,362.082 136.968,362.176C136.465,362.302 134.975,360.949 134.534,360.716C133.217,360.019 131.795,359.763 130.315,359.904C128.64,360.064 126.52,360.989 125.367,362.257C125.052,362.603 124.763,363.249 124.312,363.474C123.875,363.692 121.735,361.961 121.31,361.77C118.711,360.601 115.837,360.612 113.035,360.716C111.677,360.766 110.202,361.078 108.979,361.689C107.998,362.18 106.797,363.505 105.734,363.717C105.272,363.81 103.76,362.649 103.3,362.419C101.317,361.428 99.344,360.808 97.135,360.553C94.557,360.256 91.898,360.08 89.428,361.04C88.306,361.476 87.302,362.844 86.183,363.068C85.695,363.166 84.788,362.018 84.398,361.77C83.491,361.193 82.268,360.8 81.234,360.553C78.83,359.981 75.512,359.644 73.121,360.391C71.978,360.748 71.302,361.631 70.363,362.257C69.92,362.553 69.284,361.775 68.984,361.608C67.72,360.906 66.186,360.534 64.766,360.31C62.784,359.997 60.509,360.281 58.6,360.878C57.574,361.199 56.831,362.172 55.842,362.419C55.645,362.468 54.419,361.285 54.138,361.121C52.703,360.284 51.255,359.934 49.595,359.823C48.296,359.737 46.841,359.973 45.782,360.797C45.721,360.844 44.851,361.65 44.971,361.77C45.228,362.028 45.636,361.397 45.701,361.284C46.144,360.509 46.044,359.53 45.863,358.687C45.553,357.241 44.871,355.792 44.403,354.388C44.301,354.083 43.549,353.175 43.673,352.928C43.74,352.794 44.317,352.703 44.484,352.603C45.642,351.909 47.008,351.053 47.972,350.088C48.778,349.283 49.058,348.21 48.946,347.087C48.926,346.891 48.56,345.769 48.703,345.626C48.799,345.53 49.469,345.707 49.595,345.707C50.314,345.707 50.976,345.661 51.623,345.302C54.23,343.854 53.224,340.277 53.814,337.919" style="fill:none;stroke:black;stroke-width:1px;"/>
        </g>
        <g transform="matrix(0.75,0,0,-0.75,0,432)">
            <path d="M165.568,132.189C166.043,132.1 164.588,131.842 164.128,131.995C163.028,132.362 161.474,133.31 160.6,134.038C158.218,136.023 156.201,138.773 156.329,142.023C156.392,143.616 157.591,144.342 158.743,145.18C158.834,145.246 160.794,146.661 160.786,146.665C155.765,149.176 149.636,160.604 153.84,166.209C155.399,168.288 158.211,167.489 159.486,168.764C159.981,169.259 158.438,169.702 158,170.249C156.955,171.556 156.392,172.684 155.958,174.335C154.777,178.82 154.978,185.475 158.557,189.005C160.884,191.299 164.719,192.899 168.028,192.348C168.629,192.247 170.53,190.627 170.628,190.676C172.057,191.391 173.328,193.819 174.899,194.762C177.536,196.344 181.01,196.433 183.998,196.433C186.179,196.433 188.34,196.655 190.312,195.504C190.866,195.182 193.165,191.516 194.026,192.162C195.379,193.177 196.163,195.371 197.369,196.619C200.325,199.677 206.805,198.993 210.553,198.29C212.725,197.883 214.509,194.431 216.496,194.762C219.495,195.262 221.258,198.296 224.667,198.476C227.891,198.645 231.106,198.464 233.952,196.804C235.117,196.124 236.099,194.435 237.48,194.205C239.734,193.829 242.041,195.585 243.979,196.433C246.544,197.555 249.747,197.874 252.522,197.547C254.372,197.329 256.742,196.669 258.093,195.319C258.816,194.595 259.029,193.274 260.135,192.905C261.153,192.566 263.329,194.279 264.221,194.576C265.769,195.092 267.807,195.063 269.42,194.947C275.053,194.545 274.454,191.936 276.291,188.262C276.533,187.778 279.555,188.262 280.005,188.262C282.275,188.262 283.257,187.292 284.091,185.291C285.123,182.815 286.23,179.971 285.205,177.306C284.733,176.079 282.666,174.648 282.976,173.406C283.259,172.275 285.504,171.69 285.948,170.064C287.174,165.566 287.598,160.273 283.719,156.879C282.815,156.088 281.078,156.095 280.377,155.393C280.141,155.158 281.039,155.222 281.305,155.022C281.987,154.511 282.522,153.439 282.605,152.608C282.867,149.984 282.693,147.197 281.119,144.994C279.935,143.336 278.173,141.745 276.291,140.909C275.96,140.762 274.686,140.789 274.434,140.537C273.941,140.044 273.707,138.397 273.32,137.752C271.53,134.768 269.333,132.213 265.892,131.067C263.3,130.203 259.526,129.641 256.793,130.138C256.151,130.255 254.945,131.257 254.193,130.881C251.171,129.37 249.177,127.046 245.651,126.424C241.95,125.771 238.192,125.768 234.694,127.167C232.972,127.856 231.138,129.917 229.123,129.581C227.245,129.268 225.502,127.845 223.738,127.167C219.049,125.363 211.626,125.3 206.839,126.795C203.947,127.699 201.869,130.009 199.226,131.067C197.002,131.956 193.755,127.975 191.241,127.724C187.268,127.327 185.781,130.268 182.698,131.809C181.127,132.595 180.1,129.334 178.613,128.838C175.022,127.641 171.833,128.294 168.4,129.581C167.01,130.102 164.5,130.671 164.5,132.552" style="fill:none;stroke:black;stroke-width:1px;"/>
        </g>
        <g transform="matrix(0.75,0,0,-0.75,16.9431,428.615)">
            <path d="M71.347,143.057C68.11,142.386 64.123,145.685 62.14,147.785C54.91,155.44 56.394,170.385 68.412,171.827C70.746,172.107 73.191,172.163 75.431,171.379C79.551,169.937 83.77,166.715 84.689,162.12C86.321,153.961 79.887,142.708 70.951,142.708" style="fill:none;stroke:black;stroke-width:1px;"/>
        </g>
        <g transform="matrix(0.75,0,0,-0.75,16.9431,428.615)">
            <path d="M70.517,172.327C70.432,172.007 70.503,172.989 70.503,173.32L70.503,175.859C70.503,178.124 70.539,180.461 70.652,182.728C70.913,187.94 71.548,193.025 71.548,198.258C71.548,200.379 71.296,202.609 70.951,204.679C70.911,204.916 70.592,206.173 70.951,206.173" style="fill:none;stroke:black;stroke-width:1px;"/>
        </g>
        <g transform="matrix(0.75,0,0,-0.75,16.9431,428.615)">
            <path d="M55.794,178.708C56.041,178.669 56.995,179.999 57.212,180.189C58.411,181.238 59.796,182.026 60.946,183.176C63.455,185.685 66.343,188.381 69.159,190.493C69.618,190.837 71.178,192.733 71.548,192.733C72.046,192.733 72.925,191.389 73.191,191.09C74.75,189.336 76.257,187.475 77.969,185.864C79.19,184.715 84.092,182.14 84.092,180.189" style="fill:none;stroke:black;stroke-width:1px;"/>
        </g>
        <g transform="matrix(0.75,0,0,-0.75,16.9431,428.615)">
            <path d="M58.505,222.442C58.968,222.506 60.937,219.115 61.394,218.567C63.655,215.853 66.154,213.314 68.263,210.503C69.294,209.128 69.964,207.01 71.1,205.874C71.235,205.739 73.014,208.744 73.191,209.01C75.161,211.966 77.1,214.931 79.164,217.82C79.489,218.275 80.706,220.657 81.255,220.657" style="fill:none;stroke:black;stroke-width:1px;"/>
        </g>
        <g transform="matrix(0.75,0,0,-0.75,16.9431,428.615)">
            <path d="M65.384,153.106C65.406,153.135 65.267,153.161 65.426,153.161" style="fill:none;stroke:black;stroke-width:1px;"/>
        </g>
        <g transform="matrix(0.75,0,0,-0.75,16.9431,428.615)">
            <path d="M74.003,152.689C73.792,152.765 74.225,152.713 74.236,152.713" style="fill:none;stroke:black;stroke-width:1px;"/>
        </g>
        <g transform="matrix(0.75,0,0,-0.75,16.9431,428.615)">
            <path d="M65.183,165.471C65.021,165.282 67.781,163.888 68.114,163.763C70.789,162.76 74.029,162.718 76.775,162.718" style="fill:none;stroke:black;stroke-width:1px;"/>
        </g>
        <g transform="matrix(0.75,0,0,-0.75,16.9431,428.615)">
            <path d="M57.875,165.709C57.528,165.684 56.723,166.204 56.018,166.003C54.009,165.429 53.485,161.268 54.674,159.88C54.912,159.602 55.639,160.471 55.271,160.03C55.138,159.87 54.711,158.823 54.674,158.686C54.632,158.532 54.375,156.823 54.375,156.744C54.375,155.34 55.457,152.512 56.914,151.966C57.642,151.693 59.081,153.008 58.706,153.758C58.463,154.244 57.418,153.665 57.212,153.459C56.328,152.574 56.283,151.235 56.283,150.088C56.283,148.592 59.025,145.509 60.647,146.59C61.261,146.999 61.361,148.359 60.498,148.531C57.551,149.121 60.189,143.411 61.244,142.708C63.024,141.521 65.089,144.444 63.783,145.097C62.506,145.735 62.917,143.638 63.186,143.155C64.05,141.6 66.514,140.365 68.263,141.065C69.454,141.542 69.583,144.413 68.263,143.753C67.633,143.438 67.925,141.8 68.263,141.364C69.105,140.275 70.829,139.786 72.145,139.87C73.421,139.951 75.47,141.116 74.833,142.708C74.75,142.915 73.501,143.776 73.34,143.454C72.54,141.855 75.304,140.916 76.327,140.916C77.826,140.916 79.401,141.838 80.06,143.155C80.46,143.955 80.292,145.871 78.865,145.395C77.544,144.955 78.807,143.849 79.463,143.603C80.892,143.067 82.797,143.733 83.829,144.764C86.067,147.002 82.114,148.737 80.209,147.785" style="fill:none;stroke:black;stroke-width:1px;"/>
        </g>
        <g transform="matrix(0.75,0,0,-0.75,16.9431,428.615)">
            <path d="M93.84,133.566C93.516,133.818 94.224,132.81 94.545,132.553C95.132,132.083 96.77,131.528 97.382,132.254C98.713,133.836 97.675,136.916 95.889,137.63C91.686,139.312 90.431,134.522 94.545,133.15" style="fill:none;stroke:black;stroke-width:1px;"/>
        </g>
        <g transform="matrix(0.75,0,0,-0.75,16.9431,428.615)">
            <path d="M107.653,128.631C108.003,129.055 107.985,127.497 108.432,127.177C109.603,126.341 111.128,126.17 112.315,127.028C115.098,129.039 110.651,132.734 108.283,131.956C104.738,130.791 107.358,127.9 109.478,127.476" style="fill:none;stroke:black;stroke-width:1px;"/>
        </g>
        <g transform="matrix(0.75,0,0,-0.75,16.9431,428.615)">
            <path d="M123.169,129.086C123.386,129.237 123.278,128.49 123.515,128.372C124.023,128.118 125.188,128.034 125.755,128.223C127.786,128.899 128.603,132.162 126.053,132.702C122.492,133.458 118.445,129.863 123.365,128.223" style="fill:none;stroke:black;stroke-width:1px;"/>
        </g>
        <g transform="matrix(0.714461,0.0751679,0.0774457,-0.736112,63.3009,309.328)">
            <text x="18.653px" y="140.109px" style="font-family:'ComicRelief', 'Comic Relief', cursive;font-size:12px;"><tspan xmlns:ns0="http://sodipodi.sourceforge.net/DTD/sodipodi-0.dtd" ns0:role="line">system</tspan></text>
            <text x="28.953px" y="158.109px" style="font-family:'ComicRelief', 'Comic Relief', cursive;font-size:12px;"><tspan xmlns:ns0="http://sodipodi.sourceforge.net/DTD/sodipodi-0.dtd" ns0:role="line">call</tspan></text>
        </g>
        <g transform="matrix(0.75,0,0,-0.75,0,432)">
            <path d="M123.742,284.555C121.93,284.986 119.361,284.487 117.402,284.748C117.053,284.795 115.68,284.799 115.518,285.287C115.269,286.032 118.23,287.606 117.133,288.428C115.683,289.516 111.674,287.445 110.671,289.954C110.329,290.807 112.579,291.988 112.286,292.378C111.102,293.957 106.879,293.761 106.879,296.433C106.879,297.51 109.77,298.094 109.953,299.558C110.148,301.121 106.208,302.992 107.17,304.675C108.045,306.205 110.94,305.326 111.748,306.739C112.688,308.385 110.049,310.8 110.581,312.663C110.995,314.113 113.896,312.335 114.53,313.92C115.204,315.604 115.1,317.799 115.518,319.575C115.657,320.166 115.782,321.161 116.325,321.549C118.053,322.783 119.77,319.158 121.442,320.203C122.636,320.949 123.01,323.12 124.583,323.344C126.711,323.648 127.677,320.791 129.879,321.28C131.761,321.698 132.666,324.215 135.085,323.524C136.652,323.076 137.418,321.011 139.214,320.831C141.064,320.646 141.894,323.064 143.702,322.806C145.308,322.576 145.674,319.994 147.202,319.485C149.079,318.859 150.374,321.555 151.959,320.921C153.301,320.384 153.313,318.109 155.011,317.6C156.996,317.004 159.066,318.067 160.935,317.6C161.645,317.422 161.454,314.144 161.743,313.471C162.445,311.834 164.813,311.346 165.333,309.611C165.633,308.612 165.338,307.732 164.615,307.008C164.15,306.543 163.32,306.125 163.628,305.303C164.242,303.664 166.493,302.998 166.231,300.905C165.992,298.995 163.169,299.776 162.82,298.033C162.676,297.314 163.393,296.793 163.718,296.237C164.268,295.294 164.52,294.097 164.436,293.006C164.274,290.905 161.293,291.3 159.948,290.493C159.494,290.221 159.842,288.926 159.768,288.518C159.544,287.282 158.94,285.565 157.794,284.928C156.429,284.17 155.431,285.926 154.473,285.287C153.035,284.328 151.63,281.191 149.446,281.786C148.139,282.143 146.746,284.079 145.317,283.671C143.21,283.069 141.828,281.077 139.573,280.889C137.456,280.712 136.154,283.198 134.098,283.492C132.743,283.685 132.316,281.687 130.956,281.517C129.557,281.342 128.038,281.754 126.827,282.415C125.937,282.9 125.545,284.069 124.583,284.389" style="fill:none;stroke:black;stroke-width:1px;"/>
        </g>
        <g transform="matrix(0.75,0,0,-0.75,0,432)">
            <path d="M179.883,338.227C179.886,338.197 185.033,337.645 185.977,337.5C193.153,336.396 200.355,336.109 207.58,335.431C213.29,334.896 218.968,333.592 224.702,333.363C232.65,333.045 240.661,333.321 248.604,332.903C252.311,332.708 256.037,332.558 259.75,332.558C260.826,332.558 262.604,332.2 263.542,332.903C264.479,333.606 264.777,335.889 265.036,336.925C265.592,339.148 265.555,341.539 265.84,343.82C266.077,345.711 266.696,348.377 266.07,350.255C265.75,351.215 262.001,351.365 261.129,351.519C255.871,352.447 250.565,352.483 245.271,353.013C230.862,354.454 216.294,354.743 201.835,356C196.804,356.438 191.808,356.739 186.782,357.035C184.999,357.139 182.333,357.933 180.576,357.494C178.584,356.996 179.083,353.314 179.083,351.749C179.083,347.449 178.163,342.636 178.163,338.649C178.163,338.506 179.48,338.251 179.657,338.074" style="fill:none;stroke:black;stroke-width:1px;"/>
        </g>
        <g transform="matrix(0.75,0,0,-0.75,0,432)">
            <path d="M294.757,291.416C294.542,291.093 295.229,292.038 295.524,292.29C296.108,292.791 297.148,293.018 297.613,292.18C297.845,291.764 297.966,291.295 298.163,290.861C299.403,288.133 300.349,291.481 302.562,290.861C303.433,290.617 304.28,288.807 305.202,288.991C306.008,289.152 305.976,290.311 307.071,290.311C308.44,290.311 308.947,288.439 310.041,288.001C311.255,287.515 312.327,289.77 314,289.101C314.659,288.838 315.988,287.101 316.639,287.231C317.84,287.472 317.861,289.169 319.609,288.441C320.43,288.099 321.966,285.896 322.908,286.132C323.832,286.363 324.203,287.506 325.438,287.231C326.334,287.032 327.832,285.053 328.627,285.252C329.006,285.347 329.261,286.086 329.727,286.242C331.243,286.747 332.214,285.229 333.466,284.812C334.172,284.577 334.853,285.795 335.885,285.692C337.215,285.559 337.926,284.184 339.185,283.932C339.634,283.842 339.497,284.418 339.845,284.592C340.447,284.893 341.423,284.716 342.044,284.592C342.652,284.471 344.081,283.328 344.574,283.492C345.244,283.716 345.702,284.542 346.443,284.812C347.202,285.088 348.159,285.305 348.973,285.142C349.28,285.08 350.074,284.591 349.852,284.812C348.778,285.886 353.817,286.298 354.472,286.462C354.504,286.47 352.976,287.055 353.262,287.341C354.529,288.609 357.133,288.023 358.321,289.211C358.336,289.226 356.982,290.138 357.441,290.751C358.037,291.545 359.076,292.324 359.97,292.73C360.299,292.88 360.96,292.809 360.96,293.17C360.96,293.653 359.331,293.516 359.64,294.6C359.865,295.386 360.417,296.113 361.07,296.58C361.119,296.614 361.934,297.035 361.84,297.129C361.494,297.476 360.923,297.571 360.74,298.119C360.513,298.801 362.833,299.985 362.17,300.649C361.766,301.053 360.734,300.754 360.19,301.199C359.544,301.728 359.34,303.054 358.651,303.398C358.12,303.663 357.864,302.792 357.221,303.178C356.281,303.742 355.781,304.834 354.801,305.378C353.956,305.848 353.152,305.405 352.382,305.598C351.563,305.802 350.819,306.272 349.962,306.367C349.026,306.472 348.548,305.69 347.653,305.818C346.829,305.935 346.209,306.807 345.343,306.807C344.686,306.807 344.886,305.091 344.354,305.488C343.678,305.99 342.64,307.726 341.604,307.467C341.144,307.352 341.545,306.266 340.834,306.367C340.005,306.486 339.393,307.57 338.635,307.907C337.48,308.42 337.841,307.137 336.985,307.137C336.286,307.137 335.584,307.845 334.896,308.017C334.061,308.226 333.812,307.133 333.026,307.357C332.268,307.574 331.937,308.454 331.156,308.677C330.44,308.882 330.703,307.626 330.277,307.797C329.491,308.111 328.893,308.845 328.077,309.117C326.828,309.533 327.411,308.129 327.087,308.237C326.426,308.457 325.123,310.191 324.338,309.667C323.962,309.416 324.531,308.673 323.898,308.567C323.253,308.46 321.645,310.273 321.148,309.777C320.953,309.581 321.451,308.787 320.929,308.787C320.241,308.787 319.04,310.226 318.399,310.547C317.495,310.999 318.259,309.667 317.739,309.667C316.69,309.667 315.854,311.136 314.77,311.316C313.785,311.481 314.818,310.05 314,309.887C313.155,309.718 310.732,311.804 309.601,312.086C308.326,312.405 309.37,310.69 308.941,310.547C308.147,310.282 306.331,311.715 305.422,311.866C304.48,312.023 305.368,310.795 304.872,310.547C303.915,310.068 301.92,311.536 300.803,311.536C299.642,311.536 300.969,309.42 300.363,309.117C299.259,308.565 297.978,310.014 296.844,309.447C296.208,309.129 297.332,307.547 296.954,307.357C296.057,306.909 294.415,308.047 293.764,307.577C292.814,306.891 295.18,304.845 294.424,304.278C294.15,304.072 292.725,304.362 292.664,304.058C292.468,303.078 294.081,302.468 293.874,301.638C293.729,301.059 292.751,301.379 292.444,300.869C291.758,299.724 293.092,299.157 293.324,298.229C293.465,297.666 292.111,297.466 292.224,297.239C292.591,296.507 293.915,296.308 294.094,295.59C294.424,294.268 292.761,293.032 294.534,291.851" style="fill:none;stroke:black;stroke-width:1px;"/>
        </g>
        <g transform="matrix(0.75,0,0,-0.75,0,432)">
            <path d="M204.871,289.543C204.976,289.495 204.53,289.189 204.47,289.169C203.988,289.008 202.702,289.376 202.956,290.138C203.147,290.712 204.18,291.095 204.652,291.349C204.728,291.391 205.318,291.687 205.318,291.773" style="fill:none;stroke:black;stroke-width:1px;"/>
        </g>
        <g transform="matrix(0.75,0,0,-0.75,0,432)">
            <path d="M204.839,289.608C204.595,288.958 206.559,287.992 206.408,289.351C206.39,289.512 206.385,289.677 206.348,289.835C206.272,290.157 206.039,290.69 205.924,290.986C205.781,291.353 205.655,291.632 205.439,291.955" style="fill:none;stroke:black;stroke-width:1px;"/>
        </g>
        <g transform="matrix(0.75,0,0,-0.75,0,432)">
            <path d="M237.93,289.286C237.763,289.315 237.227,288.839 236.876,288.927C235.485,289.274 237.067,290.814 237.542,291.289C237.734,291.481 238.208,291.593 238.208,291.895" style="fill:none;stroke:black;stroke-width:1px;"/>
        </g>
        <g transform="matrix(0.75,0,0,-0.75,0,432)">
            <path d="M238.309,289.077C238.975,288.138 240.462,287.995 240.026,289.532C239.695,290.697 238.753,291.491 238.148,292.5" style="fill:none;stroke:black;stroke-width:1px;"/>
        </g>
        <g transform="matrix(0.75,0,0,-0.75,0,432)">
            <path d="M238.663,306.97C238.935,307.03 238.174,306.537 237.906,306.613C237.569,306.71 237.058,307.132 237.058,307.522C237.058,307.851 237.586,308.023 237.784,308.188C238.296,308.615 238.823,309.283 239.42,309.581" style="fill:none;stroke:black;stroke-width:1px;"/>
        </g>
        <g transform="matrix(0.75,0,0,-0.75,0,432)">
            <path d="M239.039,307.034C239.201,307.066 239.189,306.737 239.299,306.613C239.665,306.201 240.065,305.977 240.613,305.899C241.208,305.814 241.272,306.527 241.176,306.977C240.941,308.08 239.949,308.863 239.541,309.884" style="fill:none;stroke:black;stroke-width:1px;"/>
        </g>
        <g transform="matrix(0.75,0,0,-0.75,0,432)">
            <path d="M204.894,307.348C204.894,306.804 204.026,306.362 203.608,306.78C202.161,308.227 204.802,309.55 205.621,310.369" style="fill:none;stroke:black;stroke-width:1px;"/>
        </g>
        <g transform="matrix(0.75,0,0,-0.75,0,432)">
            <path d="M205.129,307.258C205.215,307.501 205.247,306.724 205.439,306.553C205.789,306.242 206.365,305.979 206.766,306.38C207.915,307.529 206.24,309.676 205.742,310.672" style="fill:none;stroke:black;stroke-width:1px;"/>
        </g>
        <g transform="matrix(0.75,0,0,-0.75,0,432)">
            <path d="M44.446,481.888C43.073,482.008 41.969,481.753 40.621,482.427C32.698,486.389 29.454,499.693 38.427,504.479C45.794,508.408 57.532,505.716 58.818,496.287C59.155,493.813 58.547,491.495 57.654,489.198C56.128,485.275 51.91,483.228 48.238,482.004C47.367,481.714 45.151,482.197 44.535,481.581" style="fill:none;stroke:black;stroke-width:1px;"/>
        </g>
        <g transform="matrix(0.75,0,0,-0.75,0,432)">
            <path d="M46.314,506.329C46.544,506.425 46.324,506.828 46.334,507.078C46.362,507.783 46.41,508.488 46.44,509.194C46.506,510.786 46.651,512.357 46.651,513.954C46.651,521.813 47.18,529.938 47.18,537.653" style="fill:none;stroke:black;stroke-width:1px;"/>
        </g>
        <g transform="matrix(0.75,0,0,-0.75,0,432)">
            <path d="M34.296,513.249C34.165,513.047 34.726,513.478 34.908,513.637C35.246,513.933 35.543,514.272 35.86,514.589C36.753,515.482 37.506,516.447 38.399,517.34C39.841,518.781 41.605,519.931 42.948,521.466C43.877,522.528 45.161,524.318 46.44,524.957C47.191,525.333 49.002,521.963 49.296,521.572C51.514,518.615 54.619,513.476 58.183,512.05" style="fill:none;stroke:black;stroke-width:1px;"/>
        </g>
        <g transform="matrix(0.75,0,0,-0.75,0,432)">
            <path d="M38.396,553.248C38.443,552.637 39.116,551.981 39.457,551.512C40.555,550.002 41.478,548.365 42.419,546.751C43.735,544.495 44.953,542.211 46.228,539.98C46.482,539.536 46.947,537.769 47.392,537.547C48.125,537.18 50.182,540.526 50.46,540.932C52.021,543.214 53.589,545.701 54.903,548.126C55.731,549.654 56.179,551.306 57.442,552.57" style="fill:none;stroke:black;stroke-width:1px;"/>
        </g>
        <g transform="matrix(0.75,0,0,-0.75,0,432)">
            <path d="M41.342,490.1C41.348,490.117 41.355,490.134 41.361,490.15" style="fill:none;stroke:black;stroke-width:1px;"/>
        </g>
        <g transform="matrix(0.75,0,0,-0.75,0,432)">
            <path d="M49.078,489.483C49.094,489.565 49.092,489.508 48.979,489.622" style="fill:none;stroke:black;stroke-width:1px;"/>
        </g>
        <g transform="matrix(0.75,0,0,-0.75,0,432)">
            <path d="M40.991,500.333C41.151,500.253 41.873,499.166 42.208,498.932C43.935,497.723 47.337,496.04 49.508,496.604C50.836,496.949 51.573,498.246 52.47,499.143" style="fill:none;stroke:black;stroke-width:1px;"/>
        </g>
        <g transform="matrix(0.75,0,0,-0.75,0,432)">
            <path d="M35.572,502.188C32.772,504.366 29.103,500.628 30.57,497.45C30.844,496.857 31.402,496.252 32.051,496.075C32.759,495.882 33.663,496.758 33.109,497.45C32.228,498.552 30.853,497.51 30.464,496.604C29.815,495.089 29.911,493.35 30.57,491.843C30.855,491.193 31.326,490.63 31.84,490.15C32.062,489.943 32.326,489.787 32.58,489.622C33.97,488.713 34.11,492.095 32.792,490.997C30.632,489.197 32.485,482.963 34.802,481.793C35.982,481.197 37.874,482.633 37.024,483.909C36.847,484.174 35.789,485.237 35.437,484.649C33.472,481.374 40.339,479.049 42.419,479.994C43.623,480.541 41.335,482.289 41.785,481.052C41.865,480.83 41.963,480.609 42.102,480.417C42.366,480.054 42.877,479.675 43.266,479.465C44.803,478.637 49.212,479.054 48.979,481.581C48.937,482.031 47.802,483.253 47.392,482.639C47.071,482.16 47.635,481.091 47.921,480.735C48.911,479.497 50.861,478.48 52.47,479.042C53.55,479.419 55.363,481.243 54.455,482.453C54.242,482.737 52.74,483.45 52.576,482.956C52.211,481.863 53.613,481.281 54.374,481.052C55.989,480.568 58.572,480.481 59.241,482.533C60.169,485.381 55.349,485.507 53.845,484.755" style="fill:none;stroke:black;stroke-width:1px;"/>
        </g>
        <g transform="matrix(0.75,0,0,-0.75,7.57038,433.056)">
            <path d="M83.111,477.043C83.575,476.917 82.142,476.946 81.669,477.032C80.617,477.223 79.863,478.167 79.236,478.936C76.625,482.141 74.506,486.364 74.506,490.596C74.506,492.244 75.273,493.713 76.778,494.466C77.134,494.644 79.448,495.093 79.448,495.546C79.448,496.517 77.231,498.755 76.803,499.672C74.833,503.893 73.046,508.351 72.798,513.061C72.666,515.561 73.473,518.637 74.899,520.725C75.274,521.276 75.636,521.929 76.38,521.929C76.6,521.929 77.863,521.255 77.649,521.149C76.899,520.773 76.095,523.782 76.062,524.111C75.755,527.179 76.622,530.411 79.448,532.045C84.616,535.035 92.326,535.3 98.072,534.416C100.306,534.072 102.705,533.401 104.672,532.277C104.821,532.192 106.981,530.755 106.214,530.353C104.678,529.546 106.62,531.592 106.955,531.834C108.595,533.019 110.501,533.74 112.424,534.352C117.429,535.944 125.502,536.048 130.335,533.527C131.376,532.984 132.417,532.14 132.98,531.093C133.236,530.618 133.154,529.684 133.721,529.401C135.28,528.621 138.199,529.189 139.857,529.189C143.788,529.189 148.406,529.395 151.918,527.285C156.16,524.735 153.346,519.231 156.044,515.859C157.037,514.617 159.252,514.307 160.593,513.531C164.341,511.361 167.442,507.768 167.764,503.261C167.835,502.269 167.957,501.115 167.469,500.201C167.195,499.686 166.2,499.121 166.2,498.508C166.2,497.899 168.618,497.356 169.056,497.027C170.27,496.117 170.849,494.578 171.066,493.113C171.509,490.127 170.141,488.325 168.951,485.707C168.736,485.236 168.345,484.279 167.998,483.803C167.734,483.44 167.046,482.851 167.046,482.851C167.046,482.851 167.648,481.673 167.575,481.052C167.378,479.376 166.87,477.74 165.988,476.291C164.055,473.115 160.54,471.938 156.996,471.531C154.224,471.212 151.242,471.262 148.515,471.881C146.38,472.367 143.56,473.682 141.338,473.435C139.881,473.273 138.244,471.099 136.683,470.578C132.606,469.219 127.915,469.085 123.67,469.52C120.948,469.8 118.323,470.705 115.947,472.059C114.537,472.864 113.169,474.678 111.504,474.916C109.594,475.189 107.497,472.452 105.685,471.848C101.318,470.392 96.727,470.18 92.249,471.213C90.681,471.575 89.063,471.877 87.823,472.979C86.518,474.139 85.931,476.009 85.266,477.561" style="fill:none;stroke:black;stroke-width:1px;"/>
        </g>
        <g transform="matrix(0.75,0,0,-0.75,0,432)">
            <path d="M63.222,476.085C66.016,477.133 65.185,480.01 61.976,479.475C59.946,479.137 62.974,476.083 63.717,475.835" style="fill:none;stroke:black;stroke-width:1px;"/>
        </g>
        <g transform="matrix(0.75,0,0,-0.75,0,432)">
            <path d="M71.852,474.323C71.053,473.448 73.039,472.856 73.687,473.303C75.786,474.753 73.055,477.124 71.313,476.627C68.91,475.94 71.711,473.737 72.579,473.303" style="fill:none;stroke:black;stroke-width:1px;"/>
        </g>
        <g transform="matrix(0.75,0,0,-0.75,0,432)">
            <path d="M80.403,475.521C79.732,475.497 81.156,474.018 81.441,473.936C82.651,473.591 83.845,475.378 83.499,476.468C82.587,479.342 76.902,476.543 80.65,475.044" style="fill:none;stroke:black;stroke-width:1px;"/>
        </g>
        <g transform="matrix(0.75,0,0,-0.75,0,432)">
            <path d="M24.919,459.309C31.843,462.571 38.284,466.571 45.042,470.138C72.204,484.473 99.199,498.625 125.279,514.925C137.051,522.282 148.937,529.396 160.886,536.448C164.865,538.796 168.878,541.212 172.756,543.728C175.007,545.188 176.984,547.142 179.561,548.001" style="fill:none;stroke:black;stroke-width:1px;"/>
        </g>
        <g transform="matrix(0.75,0,0,-0.75,0,432)">
            <path d="M174.551,458.192C171.68,462.237 165.675,466.037 161.836,469.03C153.682,475.388 145.153,481.325 136.357,486.755C113.825,500.664 92.563,516.019 70.68,530.909C60.195,538.043 49.838,545.56 39.187,552.432C35.419,554.862 31.475,556.953 27.634,559.237C26.342,560.005 20.609,563.826 20.671,563.826" style="fill:none;stroke:black;stroke-width:1px;"/>
        </g>
        <g transform="matrix(0.75,0,0,-0.75,0,432)">
            <path d="M217.339,476.003C213.086,475.164 208.306,480.458 207.236,484.026C205.467,489.923 209.936,495.832 215.727,496.816C228.077,498.912 229.877,476.374 217.509,476.374" style="fill:none;stroke:black;stroke-width:1px;"/>
        </g>
        <g transform="matrix(0.75,0,0,-0.75,0,432)">
            <path d="M216.366,497.136C216.126,496.996 216.336,497.692 216.356,497.969C216.408,498.704 216.478,499.438 216.565,500.17C216.742,501.641 216.832,503.087 216.88,504.573C217.026,509.111 216.985,513.659 216.985,518.201C216.985,519.949 217.092,521.7 217.194,523.442C217.23,524.045 216.88,525.828 216.88,525.225" style="fill:none;stroke:black;stroke-width:1px;"/>
        </g>
        <g transform="matrix(0.75,0,0,-0.75,0,432)">
            <path d="M206.964,502.17C206.729,502.125 207.359,502.438 207.55,502.581C208.049,502.955 207.999,502.864 208.494,503.21C209.333,503.797 209.938,504.524 210.59,505.307C211.975,506.969 213.695,508.307 215.203,509.814C215.65,510.262 216.272,511.555 216.775,511.806C217.368,512.103 218.721,509.919 218.977,509.605C221.179,506.894 223.709,504.318 226.629,502.372" style="fill:none;stroke:black;stroke-width:1px;"/>
        </g>
        <g transform="matrix(0.75,0,0,-0.75,0,432)">
            <path d="M208.313,538.757C208.177,538.715 209.559,537.166 209.647,537.07C210.531,536.105 211.389,535.085 212.163,534.03C213.439,532.29 214.966,530.625 215.936,528.684C216.278,528 216.563,526.222 217.299,525.854C217.465,525.771 219.294,528.163 219.501,528.369C221.963,530.831 223.851,533.31 225.581,536.337" style="fill:none;stroke:black;stroke-width:1px;"/>
        </g>
        <g transform="matrix(0.75,0,0,-0.75,0,432)">
            <path d="M213.584,483.669C213.656,483.735 213.566,483.712 213.525,483.712" style="fill:none;stroke:black;stroke-width:1px;"/>
        </g>
        <g transform="matrix(0.75,0,0,-0.75,0,432)">
            <path d="M218.927,483.559C219.001,483.631 218.912,483.607 218.872,483.607" style="fill:none;stroke:black;stroke-width:1px;"/>
        </g>
        <g transform="matrix(0.75,0,0,-0.75,0,432)">
            <path d="M212.081,487.969C211.763,488.537 213.735,489.717 214.05,489.897C215.973,490.996 221.073,491.356 221.073,488.01" style="fill:none;stroke:black;stroke-width:1px;"/>
        </g>
        <g transform="matrix(0.75,0,0,-0.75,0,432)">
            <path d="M209.034,493.337C208.188,494.31 206.494,493.905 205.768,492.937C204.866,491.734 204.168,488.713 205.214,487.405C205.801,486.672 208.382,486.867 207.76,487.905C207.271,488.72 205.811,488.182 205.558,487.486C205.177,486.437 205.107,484.527 205.47,483.438C205.832,482.353 206.553,480.98 207.804,480.801C208.067,480.764 210.743,481.338 209.856,481.93C208.638,482.742 207.969,481.121 207.969,480.252C207.969,478.354 209.148,476.832 210.687,475.87C210.944,475.71 211.229,475.569 211.526,475.495C213.905,474.9 213.304,478.151 212.267,477.736C211.699,477.509 211.965,476.092 212.058,475.745C212.437,474.321 214.013,473.069 215.509,473.069C216.626,473.069 218.922,474.532 218.033,475.954C217.935,476.112 216.958,476.976 216.67,476.688C215.178,475.196 219.284,474.143 219.92,474.172C221.277,474.234 223.648,475.183 223.484,476.898C223.43,477.464 222.34,478.479 221.807,477.946C221.279,477.418 222.216,476.783 222.646,476.688C223.438,476.512 224.167,476.783 224.742,477.317C225.81,478.309 225.073,479.541 223.904,479.833" style="fill:none;stroke:black;stroke-width:1px;"/>
        </g>
        <g transform="matrix(0.75,0,0,-0.75,4.60435,433.402)">
            <path d="M257.934,474.085C256.039,473.587 254.257,474.623 252.732,475.64C248.903,478.192 245.611,482.947 244.765,487.486C244.343,489.747 244.746,491.897 246.667,493.294C247.507,493.904 248.462,494.127 249.482,494.195C249.761,494.213 250.571,494.07 250.321,494.195C245.227,496.742 242.107,506.397 246.141,511.164C247.728,513.04 248.985,512.898 251.055,513.588C251.22,513.644 250.788,513.818 250.635,513.903C250.006,514.252 250.038,514.244 249.482,514.846C248.726,515.666 248.161,516.557 247.7,517.572C246.44,520.343 245.344,524.604 246.634,527.554C248.183,531.095 253.474,534.633 257.449,534.554C259.031,534.523 260.871,533.706 261.852,532.458C261.861,532.446 262.416,531.5 262.481,531.305L262.481,530.885C264.871,538.056 275.737,539.046 281.77,536.966C283.178,536.48 283.755,535.958 284.81,535.079C285.225,534.732 285.764,533.837 286.382,533.925C287.478,534.082 288.683,535.304 289.632,535.812C291.955,537.057 294.457,538.04 297.075,538.433C300.347,538.924 305.417,539.391 308.513,537.843C309.538,537.33 309.744,535.239 310.703,535.079C311.961,534.869 313.414,535.927 314.582,536.232C317.72,537.05 321.238,536.839 324.436,536.651C326.001,536.559 327.993,536.483 329.4,535.638C331.991,534.084 330.187,530.108 332.298,528.789C333.157,528.252 334.314,528.213 335.233,527.845C336.964,527.153 338.385,525.24 339.217,523.652C340.597,521.017 341.37,516.992 340.056,514.217C339.501,513.046 336.9,510.822 337.12,509.5C337.322,508.289 340.115,507.885 340.971,506.906C343.035,504.548 343.658,501.086 343.658,498.066C343.658,494.709 341.384,491.725 338.483,490.211C336.954,489.413 335.137,489.377 333.661,488.639C333.505,488.561 334.016,488.681 334.185,488.639C334.551,488.547 334.785,488.278 335.024,488.01C335.696,487.254 335.907,486.073 335.758,485.074C335.226,481.531 333.394,478.534 330.621,476.374C328.05,474.371 323.748,474.301 320.662,474.172C320.122,474.15 317.259,474.934 316.993,474.801C316.83,474.72 316.674,473.991 316.574,473.858C315.908,472.97 314.837,472.19 313.953,471.551C310.603,469.132 306.477,468.468 302.422,468.721C299.936,468.876 297.167,469.743 295.083,471.132C294.638,471.429 293.545,472.914 292.987,472.914C292.187,472.914 290.833,471.467 290.261,471.027C288.708,469.833 287.089,468.839 285.125,468.511C281.786,467.955 278.815,468.948 275.899,470.503C274.757,471.112 273.991,472.166 272.65,472.39C270.985,472.667 268.938,470.222 267.199,469.874C262.714,468.977 259.778,472.368 256.925,475.22" style="fill:none;stroke:black;stroke-width:1px;"/>
        </g>
        <g transform="matrix(0.75,0,0,-0.75,0,432)">
            <path d="M229.248,474.618C229.015,474.327 230.076,473.89 230.253,473.868C231.673,473.691 233.1,475.481 232.293,476.772C230.685,479.344 227.018,476.588 229.574,474.544" style="fill:none;stroke:black;stroke-width:1px;"/>
        </g>
        <g transform="matrix(0.75,0,0,-0.75,0,432)">
            <path d="M237.733,468.949C238.117,468.134 237.801,467.437 239.126,467.196C240.476,466.951 242.14,468.447 241.438,469.851C241.203,470.321 240.657,470.642 240.241,470.912C239.942,471.106 239.63,471.216 239.276,471.246C238.765,471.288 238.242,471.333 237.801,471.026C236.367,470.027 237.302,467.917 238.879,467.792" style="fill:none;stroke:black;stroke-width:1px;"/>
        </g>
        <g transform="matrix(0.75,0,0,-0.75,0,432)">
            <path d="M248.01,471.448C248.102,470.8 249.315,470.69 249.772,470.856C251.996,471.659 252.047,474.499 249.999,475.451C247.205,476.751 245.967,472.401 248.411,471.423" style="fill:none;stroke:black;stroke-width:1px;"/>
        </g>
        <g transform="matrix(1.39873,0,0,-1.44111,0.358019,608.226)">
            <text x="13.02px" y="140.112px" style="font-family:'ComicRelief', 'Comic Relief', cursive;font-size:12.003px;"><tspan xmlns:ns0="http://sodipodi.sourceforge.net/DTD/sodipodi-0.dtd" ns0:role="line">it's not too late to start learning</tspan></text>
        </g>
    </g>
</svg>