<!DOCTYPE svg PUBLIC "-//W3C//DTD SVG 1.1//EN" "http://www.w3.org/Graphics/SVG/1.1/DTD/svg11.dtd">
<svg xmlns="http://www.w3.org/2000/svg" xmlns:xlink="http://www.w3.org/1999/xlink" xmlns:serif="http://www.serif.com/" width="100%" height="100%" viewBox="0 0 384 576" version="1.1" xml:space="preserve" style="fill-rule:evenodd;clip-rule:evenodd;stroke-linecap:round;stroke-linejoin:round;stroke-miterlimit:1.5;">
    <g id="g10" transform="matrix(1.33333,0,0,-1.33333,0,576)">
        <g transform="matrix(0.388487,0,0,-0.388487,58.4,305.842)">
            <text x="173.778px" y="165.375px" style="font-family:'ComicRelief', 'Comic Relief', cursive;font-size:24.135px;"><tspan xmlns:ns0="http://sodipodi.sourceforge.net/DTD/sodipodi-0.dtd" ns0:role="line">like this?</tspan></text>
            <text x="118.39px" y="189.51px" style="font-family:'ComicRelief', 'Comic Relief', cursive;font-size:24.135px;"><tspan xmlns:ns0="http://sodipodi.sourceforge.net/DTD/sodipodi-0.dtd" ns0:role="line">you can print more!</tspan></text>
            <text x="175.528px" y="213.645px" style="font-family:'ComicRelief', 'Comic Relief', cursive;font-size:24.135px;"><tspan xmlns:ns0="http://sodipodi.sourceforge.net/DTD/sodipodi-0.dtd" ns0:role="line">for free!</tspan></text>
            <text x="88.015px" y="237.78px" style="font-family:'ComicRelief', 'Comic Relief', cursive;font-size:24.135px;"><tspan xmlns:ns0="http://sodipodi.sourceforge.net/DTD/sodipodi-0.dtd" ns0:role="line">https://wizardzines.com</tspan></text>
        </g>
        <g transform="matrix(0.75,0,0,-0.75,0,432)">
            <path d="M4.579,566.067C6.858,564.943 9.246,564.235 11.648,563.434" style="fill:none;stroke:black;stroke-width:1.2px;"/>
        </g>
        <g transform="matrix(0.75,0,0,-0.75,0,432)">
            <path d="M7.641,565.273C7.409,565.597 8.219,566.6 8.351,566.835C9.318,568.545 9.961,571.368 7.012,571.368C6.421,571.368 6.02,571.184 5.518,570.905" style="fill:none;stroke:black;stroke-width:1.2px;"/>
        </g>
        <g transform="matrix(0.75,0,0,-0.75,0,432)">
            <path d="M12.836,567.768C12.756,567.617 12.791,568.107 12.782,568.277C12.78,568.315 12.778,569.032 12.79,569.177C12.865,570.157 13.501,571.258 14.533,571.42C17.161,571.831 16.233,569.335 16.233,567.865" style="fill:none;stroke:black;stroke-width:1.2px;"/>
        </g>
        <g transform="matrix(0.75,0,0,-0.75,0,432)">
            <path d="M19.647,564.644C19.524,564.407 19.641,565.18 19.685,565.444C19.737,565.756 19.82,566.062 19.891,566.371C20.226,567.821 20.347,569.354 20.87,570.75" style="fill:none;stroke:black;stroke-width:1.2px;"/>
        </g>
        <g transform="matrix(0.75,0,0,-0.75,0,432)">
            <path d="M23.338,568.432C23.685,568.403 23.461,569.117 23.498,569.462C23.557,570.012 23.574,570.562 23.652,571.111" style="fill:none;stroke:black;stroke-width:1.2px;"/>
        </g>
        <g transform="matrix(0.75,0,0,-0.75,0,432)">
            <path d="M23.618,566.127C23.57,566.09 23.594,566.117 23.704,566.062" style="fill:none;stroke:black;stroke-width:1.2px;"/>
        </g>
        <g transform="matrix(0.75,0,0,-0.75,0,432)">
            <path d="M31.296,568.657C30.555,567.931 29.169,567.664 28.274,568.201C27.501,568.666 26.971,570.258 27.619,571.008C28.385,571.894 30.043,571.208 30.659,570.492C30.863,570.255 30.953,569.924 30.968,569.617C30.976,569.462 30.979,569.307 30.968,569.153C30.961,569.049 30.916,568.739 30.916,568.844C30.916,570.134 31.372,570.947 32.565,571.42" style="fill:none;stroke:black;stroke-width:1.2px;"/>
        </g>
        <g transform="matrix(0.75,0,0,-0.75,0,432)">
            <path d="M41.154,565.977C41.362,565.712 41.169,566.652 41.169,566.989L41.169,568.071C41.169,568.953 41.001,570.068 41.195,570.94C41.48,572.224 44.019,571.104 44.672,570.853" style="fill:none;stroke:black;stroke-width:1.2px;"/>
        </g>
        <g transform="matrix(0.75,0,0,-0.75,0,432)">
            <path d="M41.9,568.815C42.833,568.312 43.852,568.205 44.878,567.968" style="fill:none;stroke:black;stroke-width:1.2px;"/>
        </g>
        <g transform="matrix(0.75,0,0,-0.75,0,432)">
            <path d="M42.064,565.751C41.983,565.757 42.223,565.721 42.302,565.701C42.492,565.654 42.676,565.58 42.869,565.547C43.48,565.441 44.159,565.424 44.775,565.392" style="fill:none;stroke:black;stroke-width:1.2px;"/>
        </g>
        <g transform="matrix(0.75,0,0,-0.75,0,432)">
            <path d="M47.021,568.514C47.244,568.733 47.524,569.462 47.712,569.874C47.791,570.049 47.865,570.228 47.969,570.389C48.609,571.378 49.084,570.979 49.36,569.874C49.577,569.007 49.88,568.167 50.339,567.401" style="fill:none;stroke:black;stroke-width:1.2px;"/>
        </g>
        <g transform="matrix(0.75,0,0,-0.75,0,432)">
            <path d="M55.689,568.548C55.905,568.192 54.49,567.823 54.358,567.813C53.088,567.725 52.14,569.55 52.361,570.656C52.591,571.804 54.586,571.205 55.079,570.595C55.314,570.304 55.422,569.925 55.491,569.565C55.523,569.396 55.532,569.222 55.543,569.05C55.55,568.93 55.543,568.569 55.543,568.689C55.543,569.844 55.324,571.479 56.882,571.523" style="fill:none;stroke:black;stroke-width:1.2px;"/>
        </g>
        <g transform="matrix(0.75,0,0,-0.75,0,432)">
            <path d="M58.581,568.643C58.608,568.546 58.582,568.846 58.582,568.947L58.582,569.565C58.582,569.675 58.484,571.729 58.737,571.729C58.822,571.729 58.786,570.598 58.788,570.544C58.83,569.626 58.973,568.262 60.076,568.02C61.889,567.622 61.828,570.456 61.828,571.471" style="fill:none;stroke:black;stroke-width:1.2px;"/>
        </g>
        <g transform="matrix(0.75,0,0,-0.75,0,432)">
            <path d="M66.355,568.096C66.395,567.939 65.779,567.882 65.692,567.865C65.239,567.778 64.328,568.087 64.328,568.661C64.328,568.99 64.755,569.178 64.971,569.308C65.73,569.763 66.7,570.276 67.237,571.008C67.865,571.862 66.633,571.977 66.052,571.832C65.754,571.757 65.457,571.592 65.177,571.471" style="fill:none;stroke:black;stroke-width:1.2px;"/>
        </g>
        <g transform="matrix(0.75,0,0,-0.75,0,432)">
            <path d="M70.224,572.534C70.247,572.809 69.282,573.651 69.092,573.841" style="fill:none;stroke:black;stroke-width:1.2px;"/>
        </g>
        <g transform="matrix(0.75,0,0,-0.75,0,432)">
            <path d="M76.251,567.646C76.647,567.926 76.499,568.584 76.631,569.051C76.846,569.812 77.081,570.642 77.404,571.369C77.477,571.533 77.761,572.255 77.97,572.296C78.608,572.424 78.404,570.297 79.361,570.596C79.875,570.757 80.913,573.094 81.637,572.008C82.325,570.976 82.024,569.533 82.143,568.381C82.174,568.085 82.164,567.567 82.504,567.454" style="fill:none;stroke:black;stroke-width:1.2px;"/>
        </g>
        <g transform="matrix(0.75,0,0,-0.75,0,432)">
            <path d="M84.639,568.398C84.783,568.312 84.698,568.729 84.719,568.896C84.753,569.154 84.789,569.411 84.822,569.669C84.914,570.382 84.916,571.062 85.183,571.73" style="fill:none;stroke:black;stroke-width:1.2px;"/>
        </g>
        <g transform="matrix(0.75,0,0,-0.75,0,432)">
            <path d="M84.207,565.533C84.2,565.564 84.204,565.542 84.204,565.599" style="fill:none;stroke:black;stroke-width:1.2px;"/>
        </g>
        <g transform="matrix(0.75,0,0,-0.75,0,432)">
            <path d="M87.907,567.489C87.98,567.672 88.286,567.378 88.48,567.351C89.006,567.275 90.763,566.895 91.144,567.563C91.73,568.588 89.569,569.999 89.047,570.493C88.485,571.026 87.64,571.742 88.841,571.73C89.116,571.727 89.391,571.738 89.665,571.73C89.992,571.72 90.318,571.703 90.644,571.678C91.506,571.612 91.937,571.539 92.808,571.421" style="fill:none;stroke:black;stroke-width:1.2px;"/>
        </g>
        <g transform="matrix(0.75,0,0,-0.75,0,432)">
            <path d="M98.763,568.139C98.835,568.086 98.223,567.714 98.217,567.711C97.628,567.417 96.966,567.467 96.38,567.737C95.207,568.279 94.112,570.064 94.712,571.364C95.48,573.027 97.778,571.619 98.526,570.699C98.889,570.254 98.958,569.719 98.887,569.154C98.865,568.978 98.659,568.516 98.629,568.69C98.41,570.008 99.13,571.275 100.227,571.884" style="fill:none;stroke:black;stroke-width:1.2px;"/>
        </g>
        <g transform="matrix(0.75,0,0,-0.75,0,432)">
            <path d="M101.956,568.869C102.113,568.698 101.971,569.334 101.978,569.566C101.995,570.092 102.029,570.644 102.133,571.163C102.171,571.355 102.235,571.541 102.287,571.73C102.337,571.908 102.576,572.41 102.493,572.245C101.336,569.93 102.134,567.763 104.657,567.402" style="fill:none;stroke:black;stroke-width:1.2px;"/>
        </g>
        <g transform="matrix(0.75,0,0,-0.75,0,432)">
            <path d="M111.24,568.712C111.297,568.601 109.608,567.954 109.448,567.917C108.874,567.787 108.204,567.681 107.697,568.072C106.568,568.944 105.768,571.404 107.442,572.074C107.677,572.168 108.018,572.238 108.27,572.254C111.188,572.436 110.551,568.699 110.633,566.835C110.652,566.423 110.677,566.011 110.685,565.599L110.685,562.92" style="fill:none;stroke:black;stroke-width:1.2px;"/>
        </g>
        <g transform="matrix(0.75,0,0,-0.75,0,432)">
            <path d="M118.142,567.991C117.856,568.37 118.301,568.927 118.366,569.396C118.469,570.135 118.424,570.916 118.605,571.642" style="fill:none;stroke:black;stroke-width:1.2px;"/>
        </g>
        <g transform="matrix(0.75,0,0,-0.75,0,432)">
            <path d="M117.724,565.881C117.766,565.842 117.745,565.995 117.745,566.053" style="fill:none;stroke:black;stroke-width:1.2px;"/>
        </g>
        <g transform="matrix(0.75,0,0,-0.75,0,432)">
            <path d="M120.305,567.364C120.428,567.226 120.337,567.734 120.372,567.916C120.432,568.223 120.537,568.519 120.611,568.823C120.815,569.661 120.993,570.584 120.993,571.45C120.993,571.562 121.001,571.227 120.993,571.116C120.962,570.681 120.946,570.722 120.946,570.256C120.946,569.445 120.76,567.679 121.853,567.39C123.17,567.042 124.562,568.912 124.837,570.011C124.976,570.567 124.913,571.132 125.006,571.689" style="fill:none;stroke:black;stroke-width:1.2px;"/>
        </g>
        <g transform="matrix(0.75,0,0,-0.75,0,432)">
            <path d="M131.017,567.517C131.13,567.771 130.489,567.327 130.212,567.295C129.636,567.227 129.015,567.364 128.588,567.772C127.942,568.39 126.507,570.945 127.824,571.546C128.984,572.075 130.577,571.009 130.762,569.806C130.912,568.829 130.617,567.828 130.499,566.865C130.447,566.435 130.389,566.006 130.356,565.575C130.295,564.78 130.308,564.164 130.308,563.378" style="fill:none;stroke:black;stroke-width:1.2px;"/>
        </g>
        <g transform="matrix(0.75,0,0,-0.75,0,432)">
            <path d="M133.28,567.086C133.439,566.958 133.396,567.329 133.413,567.581C133.434,567.884 133.429,568.188 133.461,568.489C133.572,569.55 133.805,570.88 135.106,570.98C137.941,571.199 136.566,567.74 136.566,566.339" style="fill:none;stroke:black;stroke-width:1.2px;"/>
        </g>
        <g transform="matrix(0.75,0,0,-0.75,0,432)">
            <path d="M141.996,566.749C142.072,566.853 141.754,566.657 141.629,566.626C141.477,566.588 141.05,566.502 140.865,566.53C140.341,566.612 139.775,567.2 139.71,567.725C139.654,568.171 140.316,568.457 140.578,568.632C141.593,569.309 144.122,570.715 141.772,571.164C141.439,571.227 141.299,571.273 140.96,571.307C140.499,571.354 140.079,571.282 139.623,571.212" style="fill:none;stroke:black;stroke-width:1.2px;"/>
        </g>
        <g transform="matrix(0.75,0,0,-0.75,0,432)">
            <path d="M145.54,563.035C145.729,563.295 145.557,563.679 145.594,563.999C145.644,564.43 145.721,564.859 145.785,565.288C146.05,567.086 146.453,568.91 146.453,570.734" style="fill:none;stroke:black;stroke-width:1.2px;"/>
        </g>
        <g transform="matrix(0.75,0,0,-0.75,0,432)">
            <path d="M143.993,566.876C145.185,566.299 146.893,566.398 148.173,566.292" style="fill:none;stroke:black;stroke-width:1.2px;"/>
        </g>
        <g transform="matrix(0.75,0,0,-0.75,0,432)">
            <path d="M150.32,567.896C150.329,568.263 150.397,568.65 150.418,569.014C150.454,569.627 150.314,570.564 150.514,571.164C150.584,571.376 150.588,570.717 150.562,570.495C150.501,569.982 150.4,569.543 150.418,569.014C150.468,567.534 151.343,567.056 152.663,567.056" style="fill:none;stroke:black;stroke-width:1.2px;"/>
        </g>
        <g transform="matrix(0.75,0,0,-0.75,0,432)">
            <path d="M154.826,567.7C154.773,567.607 154.889,567.906 154.908,568.011C154.941,568.186 154.984,568.36 155.004,568.537C155.089,569.27 154.816,570.285 155.243,570.925" style="fill:none;stroke:black;stroke-width:1.2px;"/>
        </g>
        <g transform="matrix(0.75,0,0,-0.75,0,432)">
            <path d="M154.996,564.91C155.078,564.865 154.986,564.811 155.052,564.811" style="fill:none;stroke:black;stroke-width:1.2px;"/>
        </g>
        <g transform="matrix(0.75,0,0,-0.75,0,432)">
            <path d="M158.54,568.258C158.525,568.18 158.689,568.316 158.764,568.343C159.039,568.444 159.08,568.457 159.371,568.479C159.799,568.512 161.46,568.609 161.453,567.82C161.444,566.96 160.312,566.459 159.61,566.621C158.535,566.869 157.287,568.672 157.827,569.752C158.061,570.221 158.61,570.521 159.07,570.715C159.496,570.894 159.939,570.99 160.402,570.973C161.039,570.949 161.654,570.751 162.265,570.591" style="fill:none;stroke:black;stroke-width:1.2px;"/>
        </g>
        <g transform="matrix(0.75,0,0,-0.75,0,432)">
            <path d="M168.1,566.496C167.746,565.877 165.343,566.923 165.656,567.677C165.788,567.994 166.373,568.378 166.564,568.537C167.151,569.026 169.907,571.034 167.567,571.355C167.331,571.387 167.134,571.37 166.898,571.355C166.076,571.304 166.102,571.29 165.274,571.116" style="fill:none;stroke:black;stroke-width:1.2px;"/>
        </g>
        <g transform="matrix(0.75,0,0,-0.75,0,432)">
            <path d="M178.248,565.189C179.726,563.103 182.278,564.042 182.063,566.707C181.939,568.244 180.55,569.427 179.577,570.468C179.295,570.771 179.017,571.018 178.671,571.245C178.487,571.366 177.914,571.456 178.098,571.579C178.341,571.741 179.664,571.489 179.866,571.484C180.9,571.457 181.936,571.436 182.971,571.436" style="fill:none;stroke:black;stroke-width:1.2px;"/>
        </g>
        <g transform="matrix(0.75,0,0,-0.75,0,432)">
            <path d="M190.31,566.603C190.409,566.651 190.197,566.416 190.136,566.325C189.988,566.103 189.998,566.043 189.801,565.847C189.282,565.328 188.65,565.52 188.112,565.879C186.877,566.702 186.26,568.557 185.945,569.926C185.839,570.383 185.609,571.286 186.072,571.668C187.368,572.735 190.538,571.506 190.9,569.907C191.217,568.508 190.107,566.935 189.515,565.751" style="fill:none;stroke:black;stroke-width:1.2px;"/>
        </g>
        <g transform="matrix(0.75,0,0,-0.75,0,432)">
            <path d="M193.517,566.704C194.038,564.453 197.169,565.808 197.349,567.662C197.479,569.012 196.138,569.998 195.247,570.815C194.71,571.307 194.279,571.639 193.671,572.009C193.537,572.091 193.11,572.287 193.241,572.2C193.806,571.823 194.912,572.132 195.533,572.152C196.145,572.172 196.713,572.071 197.301,571.914" style="fill:none;stroke:black;stroke-width:1.2px;"/>
        </g>
        <g transform="matrix(0.75,0,0,-0.75,0,432)">
            <path d="M205.72,567.852C205.51,567.878 205.026,566.899 204.848,566.707C204.477,566.305 203.743,566.364 203.272,566.516C202.441,566.784 201.766,567.413 201.333,568.155C200.985,568.752 200.674,569.429 200.501,570.098C199.619,573.508 204.046,573.817 205.851,571.847C206.516,571.122 206.418,570.335 206.281,569.43C206.153,568.584 205.8,567.895 205.421,567.137" style="fill:none;stroke:black;stroke-width:1.2px;"/>
        </g>
        <g transform="matrix(0.75,0,0,-0.75,0,432)">
            <path d="M8.841,8.382C9.294,8.372 8.165,6.544 7.444,6.464C5.761,6.277 4.263,7.324 3.849,8.981C3.235,11.436 8.06,13.072 9.602,14.613" style="fill:none;stroke:black;stroke-width:1.5px;"/>
        </g>
        <g transform="matrix(0.75,0,0,-0.75,0,432)">
            <path d="M8.669,7.745C8.643,7.782 8.789,7.292 8.882,7.183C9.239,6.767 9.59,6.489 10.081,6.224C11.159,5.644 12.79,5.255 13.317,6.704C14.477,9.894 10.092,12.771 9.362,15.692" style="fill:none;stroke:black;stroke-width:1.5px;"/>
        </g>
        <g transform="matrix(0.75,0,0,-0.75,0,432)">
            <path d="M373.189,8.399C372.905,8.719 372.789,7.6 372.433,7.363C371.68,6.861 370.476,6.477 369.556,6.644C368.172,6.895 366.911,8.404 367.759,9.76C368.919,11.616 372.155,13.695 374.111,14.673" style="fill:none;stroke:black;stroke-width:1.5px;"/>
        </g>
        <g transform="matrix(0.75,0,0,-0.75,0,432)">
            <path d="M373.208,8.464C372.998,8.38 373.966,7.247 374.111,7.123C374.793,6.538 376.337,5.797 377.227,6.404C379.387,7.878 375.994,11.366 375.189,12.516C374.994,12.795 374.048,14.793 373.751,14.793" style="fill:none;stroke:black;stroke-width:1.5px;"/>
        </g>
        <g transform="matrix(0.75,0,0,-0.75,-8.95864,418.609)">
            <path d="M21.045,530.435C19.977,529.567 18.259,531.424 17.898,532.192C16.376,535.425 18.816,536.671 21.531,536.671" style="fill:none;stroke:black;stroke-width:1.2px;"/>
        </g>
        <g transform="matrix(0.75,0,0,-0.75,-8.95864,418.609)">
            <path d="M28.21,530.928C27.725,530.322 25.941,531.589 25.672,531.939C23.53,534.723 25.301,537.799 28.799,536.924" style="fill:none;stroke:black;stroke-width:1.2px;"/>
        </g>
        <g transform="matrix(0.75,0,0,-0.75,-8.95864,418.609)">
            <path d="M32.562,534.527C32.816,534.73 34.652,534.421 34.967,534.389" style="fill:none;stroke:black;stroke-width:1.2px;"/>
        </g>
        <g transform="matrix(0.75,0,0,-0.75,-8.95864,418.609)">
            <path d="M38.73,531.253C39.386,531.417 39.148,532.542 39.277,533.206C39.446,534.078 40.012,535.903 39.699,536.84C39.626,537.06 39.572,536.392 39.53,536.164C39.48,535.884 39.393,535.334 39.361,535.065C39.223,533.888 39.4,529.674 41.728,530.418C42.671,530.719 43.104,532.377 42.477,533.128C42.138,533.535 41.708,533.848 41.221,534.051C40.974,534.154 40.193,534.305 40.46,534.305C41.441,534.305 43.89,534.955 43.333,536.502C42.874,537.776 39.986,537.719 39.446,536.586" style="fill:none;stroke:black;stroke-width:1.2px;"/>
        </g>
        <g transform="matrix(0.75,0,0,-0.75,-8.95864,418.609)">
            <path d="M45.895,531.7C45.678,531.576 46.263,532.038 46.46,532.192C46.712,532.391 46.974,532.578 47.22,532.784C47.955,533.396 48.557,533.959 49.417,534.389" style="fill:none;stroke:black;stroke-width:1.2px;"/>
        </g>
        <g transform="matrix(0.75,0,0,-0.75,-8.95864,418.609)">
            <path d="M50.661,530.613C50.797,530.462 50.476,530.98 50.431,531.178C50.336,531.598 50.285,532.028 50.178,532.446C49.69,534.344 48.705,536.055 48.234,537.938" style="fill:none;stroke:black;stroke-width:1.2px;"/>
        </g>
        <g transform="matrix(0.75,0,0,-0.75,-8.95864,418.609)">
            <path d="M54.205,534.515C54.408,534.228 56.443,534.474 56.769,534.474" style="fill:none;stroke:black;stroke-width:1.2px;"/>
        </g>
        <g transform="matrix(0.75,0,0,-0.75,-8.95864,418.609)">
            <path d="M61.213,536.903C61.615,537.151 61.279,535.959 61.248,535.488C61.189,534.606 60.64,532.783 61.248,532.023C61.485,531.727 61.853,532.523 62.008,532.868C62.52,534.005 63.189,535.063 64.121,535.91C64.23,536.009 64.967,536.67 65.219,536.502C65.456,536.344 65.388,535.712 65.388,535.488C65.388,534.106 65.244,532.733 65.304,531.347C65.317,531.035 65.254,530.333 65.726,530.333" style="fill:none;stroke:black;stroke-width:1.2px;"/>
        </g>
        <g transform="matrix(0.75,0,0,-0.75,-8.95864,418.609)">
            <path d="M71.877,531.667C72.014,531.804 71.578,531.389 71.388,531.347C70.945,531.249 70.364,531.399 69.98,531.612C68.875,532.226 68.011,533.545 67.924,534.812C67.757,537.21 71.669,536.754 73.078,536.671" style="fill:none;stroke:black;stroke-width:1.2px;"/>
        </g>
        <g transform="matrix(0.75,0,0,-0.75,-8.95864,418.609)">
            <path d="M76.664,533.932C76.322,534.25 77.597,533.882 78.064,533.882L79.839,533.882" style="fill:none;stroke:black;stroke-width:1.2px;"/>
        </g>
        <g transform="matrix(0.75,0,0,-0.75,-8.95864,418.609)">
            <path d="M86.018,531.13C85.975,530.981 85.201,531.168 85.162,531.178C84.472,531.351 82.703,531.97 82.796,532.953C82.904,534.083 85.73,534.504 86.514,534.896C87.596,535.437 87.512,536.074 86.345,536.333C86.038,536.401 85.728,536.459 85.416,536.502C84.635,536.608 84.677,536.614 83.895,536.502" style="fill:none;stroke:black;stroke-width:1.2px;"/>
        </g>
        <g transform="matrix(0.75,0,0,-0.75,-8.95864,418.609)">
            <path d="M88.788,537.858C89.165,537.669 89.62,536.227 89.725,535.91C90.219,534.429 90.529,532.917 90.993,531.432C91.005,531.393 91.416,529.894 91.753,530.164C92.029,530.384 92.192,531.243 92.26,531.432C92.755,532.793 93.37,534.16 93.951,535.488C94.15,535.943 94.546,536.582 94.12,537.009" style="fill:none;stroke:black;stroke-width:1.2px;"/>
        </g>
        <g transform="matrix(0.75,0,0,-0.75,-8.95864,418.609)">
            <path d="M90.256,534.594C90.122,534.392 90.358,534.547 90.824,534.474C91.162,534.42 91.498,534.346 91.838,534.305C93.006,534.165 92.963,534.217 94.12,534.051" style="fill:none;stroke:black;stroke-width:1.2px;"/>
        </g>
    </g>
</svg>